<svg xmlns="http://www.w3.org/2000/svg" xmlns:xlink="http://www.w3.org/1999/xlink" width="600" height="400" viewBox="0 0 2400 1600">
<defs>
  <clipPath id="clip750">
    <rect x="0" y="0" width="2400" height="1600"></rect>
  </clipPath>
</defs>
<path clip-path="url(#clip750)" d="M0 1600 L2400 1600 L2400 0 L0 0  Z" fill="#ffffff" fill-rule="evenodd" fill-opacity="1"></path>
<defs>
  <clipPath id="clip751">
    <rect x="480" y="0" width="1681" height="1600"></rect>
  </clipPath>
</defs>
<path clip-path="url(#clip750)" d="M252.764 1410.9 L2352.76 1410.9 L2352.76 123.472 L252.764 123.472  Z" fill="#ffffff" fill-rule="evenodd" fill-opacity="1"></path>
<defs>
  <clipPath id="clip752">
    <rect x="252" y="123" width="2101" height="1288"></rect>
  </clipPath>
</defs>
<polyline clip-path="url(#clip752)" style="stroke:#000000; stroke-linecap:round; stroke-linejoin:round; stroke-width:2; stroke-opacity:0.1; fill:none" points="977.092,1410.9 977.092,123.472 "></polyline>
<polyline clip-path="url(#clip752)" style="stroke:#000000; stroke-linecap:round; stroke-linejoin:round; stroke-width:2; stroke-opacity:0.1; fill:none" points="2293.32,1410.9 2293.32,123.472 "></polyline>
<polyline clip-path="url(#clip750)" style="stroke:#000000; stroke-linecap:round; stroke-linejoin:round; stroke-width:4; stroke-opacity:1; fill:none" points="252.764,1410.9 2352.76,1410.9 "></polyline>
<polyline clip-path="url(#clip750)" style="stroke:#000000; stroke-linecap:round; stroke-linejoin:round; stroke-width:4; stroke-opacity:1; fill:none" points="977.092,1410.9 977.092,1392 "></polyline>
<polyline clip-path="url(#clip750)" style="stroke:#000000; stroke-linecap:round; stroke-linejoin:round; stroke-width:4; stroke-opacity:1; fill:none" points="2293.32,1410.9 2293.32,1392 "></polyline>
<path clip-path="url(#clip750)" d="M927.357 1485.02 L934.996 1485.02 L934.996 1458.66 L926.686 1460.32 L926.686 1456.06 L934.95 1454.4 L939.626 1454.4 L939.626 1485.02 L947.265 1485.02 L947.265 1488.96 L927.357 1488.96 L927.357 1485.02 Z" fill="#000000" fill-rule="nonzero" fill-opacity="1"></path><path clip-path="url(#clip750)" d="M966.709 1457.48 Q963.098 1457.48 961.269 1461.04 Q959.464 1464.58 959.464 1471.71 Q959.464 1478.82 961.269 1482.38 Q963.098 1485.92 966.709 1485.92 Q970.343 1485.92 972.149 1482.38 Q973.977 1478.82 973.977 1471.71 Q973.977 1464.58 972.149 1461.04 Q970.343 1457.48 966.709 1457.48 M966.709 1453.77 Q972.519 1453.77 975.575 1458.38 Q978.653 1462.96 978.653 1471.71 Q978.653 1480.44 975.575 1485.04 Q972.519 1489.63 966.709 1489.63 Q960.899 1489.63 957.82 1485.04 Q954.765 1480.44 954.765 1471.71 Q954.765 1462.96 957.82 1458.38 Q960.899 1453.77 966.709 1453.77 Z" fill="#000000" fill-rule="nonzero" fill-opacity="1"></path><path clip-path="url(#clip750)" d="M978.653 1447.87 L1002.76 1447.87 L1002.76 1451.07 L978.653 1451.07 L978.653 1447.87 Z" fill="#000000" fill-rule="nonzero" fill-opacity="1"></path><path clip-path="url(#clip750)" d="M1014.24 1458.35 L1027.5 1458.35 L1027.5 1461.55 L1009.67 1461.55 L1009.67 1458.35 Q1011.83 1456.11 1015.55 1452.35 Q1019.3 1448.57 1020.26 1447.48 Q1022.08 1445.43 1022.8 1444.02 Q1023.53 1442.59 1023.53 1441.22 Q1023.53 1438.98 1021.95 1437.57 Q1020.39 1436.16 1017.87 1436.16 Q1016.08 1436.16 1014.09 1436.78 Q1012.11 1437.4 1009.86 1438.66 L1009.86 1434.82 Q1012.15 1433.9 1014.14 1433.43 Q1016.14 1432.96 1017.79 1432.96 Q1022.16 1432.96 1024.75 1435.14 Q1027.35 1437.32 1027.35 1440.97 Q1027.35 1442.7 1026.69 1444.26 Q1026.05 1445.8 1024.34 1447.91 Q1023.87 1448.46 1021.35 1451.07 Q1018.83 1453.67 1014.24 1458.35 Z" fill="#000000" fill-rule="nonzero" fill-opacity="1"></path><path clip-path="url(#clip750)" d="M2258.3 1485.02 L2265.94 1485.02 L2265.94 1458.66 L2257.63 1460.32 L2257.63 1456.06 L2265.9 1454.4 L2270.57 1454.4 L2270.57 1485.02 L2278.21 1485.02 L2278.21 1488.96 L2258.3 1488.96 L2258.3 1485.02 Z" fill="#000000" fill-rule="nonzero" fill-opacity="1"></path><path clip-path="url(#clip750)" d="M2297.66 1457.48 Q2294.05 1457.48 2292.22 1461.04 Q2290.41 1464.58 2290.41 1471.71 Q2290.41 1478.82 2292.22 1482.38 Q2294.05 1485.92 2297.66 1485.92 Q2301.29 1485.92 2303.1 1482.38 Q2304.93 1478.82 2304.93 1471.71 Q2304.93 1464.58 2303.1 1461.04 Q2301.29 1457.48 2297.66 1457.48 M2297.66 1453.77 Q2303.47 1453.77 2306.52 1458.38 Q2309.6 1462.96 2309.6 1471.71 Q2309.6 1480.44 2306.52 1485.04 Q2303.47 1489.63 2297.66 1489.63 Q2291.85 1489.63 2288.77 1485.04 Q2285.71 1480.44 2285.71 1471.71 Q2285.71 1462.96 2288.77 1458.38 Q2291.85 1453.77 2297.66 1453.77 Z" fill="#000000" fill-rule="nonzero" fill-opacity="1"></path><path clip-path="url(#clip750)" d="M2319.31 1435.97 Q2316.37 1435.97 2314.89 1438.86 Q2313.42 1441.74 2313.42 1447.53 Q2313.42 1453.31 2314.89 1456.2 Q2316.37 1459.08 2319.31 1459.08 Q2322.26 1459.08 2323.73 1456.2 Q2325.21 1453.31 2325.21 1447.53 Q2325.21 1441.74 2323.73 1438.86 Q2322.26 1435.97 2319.31 1435.97 M2319.31 1432.96 Q2324.03 1432.96 2326.51 1436.7 Q2329.01 1440.43 2329.01 1447.53 Q2329.01 1454.62 2326.51 1458.37 Q2324.03 1462.09 2319.31 1462.09 Q2314.59 1462.09 2312.08 1458.37 Q2309.6 1454.62 2309.6 1447.53 Q2309.6 1440.43 2312.08 1436.7 Q2314.59 1432.96 2319.31 1432.96 Z" fill="#000000" fill-rule="nonzero" fill-opacity="1"></path><path clip-path="url(#clip750)" d="M1301.82 1528.42 L1301.82 1538.54 L1313.88 1538.54 L1313.88 1543.09 L1301.82 1543.09 L1301.82 1562.44 Q1301.82 1566.8 1303 1568.04 Q1304.21 1569.28 1307.87 1569.28 L1313.88 1569.28 L1313.88 1574.19 L1307.87 1574.19 Q1301.09 1574.19 1298.51 1571.67 Q1295.93 1569.12 1295.93 1562.44 L1295.93 1543.09 L1291.64 1543.09 L1291.64 1538.54 L1295.93 1538.54 L1295.93 1528.42 L1301.82 1528.42 Z" fill="#000000" fill-rule="nonzero" fill-opacity="1"></path><polyline clip-path="url(#clip752)" style="stroke:#000000; stroke-linecap:round; stroke-linejoin:round; stroke-width:2; stroke-opacity:0.1; fill:none" points="252.764,1217.68 2352.76,1217.68 "></polyline>
<polyline clip-path="url(#clip752)" style="stroke:#000000; stroke-linecap:round; stroke-linejoin:round; stroke-width:2; stroke-opacity:0.1; fill:none" points="252.764,954.033 2352.76,954.033 "></polyline>
<polyline clip-path="url(#clip752)" style="stroke:#000000; stroke-linecap:round; stroke-linejoin:round; stroke-width:2; stroke-opacity:0.1; fill:none" points="252.764,690.383 2352.76,690.383 "></polyline>
<polyline clip-path="url(#clip752)" style="stroke:#000000; stroke-linecap:round; stroke-linejoin:round; stroke-width:2; stroke-opacity:0.1; fill:none" points="252.764,426.733 2352.76,426.733 "></polyline>
<polyline clip-path="url(#clip752)" style="stroke:#000000; stroke-linecap:round; stroke-linejoin:round; stroke-width:2; stroke-opacity:0.1; fill:none" points="252.764,163.083 2352.76,163.083 "></polyline>
<polyline clip-path="url(#clip750)" style="stroke:#000000; stroke-linecap:round; stroke-linejoin:round; stroke-width:4; stroke-opacity:1; fill:none" points="252.764,1410.9 252.764,123.472 "></polyline>
<polyline clip-path="url(#clip750)" style="stroke:#000000; stroke-linecap:round; stroke-linejoin:round; stroke-width:4; stroke-opacity:1; fill:none" points="252.764,1217.68 271.662,1217.68 "></polyline>
<polyline clip-path="url(#clip750)" style="stroke:#000000; stroke-linecap:round; stroke-linejoin:round; stroke-width:4; stroke-opacity:1; fill:none" points="252.764,954.033 271.662,954.033 "></polyline>
<polyline clip-path="url(#clip750)" style="stroke:#000000; stroke-linecap:round; stroke-linejoin:round; stroke-width:4; stroke-opacity:1; fill:none" points="252.764,690.383 271.662,690.383 "></polyline>
<polyline clip-path="url(#clip750)" style="stroke:#000000; stroke-linecap:round; stroke-linejoin:round; stroke-width:4; stroke-opacity:1; fill:none" points="252.764,426.733 271.662,426.733 "></polyline>
<polyline clip-path="url(#clip750)" style="stroke:#000000; stroke-linecap:round; stroke-linejoin:round; stroke-width:4; stroke-opacity:1; fill:none" points="252.764,163.083 271.662,163.083 "></polyline>
<path clip-path="url(#clip750)" d="M114.931 1237.48 L122.57 1237.48 L122.57 1211.11 L114.26 1212.78 L114.26 1208.52 L122.524 1206.85 L127.2 1206.85 L127.2 1237.48 L134.839 1237.48 L134.839 1241.41 L114.931 1241.41 L114.931 1237.48 Z" fill="#000000" fill-rule="nonzero" fill-opacity="1"></path><path clip-path="url(#clip750)" d="M154.283 1209.93 Q150.672 1209.93 148.843 1213.49 Q147.038 1217.04 147.038 1224.17 Q147.038 1231.27 148.843 1234.84 Q150.672 1238.38 154.283 1238.38 Q157.917 1238.38 159.723 1234.84 Q161.552 1231.27 161.552 1224.17 Q161.552 1217.04 159.723 1213.49 Q157.917 1209.93 154.283 1209.93 M154.283 1206.23 Q160.093 1206.23 163.149 1210.83 Q166.227 1215.42 166.227 1224.17 Q166.227 1232.89 163.149 1237.5 Q160.093 1242.08 154.283 1242.08 Q148.473 1242.08 145.394 1237.5 Q142.339 1232.89 142.339 1224.17 Q142.339 1215.42 145.394 1210.83 Q148.473 1206.23 154.283 1206.23 Z" fill="#000000" fill-rule="nonzero" fill-opacity="1"></path><path clip-path="url(#clip750)" d="M166.227 1200.33 L190.339 1200.33 L190.339 1203.52 L166.227 1203.52 L166.227 1200.33 Z" fill="#000000" fill-rule="nonzero" fill-opacity="1"></path><path clip-path="url(#clip750)" d="M208.978 1189.23 L199.386 1204.22 L208.978 1204.22 L208.978 1189.23 M207.981 1185.92 L212.758 1185.92 L212.758 1204.22 L216.764 1204.22 L216.764 1207.38 L212.758 1207.38 L212.758 1214 L208.978 1214 L208.978 1207.38 L196.301 1207.38 L196.301 1203.71 L207.981 1185.92 Z" fill="#000000" fill-rule="nonzero" fill-opacity="1"></path><path clip-path="url(#clip750)" d="M115.853 973.825 L123.492 973.825 L123.492 947.46 L115.182 949.126 L115.182 944.867 L123.446 943.2 L128.121 943.2 L128.121 973.825 L135.76 973.825 L135.76 977.76 L115.853 977.76 L115.853 973.825 Z" fill="#000000" fill-rule="nonzero" fill-opacity="1"></path><path clip-path="url(#clip750)" d="M155.205 946.279 Q151.594 946.279 149.765 949.844 Q147.959 953.386 147.959 960.515 Q147.959 967.622 149.765 971.186 Q151.594 974.728 155.205 974.728 Q158.839 974.728 160.644 971.186 Q162.473 967.622 162.473 960.515 Q162.473 953.386 160.644 949.844 Q158.839 946.279 155.205 946.279 M155.205 942.575 Q161.015 942.575 164.07 947.182 Q167.149 951.765 167.149 960.515 Q167.149 969.242 164.07 973.848 Q161.015 978.432 155.205 978.432 Q149.395 978.432 146.316 973.848 Q143.26 969.242 143.26 960.515 Q143.26 951.765 146.316 947.182 Q149.395 942.575 155.205 942.575 Z" fill="#000000" fill-rule="nonzero" fill-opacity="1"></path><path clip-path="url(#clip750)" d="M167.149 936.677 L191.261 936.677 L191.261 939.874 L167.149 939.874 L167.149 936.677 Z" fill="#000000" fill-rule="nonzero" fill-opacity="1"></path><path clip-path="url(#clip750)" d="M210.971 935.21 Q213.698 935.793 215.222 937.636 Q216.764 939.479 216.764 942.187 Q216.764 946.344 213.905 948.62 Q211.046 950.895 205.78 950.895 Q204.012 950.895 202.132 950.538 Q200.27 950.2 198.276 949.504 L198.276 945.836 Q199.856 946.758 201.737 947.228 Q203.617 947.698 205.667 947.698 Q209.241 947.698 211.103 946.288 Q212.984 944.877 212.984 942.187 Q212.984 939.705 211.234 938.313 Q209.504 936.902 206.401 936.902 L203.128 936.902 L203.128 933.78 L206.551 933.78 Q209.354 933.78 210.84 932.671 Q212.325 931.542 212.325 929.436 Q212.325 927.273 210.783 926.126 Q209.26 924.96 206.401 924.96 Q204.84 924.96 203.053 925.298 Q201.266 925.637 199.122 926.351 L199.122 922.966 Q201.285 922.364 203.166 922.063 Q205.066 921.762 206.739 921.762 Q211.065 921.762 213.585 923.737 Q216.106 925.693 216.106 929.041 Q216.106 931.373 214.77 932.99 Q213.435 934.589 210.971 935.21 Z" fill="#000000" fill-rule="nonzero" fill-opacity="1"></path><path clip-path="url(#clip750)" d="M116.624 710.175 L124.263 710.175 L124.263 683.81 L115.953 685.476 L115.953 681.217 L124.217 679.551 L128.893 679.551 L128.893 710.175 L136.531 710.175 L136.531 714.111 L116.624 714.111 L116.624 710.175 Z" fill="#000000" fill-rule="nonzero" fill-opacity="1"></path><path clip-path="url(#clip750)" d="M155.976 682.629 Q152.365 682.629 150.536 686.194 Q148.73 689.736 148.73 696.865 Q148.73 703.972 150.536 707.537 Q152.365 711.078 155.976 711.078 Q159.61 711.078 161.416 707.537 Q163.244 703.972 163.244 696.865 Q163.244 689.736 161.416 686.194 Q159.61 682.629 155.976 682.629 M155.976 678.926 Q161.786 678.926 164.841 683.532 Q167.92 688.115 167.92 696.865 Q167.92 705.592 164.841 710.199 Q161.786 714.782 155.976 714.782 Q150.166 714.782 147.087 710.199 Q144.031 705.592 144.031 696.865 Q144.031 688.115 147.087 683.532 Q150.166 678.926 155.976 678.926 Z" fill="#000000" fill-rule="nonzero" fill-opacity="1"></path><path clip-path="url(#clip750)" d="M167.92 673.027 L192.032 673.027 L192.032 676.224 L167.92 676.224 L167.92 673.027 Z" fill="#000000" fill-rule="nonzero" fill-opacity="1"></path><path clip-path="url(#clip750)" d="M203.504 683.503 L216.764 683.503 L216.764 686.7 L198.934 686.7 L198.934 683.503 Q201.097 681.265 204.821 677.503 Q208.564 673.723 209.523 672.632 Q211.347 670.582 212.062 669.171 Q212.796 667.742 212.796 666.369 Q212.796 664.131 211.216 662.72 Q209.655 661.31 207.134 661.31 Q205.348 661.31 203.354 661.93 Q201.379 662.551 199.122 663.811 L199.122 659.974 Q201.417 659.053 203.41 658.583 Q205.404 658.112 207.059 658.112 Q211.423 658.112 214.018 660.294 Q216.613 662.476 216.613 666.124 Q216.613 667.855 215.955 669.416 Q215.316 670.958 213.604 673.065 Q213.134 673.61 210.614 676.224 Q208.094 678.82 203.504 683.503 Z" fill="#000000" fill-rule="nonzero" fill-opacity="1"></path><path clip-path="url(#clip750)" d="M116.323 446.526 L123.962 446.526 L123.962 420.16 L115.652 421.827 L115.652 417.567 L123.916 415.901 L128.592 415.901 L128.592 446.526 L136.231 446.526 L136.231 450.461 L116.323 450.461 L116.323 446.526 Z" fill="#000000" fill-rule="nonzero" fill-opacity="1"></path><path clip-path="url(#clip750)" d="M155.675 418.979 Q152.064 418.979 150.235 422.544 Q148.43 426.086 148.43 433.215 Q148.43 440.322 150.235 443.887 Q152.064 447.428 155.675 447.428 Q159.309 447.428 161.115 443.887 Q162.943 440.322 162.943 433.215 Q162.943 426.086 161.115 422.544 Q159.309 418.979 155.675 418.979 M155.675 415.276 Q161.485 415.276 164.541 419.882 Q167.619 424.465 167.619 433.215 Q167.619 441.942 164.541 446.549 Q161.485 451.132 155.675 451.132 Q149.865 451.132 146.786 446.549 Q143.73 441.942 143.73 433.215 Q143.73 424.465 146.786 419.882 Q149.865 415.276 155.675 415.276 Z" fill="#000000" fill-rule="nonzero" fill-opacity="1"></path><path clip-path="url(#clip750)" d="M167.619 409.377 L191.731 409.377 L191.731 412.574 L167.619 412.574 L167.619 409.377 Z" fill="#000000" fill-rule="nonzero" fill-opacity="1"></path><path clip-path="url(#clip750)" d="M200.589 419.853 L206.796 419.853 L206.796 398.431 L200.044 399.785 L200.044 396.324 L206.758 394.97 L210.557 394.97 L210.557 419.853 L216.764 419.853 L216.764 423.05 L200.589 423.05 L200.589 419.853 Z" fill="#000000" fill-rule="nonzero" fill-opacity="1"></path><path clip-path="url(#clip750)" d="M146.058 182.876 L153.697 182.876 L153.697 156.51 L145.387 158.177 L145.387 153.917 L153.651 152.251 L158.327 152.251 L158.327 182.876 L165.966 182.876 L165.966 186.811 L146.058 186.811 L146.058 182.876 Z" fill="#000000" fill-rule="nonzero" fill-opacity="1"></path><path clip-path="url(#clip750)" d="M185.41 155.329 Q181.799 155.329 179.97 158.894 Q178.165 162.436 178.165 169.565 Q178.165 176.672 179.97 180.237 Q181.799 183.778 185.41 183.778 Q189.044 183.778 190.85 180.237 Q192.678 176.672 192.678 169.565 Q192.678 162.436 190.85 158.894 Q189.044 155.329 185.41 155.329 M185.41 151.626 Q191.22 151.626 194.276 156.232 Q197.354 160.816 197.354 169.565 Q197.354 178.292 194.276 182.899 Q191.22 187.482 185.41 187.482 Q179.6 187.482 176.521 182.899 Q173.466 178.292 173.466 169.565 Q173.466 160.816 176.521 156.232 Q179.6 151.626 185.41 151.626 Z" fill="#000000" fill-rule="nonzero" fill-opacity="1"></path><path clip-path="url(#clip750)" d="M207.059 133.822 Q204.125 133.822 202.639 136.718 Q201.172 139.596 201.172 145.389 Q201.172 151.163 202.639 154.059 Q204.125 156.937 207.059 156.937 Q210.012 156.937 211.479 154.059 Q212.965 151.163 212.965 145.389 Q212.965 139.596 211.479 136.718 Q210.012 133.822 207.059 133.822 M207.059 130.813 Q211.78 130.813 214.263 134.555 Q216.764 138.279 216.764 145.389 Q216.764 152.479 214.263 156.222 Q211.78 159.946 207.059 159.946 Q202.338 159.946 199.837 156.222 Q197.354 152.479 197.354 145.389 Q197.354 138.279 199.837 134.555 Q202.338 130.813 207.059 130.813 Z" fill="#000000" fill-rule="nonzero" fill-opacity="1"></path><path clip-path="url(#clip750)" d="M28.3562 840.485 L28.3562 834.279 L58.275 823.139 L28.3562 811.999 L28.3562 805.792 L64.0042 819.16 L64.0042 827.118 L28.3562 840.485 Z" fill="#000000" fill-rule="nonzero" fill-opacity="1"></path><path clip-path="url(#clip750)" d="M51.9411 781.316 L64.0042 781.316 L64.0042 785.008 L52.0685 785.008 Q49.2357 785.008 47.8353 786.25 Q46.403 787.491 46.403 789.974 Q46.403 792.965 48.1217 794.684 Q49.8086 796.403 52.7369 796.403 L64.0042 796.403 L64.0042 800.127 L36.2815 800.127 L36.2815 796.403 L47.135 796.403 Q45.3526 795.098 44.4614 793.316 Q43.5702 791.501 43.5702 789.146 Q43.5702 785.295 45.7028 783.321 Q47.8353 781.316 51.9411 781.316 Z" fill="#000000" fill-rule="nonzero" fill-opacity="1"></path><path clip-path="url(#clip750)" d="M16.4842 760.946 L16.4842 755.535 L70.0516 772.086 L70.0516 777.497 L16.4842 760.946 Z" fill="#000000" fill-rule="nonzero" fill-opacity="1"></path><path clip-path="url(#clip750)" d="M28.3562 753.594 L28.3562 747.387 L58.275 736.247 L28.3562 725.107 L28.3562 718.9 L64.0042 732.268 L64.0042 740.226 L28.3562 753.594 Z" fill="#000000" fill-rule="nonzero" fill-opacity="1"></path><path clip-path="url(#clip750)" d="M53.2143 693.883 L54.8057 693.883 L54.8057 710.848 Q58.1795 710.593 59.9619 708.556 Q61.7443 706.487 61.7443 702.827 Q61.7443 700.695 61.2669 698.689 Q60.8213 696.716 59.8983 694.743 L62.9856 694.743 Q63.7495 696.716 64.1315 698.817 Q64.5134 700.886 64.5134 703.05 Q64.5134 708.429 61.7443 711.548 Q58.9752 714.699 54.2328 714.699 Q49.3312 714.699 46.4348 711.707 Q43.5702 708.747 43.5702 703.686 Q43.5702 699.167 46.1484 696.525 Q48.7583 693.883 53.2143 693.883 M52.2276 697.575 Q49.554 697.607 47.9307 699.262 Q46.3393 700.917 46.3393 703.655 Q46.3393 706.742 47.8989 708.588 Q49.4267 710.434 52.2276 710.721 L52.2276 697.575 Z" fill="#000000" fill-rule="nonzero" fill-opacity="1"></path><path clip-path="url(#clip750)" d="M1055.65 14.0809 L1055.65 22.0612 Q1051 19.8332 1046.86 18.7395 Q1042.73 17.6457 1038.88 17.6457 Q1032.2 17.6457 1028.55 20.2383 Q1024.95 22.8309 1024.95 27.611 Q1024.95 31.6214 1027.34 33.6873 Q1029.77 35.7128 1036.49 36.9686 L1041.44 37.9813 Q1050.59 39.7232 1054.93 44.1387 Q1059.3 48.5136 1059.3 55.8863 Q1059.3 64.6767 1053.39 69.2137 Q1047.51 73.7508 1036.13 73.7508 Q1031.84 73.7508 1026.97 72.7785 Q1022.15 71.8063 1016.97 69.9024 L1016.97 61.4765 Q1021.95 64.2716 1026.73 65.6895 Q1031.51 67.1073 1036.13 67.1073 Q1043.14 67.1073 1046.95 64.3527 Q1050.75 61.598 1050.75 56.4939 Q1050.75 52.0379 1048 49.5264 Q1045.28 47.0148 1039.05 45.759 L1034.06 44.7868 Q1024.91 42.9639 1020.82 39.075 Q1016.73 35.1862 1016.73 28.2591 Q1016.73 20.2383 1022.36 15.6203 Q1028.03 11.0023 1037.95 11.0023 Q1042.21 11.0023 1046.62 11.7719 Q1051.04 12.5416 1055.65 14.0809 Z" fill="#000000" fill-rule="nonzero" fill-opacity="1"></path><path clip-path="url(#clip750)" d="M1109.45 45.1919 L1109.45 72.576 L1102 72.576 L1102 45.4349 Q1102 38.994 1099.49 35.7938 Q1096.97 32.5936 1091.95 32.5936 Q1085.92 32.5936 1082.43 36.4419 Q1078.95 40.2903 1078.95 46.9338 L1078.95 72.576 L1071.45 72.576 L1071.45 9.54393 L1078.95 9.54393 L1078.95 34.2544 Q1081.62 30.163 1085.23 28.1376 Q1088.87 26.1121 1093.61 26.1121 Q1101.43 26.1121 1105.44 30.9732 Q1109.45 35.7938 1109.45 45.1919 Z" fill="#000000" fill-rule="nonzero" fill-opacity="1"></path><path clip-path="url(#clip750)" d="M1163.13 48.0275 L1163.13 51.6733 L1128.85 51.6733 Q1129.34 59.3701 1133.47 63.421 Q1137.65 67.4314 1145.06 67.4314 Q1149.35 67.4314 1153.36 66.3781 Q1157.41 65.3249 1161.38 63.2184 L1161.38 70.267 Q1157.37 71.9684 1153.16 72.8596 Q1148.95 73.7508 1144.61 73.7508 Q1133.76 73.7508 1127.4 67.4314 Q1121.08 61.1119 1121.08 50.3365 Q1121.08 39.1965 1127.07 32.6746 Q1133.11 26.1121 1143.32 26.1121 Q1152.47 26.1121 1157.78 32.0264 Q1163.13 37.9003 1163.13 48.0275 M1155.67 45.84 Q1155.59 39.7232 1152.23 36.0774 Q1148.91 32.4315 1143.4 32.4315 Q1137.16 32.4315 1133.39 35.9558 Q1129.66 39.4801 1129.1 45.8805 L1155.67 45.84 Z" fill="#000000" fill-rule="nonzero" fill-opacity="1"></path><path clip-path="url(#clip750)" d="M1195.98 49.7694 Q1186.94 49.7694 1183.46 51.8354 Q1179.98 53.9013 1179.98 58.8839 Q1179.98 62.8538 1182.57 65.2034 Q1185.2 67.5124 1189.7 67.5124 Q1195.9 67.5124 1199.62 63.1374 Q1203.39 58.7219 1203.39 51.4303 L1203.39 49.7694 L1195.98 49.7694 M1210.84 46.6907 L1210.84 72.576 L1203.39 72.576 L1203.39 65.6895 Q1200.84 69.8214 1197.03 71.8063 Q1193.22 73.7508 1187.71 73.7508 Q1180.75 73.7508 1176.61 69.8619 Q1172.52 65.9325 1172.52 59.3701 Q1172.52 51.7138 1177.63 47.825 Q1182.77 43.9361 1192.94 43.9361 L1203.39 43.9361 L1203.39 43.2069 Q1203.39 38.0623 1199.99 35.2672 Q1196.63 32.4315 1190.51 32.4315 Q1186.62 32.4315 1182.93 33.3632 Q1179.25 34.295 1175.85 36.1584 L1175.85 29.2718 Q1179.94 27.692 1183.78 26.9223 Q1187.63 26.1121 1191.28 26.1121 Q1201.12 26.1121 1205.98 31.2163 Q1210.84 36.3204 1210.84 46.6907 Z" fill="#000000" fill-rule="nonzero" fill-opacity="1"></path><path clip-path="url(#clip750)" d="M1252.49 34.1734 Q1251.23 33.4443 1249.73 33.1202 Q1248.28 32.7556 1246.49 32.7556 Q1240.17 32.7556 1236.77 36.8875 Q1233.41 40.9789 1233.41 48.6757 L1233.41 72.576 L1225.91 72.576 L1225.91 27.2059 L1233.41 27.2059 L1233.41 34.2544 Q1235.76 30.1225 1239.53 28.1376 Q1243.29 26.1121 1248.68 26.1121 Q1249.45 26.1121 1250.38 26.2337 Q1251.31 26.3147 1252.45 26.5172 L1252.49 34.1734 Z" fill="#000000" fill-rule="nonzero" fill-opacity="1"></path><path clip-path="url(#clip750)" d="M1287 12.096 L1295.18 12.096 L1295.18 65.6895 L1324.63 65.6895 L1324.63 72.576 L1287 72.576 L1287 12.096 Z" fill="#000000" fill-rule="nonzero" fill-opacity="1"></path><path clip-path="url(#clip750)" d="M1349.02 32.4315 Q1343.03 32.4315 1339.54 37.1306 Q1336.06 41.7891 1336.06 49.9314 Q1336.06 58.0738 1339.5 62.7728 Q1342.99 67.4314 1349.02 67.4314 Q1354.98 67.4314 1358.46 62.7323 Q1361.94 58.0333 1361.94 49.9314 Q1361.94 41.8701 1358.46 37.1711 Q1354.98 32.4315 1349.02 32.4315 M1349.02 26.1121 Q1358.74 26.1121 1364.29 32.4315 Q1369.84 38.7509 1369.84 49.9314 Q1369.84 61.0714 1364.29 67.4314 Q1358.74 73.7508 1349.02 73.7508 Q1339.26 73.7508 1333.71 67.4314 Q1328.2 61.0714 1328.2 49.9314 Q1328.2 38.7509 1333.71 32.4315 Q1339.26 26.1121 1349.02 26.1121 Z" fill="#000000" fill-rule="nonzero" fill-opacity="1"></path><path clip-path="url(#clip750)" d="M1414.85 28.9478 L1414.85 35.9153 Q1411.69 34.1734 1408.49 33.3227 Q1405.33 32.4315 1402.09 32.4315 Q1394.84 32.4315 1390.83 37.0496 Q1386.82 41.6271 1386.82 49.9314 Q1386.82 58.2358 1390.83 62.8538 Q1394.84 67.4314 1402.09 67.4314 Q1405.33 67.4314 1408.49 66.5807 Q1411.69 65.6895 1414.85 63.9476 L1414.85 70.8341 Q1411.73 72.2924 1408.37 73.0216 Q1405.05 73.7508 1401.28 73.7508 Q1391.03 73.7508 1384.99 67.3098 Q1378.96 60.8689 1378.96 49.9314 Q1378.96 38.832 1385.03 32.472 Q1391.15 26.1121 1401.76 26.1121 Q1405.21 26.1121 1408.49 26.8413 Q1411.77 27.5299 1414.85 28.9478 Z" fill="#000000" fill-rule="nonzero" fill-opacity="1"></path><path clip-path="url(#clip750)" d="M1427.53 9.54393 L1435.02 9.54393 L1435.02 46.7717 L1457.26 27.2059 L1466.78 27.2059 L1442.72 48.4326 L1467.79 72.576 L1458.07 72.576 L1435.02 50.4176 L1435.02 72.576 L1427.53 72.576 L1427.53 9.54393 Z" fill="#000000" fill-rule="nonzero" fill-opacity="1"></path><path clip-path="url(#clip750)" d="M1475.86 27.2059 L1483.31 27.2059 L1483.31 72.576 L1475.86 72.576 L1475.86 27.2059 M1475.86 9.54393 L1483.31 9.54393 L1483.31 18.9825 L1475.86 18.9825 L1475.86 9.54393 Z" fill="#000000" fill-rule="nonzero" fill-opacity="1"></path><path clip-path="url(#clip750)" d="M1536.62 45.1919 L1536.62 72.576 L1529.16 72.576 L1529.16 45.4349 Q1529.16 38.994 1526.65 35.7938 Q1524.14 32.5936 1519.12 32.5936 Q1513.08 32.5936 1509.6 36.4419 Q1506.12 40.2903 1506.12 46.9338 L1506.12 72.576 L1498.62 72.576 L1498.62 27.2059 L1506.12 27.2059 L1506.12 34.2544 Q1508.79 30.163 1512.39 28.1376 Q1516.04 26.1121 1520.78 26.1121 Q1528.6 26.1121 1532.61 30.9732 Q1536.62 35.7938 1536.62 45.1919 Z" fill="#000000" fill-rule="nonzero" fill-opacity="1"></path><path clip-path="url(#clip750)" d="M1581.34 49.3643 Q1581.34 41.2625 1577.98 36.8065 Q1574.66 32.3505 1568.62 32.3505 Q1562.63 32.3505 1559.26 36.8065 Q1555.94 41.2625 1555.94 49.3643 Q1555.94 57.4256 1559.26 61.8816 Q1562.63 66.3376 1568.62 66.3376 Q1574.66 66.3376 1577.98 61.8816 Q1581.34 57.4256 1581.34 49.3643 M1588.79 66.9452 Q1588.79 78.5308 1583.65 84.1616 Q1578.5 89.8329 1567.89 89.8329 Q1563.96 89.8329 1560.48 89.2252 Q1556.99 88.6581 1553.71 87.4428 L1553.71 80.1917 Q1556.99 81.9741 1560.19 82.8248 Q1563.4 83.6755 1566.72 83.6755 Q1574.05 83.6755 1577.69 79.8271 Q1581.34 76.0193 1581.34 68.282 L1581.34 64.5957 Q1579.03 68.6061 1575.43 70.5911 Q1571.82 72.576 1566.8 72.576 Q1558.45 72.576 1553.35 66.2161 Q1548.24 59.8562 1548.24 49.3643 Q1548.24 38.832 1553.35 32.472 Q1558.45 26.1121 1566.8 26.1121 Q1571.82 26.1121 1575.43 28.0971 Q1579.03 30.082 1581.34 34.0924 L1581.34 27.2059 L1588.79 27.2059 L1588.79 66.9452 Z" fill="#000000" fill-rule="nonzero" fill-opacity="1"></path><polyline clip-path="url(#clip752)" style="stroke:#009af9; stroke-linecap:round; stroke-linejoin:round; stroke-width:4; stroke-opacity:1; fill:none" points="2293.32,159.909 2095.21,177.194 1897.1,216.423 1698.98,303.088 1500.87,433.375 1302.76,583.728 1104.65,740.266 906.535,898.444 708.423,1057.04 510.31,1215.74 312.198,1374.46 "></polyline>
<circle clip-path="url(#clip752)" cx="2293.32" cy="159.909" r="14.4" fill="#009af9" fill-rule="evenodd" fill-opacity="1" stroke="#000000" stroke-opacity="1" stroke-width="3.2"></circle>
<circle clip-path="url(#clip752)" cx="2095.21" cy="177.194" r="14.4" fill="#009af9" fill-rule="evenodd" fill-opacity="1" stroke="#000000" stroke-opacity="1" stroke-width="3.2"></circle>
<circle clip-path="url(#clip752)" cx="1897.1" cy="216.423" r="14.4" fill="#009af9" fill-rule="evenodd" fill-opacity="1" stroke="#000000" stroke-opacity="1" stroke-width="3.2"></circle>
<circle clip-path="url(#clip752)" cx="1698.98" cy="303.088" r="14.4" fill="#009af9" fill-rule="evenodd" fill-opacity="1" stroke="#000000" stroke-opacity="1" stroke-width="3.2"></circle>
<circle clip-path="url(#clip752)" cx="1500.87" cy="433.375" r="14.4" fill="#009af9" fill-rule="evenodd" fill-opacity="1" stroke="#000000" stroke-opacity="1" stroke-width="3.2"></circle>
<circle clip-path="url(#clip752)" cx="1302.76" cy="583.728" r="14.4" fill="#009af9" fill-rule="evenodd" fill-opacity="1" stroke="#000000" stroke-opacity="1" stroke-width="3.2"></circle>
<circle clip-path="url(#clip752)" cx="1104.65" cy="740.266" r="14.4" fill="#009af9" fill-rule="evenodd" fill-opacity="1" stroke="#000000" stroke-opacity="1" stroke-width="3.2"></circle>
<circle clip-path="url(#clip752)" cx="906.535" cy="898.444" r="14.4" fill="#009af9" fill-rule="evenodd" fill-opacity="1" stroke="#000000" stroke-opacity="1" stroke-width="3.2"></circle>
<circle clip-path="url(#clip752)" cx="708.423" cy="1057.04" r="14.4" fill="#009af9" fill-rule="evenodd" fill-opacity="1" stroke="#000000" stroke-opacity="1" stroke-width="3.2"></circle>
<circle clip-path="url(#clip752)" cx="510.31" cy="1215.74" r="14.4" fill="#009af9" fill-rule="evenodd" fill-opacity="1" stroke="#000000" stroke-opacity="1" stroke-width="3.2"></circle>
<circle clip-path="url(#clip752)" cx="312.198" cy="1374.46" r="14.4" fill="#009af9" fill-rule="evenodd" fill-opacity="1" stroke="#000000" stroke-opacity="1" stroke-width="3.2"></circle>
<polyline clip-path="url(#clip752)" style="stroke:#000000; stroke-linecap:round; stroke-linejoin:round; stroke-width:4; stroke-opacity:1; fill:none" stroke-dasharray="16, 10" points="2293.32,163.083 2095.21,163.083 1897.1,163.083 1698.98,163.083 1500.87,163.083 1302.76,163.083 1104.65,163.083 906.535,163.083 708.423,163.083 510.31,163.083 312.198,163.083 "></polyline>
<path clip-path="url(#clip750)" d="M1881.16 1367.98 L2282.76 1367.98 L2282.76 1264.3 L1881.16 1264.3  Z" fill="#ffffff" fill-rule="evenodd" fill-opacity="1"></path>
<polyline clip-path="url(#clip750)" style="stroke:#000000; stroke-linecap:round; stroke-linejoin:round; stroke-width:4; stroke-opacity:1; fill:none" points="1881.16,1367.98 2282.76,1367.98 2282.76,1264.3 1881.16,1264.3 1881.16,1367.98 "></polyline>
<polyline clip-path="url(#clip750)" style="stroke:#009af9; stroke-linecap:round; stroke-linejoin:round; stroke-width:4; stroke-opacity:1; fill:none" points="1904.49,1316.14 2044.49,1316.14 "></polyline>
<circle clip-path="url(#clip750)" cx="1974.49" cy="1316.14" r="19.4444" fill="#009af9" fill-rule="evenodd" fill-opacity="1" stroke="#000000" stroke-opacity="1" stroke-width="4.55111"></circle>
<path clip-path="url(#clip750)" d="M2093.38 1328.49 L2093.38 1319.21 L2085.74 1319.21 L2085.74 1315.37 L2098.01 1315.37 L2098.01 1330.2 Q2095.3 1332.13 2092.04 1333.12 Q2088.78 1334.09 2085.07 1334.09 Q2076.97 1334.09 2072.39 1329.37 Q2067.83 1324.63 2067.83 1316.18 Q2067.83 1307.71 2072.39 1302.98 Q2076.97 1298.24 2085.07 1298.24 Q2088.45 1298.24 2091.48 1299.07 Q2094.54 1299.9 2097.11 1301.52 L2097.11 1306.5 Q2094.52 1304.3 2091.6 1303.19 Q2088.68 1302.08 2085.47 1302.08 Q2079.12 1302.08 2075.93 1305.62 Q2072.76 1309.16 2072.76 1316.18 Q2072.76 1323.17 2075.93 1326.71 Q2079.12 1330.25 2085.47 1330.25 Q2087.94 1330.25 2089.89 1329.83 Q2091.83 1329.39 2093.38 1328.49 Z" fill="#000000" fill-rule="nonzero" fill-opacity="1"></path><path clip-path="url(#clip750)" d="M2118.15 1320.39 Q2112.99 1320.39 2111 1321.57 Q2109.01 1322.75 2109.01 1325.6 Q2109.01 1327.87 2110.49 1329.21 Q2111.99 1330.53 2114.56 1330.53 Q2118.1 1330.53 2120.23 1328.03 Q2122.39 1325.51 2122.39 1321.34 L2122.39 1320.39 L2118.15 1320.39 M2126.65 1318.63 L2126.65 1333.42 L2122.39 1333.42 L2122.39 1329.49 Q2120.93 1331.85 2118.75 1332.98 Q2116.58 1334.09 2113.43 1334.09 Q2109.45 1334.09 2107.09 1331.87 Q2104.75 1329.63 2104.75 1325.88 Q2104.75 1321.5 2107.66 1319.28 Q2110.6 1317.06 2116.41 1317.06 L2122.39 1317.06 L2122.39 1316.64 Q2122.39 1313.7 2120.44 1312.1 Q2118.52 1310.48 2115.03 1310.48 Q2112.8 1310.48 2110.7 1311.02 Q2108.59 1311.55 2106.65 1312.61 L2106.65 1308.68 Q2108.98 1307.77 2111.18 1307.33 Q2113.38 1306.87 2115.47 1306.87 Q2121.09 1306.87 2123.87 1309.79 Q2126.65 1312.71 2126.65 1318.63 Z" fill="#000000" fill-rule="nonzero" fill-opacity="1"></path><path clip-path="url(#clip750)" d="M2135.42 1297.4 L2139.68 1297.4 L2139.68 1333.42 L2135.42 1333.42 L2135.42 1297.4 Z" fill="#000000" fill-rule="nonzero" fill-opacity="1"></path><path clip-path="url(#clip750)" d="M2170.77 1319.39 L2170.77 1321.48 L2151.18 1321.48 Q2151.46 1325.88 2153.82 1328.19 Q2156.21 1330.48 2160.44 1330.48 Q2162.9 1330.48 2165.19 1329.88 Q2167.5 1329.28 2169.77 1328.08 L2169.77 1332.1 Q2167.48 1333.08 2165.07 1333.58 Q2162.66 1334.09 2160.19 1334.09 Q2153.98 1334.09 2150.35 1330.48 Q2146.74 1326.87 2146.74 1320.71 Q2146.74 1314.35 2150.16 1310.62 Q2153.61 1306.87 2159.45 1306.87 Q2164.68 1306.87 2167.71 1310.25 Q2170.77 1313.61 2170.77 1319.39 M2166.51 1318.14 Q2166.46 1314.65 2164.54 1312.57 Q2162.64 1310.48 2159.49 1310.48 Q2155.93 1310.48 2153.78 1312.5 Q2151.65 1314.51 2151.32 1318.17 L2166.51 1318.14 Z" fill="#000000" fill-rule="nonzero" fill-opacity="1"></path><path clip-path="url(#clip750)" d="M2192.78 1311.48 Q2192.06 1311.06 2191.21 1310.88 Q2190.37 1310.67 2189.35 1310.67 Q2185.74 1310.67 2183.8 1313.03 Q2181.88 1315.37 2181.88 1319.77 L2181.88 1333.42 L2177.59 1333.42 L2177.59 1307.5 L2181.88 1307.5 L2181.88 1311.52 Q2183.22 1309.16 2185.37 1308.03 Q2187.53 1306.87 2190.6 1306.87 Q2191.04 1306.87 2191.58 1306.94 Q2192.11 1306.99 2192.76 1307.1 L2192.78 1311.48 Z" fill="#000000" fill-rule="nonzero" fill-opacity="1"></path><path clip-path="url(#clip750)" d="M2197.09 1297.4 L2201.37 1297.4 L2201.37 1318.68 L2214.08 1307.5 L2219.52 1307.5 L2205.77 1319.63 L2220.09 1333.42 L2214.54 1333.42 L2201.37 1320.76 L2201.37 1333.42 L2197.09 1333.42 L2197.09 1297.4 Z" fill="#000000" fill-rule="nonzero" fill-opacity="1"></path><path clip-path="url(#clip750)" d="M2224.7 1307.5 L2228.96 1307.5 L2228.96 1333.42 L2224.7 1333.42 L2224.7 1307.5 M2224.7 1297.4 L2228.96 1297.4 L2228.96 1302.8 L2224.7 1302.8 L2224.7 1297.4 Z" fill="#000000" fill-rule="nonzero" fill-opacity="1"></path><path clip-path="url(#clip750)" d="M2259.42 1317.77 L2259.42 1333.42 L2255.16 1333.42 L2255.16 1317.91 Q2255.16 1314.23 2253.73 1312.4 Q2252.29 1310.58 2249.42 1310.58 Q2245.97 1310.58 2243.98 1312.77 Q2241.99 1314.97 2241.99 1318.77 L2241.99 1333.42 L2237.71 1333.42 L2237.71 1307.5 L2241.99 1307.5 L2241.99 1311.52 Q2243.52 1309.19 2245.58 1308.03 Q2247.66 1306.87 2250.37 1306.87 Q2254.84 1306.87 2257.13 1309.65 Q2259.42 1312.4 2259.42 1317.77 Z" fill="#000000" fill-rule="nonzero" fill-opacity="1"></path></svg>