<svg xmlns="http://www.w3.org/2000/svg" xmlns:xlink="http://www.w3.org/1999/xlink" width="600" height="400" viewBox="0 0 2400 1600">
<defs>
  <clipPath id="clip830">
    <rect x="0" y="0" width="2400" height="1600"></rect>
  </clipPath>
</defs>
<path clip-path="url(#clip830)" d="M0 1600 L2400 1600 L2400 0 L0 0  Z" fill="#ffffff" fill-rule="evenodd" fill-opacity="1"></path>
<defs>
  <clipPath id="clip831">
    <rect x="480" y="0" width="1681" height="1600"></rect>
  </clipPath>
</defs>
<path clip-path="url(#clip830)" d="M252.764 1410.9 L2352.76 1410.9 L2352.76 123.472 L252.764 123.472  Z" fill="#ffffff" fill-rule="evenodd" fill-opacity="1"></path>
<defs>
  <clipPath id="clip832">
    <rect x="252" y="123" width="2101" height="1288"></rect>
  </clipPath>
</defs>
<polyline clip-path="url(#clip832)" style="stroke:#000000; stroke-linecap:round; stroke-linejoin:round; stroke-width:2; stroke-opacity:0.1; fill:none" points="977.092,1410.9 977.092,123.472 "></polyline>
<polyline clip-path="url(#clip832)" style="stroke:#000000; stroke-linecap:round; stroke-linejoin:round; stroke-width:2; stroke-opacity:0.1; fill:none" points="2293.32,1410.9 2293.32,123.472 "></polyline>
<polyline clip-path="url(#clip830)" style="stroke:#000000; stroke-linecap:round; stroke-linejoin:round; stroke-width:4; stroke-opacity:1; fill:none" points="252.764,1410.9 2352.76,1410.9 "></polyline>
<polyline clip-path="url(#clip830)" style="stroke:#000000; stroke-linecap:round; stroke-linejoin:round; stroke-width:4; stroke-opacity:1; fill:none" points="977.092,1410.9 977.092,1392 "></polyline>
<polyline clip-path="url(#clip830)" style="stroke:#000000; stroke-linecap:round; stroke-linejoin:round; stroke-width:4; stroke-opacity:1; fill:none" points="2293.32,1410.9 2293.32,1392 "></polyline>
<path clip-path="url(#clip830)" d="M927.357 1485.02 L934.996 1485.02 L934.996 1458.66 L926.686 1460.32 L926.686 1456.06 L934.95 1454.4 L939.626 1454.4 L939.626 1485.02 L947.265 1485.02 L947.265 1488.96 L927.357 1488.96 L927.357 1485.02 Z" fill="#000000" fill-rule="nonzero" fill-opacity="1"></path><path clip-path="url(#clip830)" d="M966.709 1457.48 Q963.098 1457.48 961.269 1461.04 Q959.464 1464.58 959.464 1471.71 Q959.464 1478.82 961.269 1482.38 Q963.098 1485.92 966.709 1485.92 Q970.343 1485.92 972.149 1482.38 Q973.977 1478.82 973.977 1471.71 Q973.977 1464.58 972.149 1461.04 Q970.343 1457.48 966.709 1457.48 M966.709 1453.77 Q972.519 1453.77 975.575 1458.38 Q978.653 1462.96 978.653 1471.71 Q978.653 1480.44 975.575 1485.04 Q972.519 1489.63 966.709 1489.63 Q960.899 1489.63 957.82 1485.04 Q954.765 1480.44 954.765 1471.71 Q954.765 1462.96 957.82 1458.38 Q960.899 1453.77 966.709 1453.77 Z" fill="#000000" fill-rule="nonzero" fill-opacity="1"></path><path clip-path="url(#clip830)" d="M978.653 1447.87 L1002.76 1447.87 L1002.76 1451.07 L978.653 1451.07 L978.653 1447.87 Z" fill="#000000" fill-rule="nonzero" fill-opacity="1"></path><path clip-path="url(#clip830)" d="M1014.24 1458.35 L1027.5 1458.35 L1027.5 1461.55 L1009.67 1461.55 L1009.67 1458.35 Q1011.83 1456.11 1015.55 1452.35 Q1019.3 1448.57 1020.26 1447.48 Q1022.08 1445.43 1022.8 1444.02 Q1023.53 1442.59 1023.53 1441.22 Q1023.53 1438.98 1021.95 1437.57 Q1020.39 1436.16 1017.87 1436.16 Q1016.08 1436.16 1014.09 1436.78 Q1012.11 1437.4 1009.86 1438.66 L1009.86 1434.82 Q1012.15 1433.9 1014.14 1433.43 Q1016.14 1432.96 1017.79 1432.96 Q1022.16 1432.96 1024.75 1435.14 Q1027.35 1437.32 1027.35 1440.97 Q1027.35 1442.7 1026.69 1444.26 Q1026.05 1445.8 1024.34 1447.91 Q1023.87 1448.46 1021.35 1451.07 Q1018.83 1453.67 1014.24 1458.35 Z" fill="#000000" fill-rule="nonzero" fill-opacity="1"></path><path clip-path="url(#clip830)" d="M2258.3 1485.02 L2265.94 1485.02 L2265.94 1458.66 L2257.63 1460.32 L2257.63 1456.06 L2265.9 1454.4 L2270.57 1454.4 L2270.57 1485.02 L2278.21 1485.02 L2278.21 1488.96 L2258.3 1488.96 L2258.3 1485.02 Z" fill="#000000" fill-rule="nonzero" fill-opacity="1"></path><path clip-path="url(#clip830)" d="M2297.66 1457.48 Q2294.05 1457.48 2292.22 1461.04 Q2290.41 1464.58 2290.41 1471.71 Q2290.41 1478.82 2292.22 1482.38 Q2294.05 1485.92 2297.66 1485.92 Q2301.29 1485.92 2303.1 1482.38 Q2304.93 1478.82 2304.93 1471.71 Q2304.93 1464.58 2303.1 1461.04 Q2301.29 1457.48 2297.66 1457.48 M2297.66 1453.77 Q2303.47 1453.77 2306.52 1458.38 Q2309.6 1462.96 2309.6 1471.71 Q2309.6 1480.44 2306.52 1485.04 Q2303.47 1489.63 2297.66 1489.63 Q2291.85 1489.63 2288.77 1485.04 Q2285.71 1480.44 2285.71 1471.71 Q2285.71 1462.96 2288.77 1458.38 Q2291.85 1453.77 2297.66 1453.77 Z" fill="#000000" fill-rule="nonzero" fill-opacity="1"></path><path clip-path="url(#clip830)" d="M2319.31 1435.97 Q2316.37 1435.97 2314.89 1438.86 Q2313.42 1441.74 2313.42 1447.53 Q2313.42 1453.31 2314.89 1456.2 Q2316.37 1459.08 2319.31 1459.08 Q2322.26 1459.08 2323.73 1456.2 Q2325.21 1453.31 2325.21 1447.53 Q2325.21 1441.74 2323.73 1438.86 Q2322.26 1435.97 2319.31 1435.97 M2319.31 1432.96 Q2324.03 1432.96 2326.51 1436.7 Q2329.01 1440.43 2329.01 1447.53 Q2329.01 1454.62 2326.51 1458.37 Q2324.03 1462.09 2319.31 1462.09 Q2314.59 1462.09 2312.08 1458.37 Q2309.6 1454.62 2309.6 1447.53 Q2309.6 1440.43 2312.08 1436.7 Q2314.59 1432.96 2319.31 1432.96 Z" fill="#000000" fill-rule="nonzero" fill-opacity="1"></path><path clip-path="url(#clip830)" d="M1301.82 1528.42 L1301.82 1538.54 L1313.88 1538.54 L1313.88 1543.09 L1301.82 1543.09 L1301.82 1562.44 Q1301.82 1566.8 1303 1568.04 Q1304.21 1569.28 1307.87 1569.28 L1313.88 1569.28 L1313.88 1574.19 L1307.87 1574.19 Q1301.09 1574.19 1298.51 1571.67 Q1295.93 1569.12 1295.93 1562.44 L1295.93 1543.09 L1291.64 1543.09 L1291.64 1538.54 L1295.93 1538.54 L1295.93 1528.42 L1301.82 1528.42 Z" fill="#000000" fill-rule="nonzero" fill-opacity="1"></path><polyline clip-path="url(#clip832)" style="stroke:#000000; stroke-linecap:round; stroke-linejoin:round; stroke-width:2; stroke-opacity:0.1; fill:none" points="252.764,1218.19 2352.76,1218.19 "></polyline>
<polyline clip-path="url(#clip832)" style="stroke:#000000; stroke-linecap:round; stroke-linejoin:round; stroke-width:2; stroke-opacity:0.1; fill:none" points="252.764,955.395 2352.76,955.395 "></polyline>
<polyline clip-path="url(#clip832)" style="stroke:#000000; stroke-linecap:round; stroke-linejoin:round; stroke-width:2; stroke-opacity:0.1; fill:none" points="252.764,692.599 2352.76,692.599 "></polyline>
<polyline clip-path="url(#clip832)" style="stroke:#000000; stroke-linecap:round; stroke-linejoin:round; stroke-width:2; stroke-opacity:0.1; fill:none" points="252.764,429.803 2352.76,429.803 "></polyline>
<polyline clip-path="url(#clip832)" style="stroke:#000000; stroke-linecap:round; stroke-linejoin:round; stroke-width:2; stroke-opacity:0.1; fill:none" points="252.764,167.007 2352.76,167.007 "></polyline>
<polyline clip-path="url(#clip830)" style="stroke:#000000; stroke-linecap:round; stroke-linejoin:round; stroke-width:4; stroke-opacity:1; fill:none" points="252.764,1410.9 252.764,123.472 "></polyline>
<polyline clip-path="url(#clip830)" style="stroke:#000000; stroke-linecap:round; stroke-linejoin:round; stroke-width:4; stroke-opacity:1; fill:none" points="252.764,1218.19 271.662,1218.19 "></polyline>
<polyline clip-path="url(#clip830)" style="stroke:#000000; stroke-linecap:round; stroke-linejoin:round; stroke-width:4; stroke-opacity:1; fill:none" points="252.764,955.395 271.662,955.395 "></polyline>
<polyline clip-path="url(#clip830)" style="stroke:#000000; stroke-linecap:round; stroke-linejoin:round; stroke-width:4; stroke-opacity:1; fill:none" points="252.764,692.599 271.662,692.599 "></polyline>
<polyline clip-path="url(#clip830)" style="stroke:#000000; stroke-linecap:round; stroke-linejoin:round; stroke-width:4; stroke-opacity:1; fill:none" points="252.764,429.803 271.662,429.803 "></polyline>
<polyline clip-path="url(#clip830)" style="stroke:#000000; stroke-linecap:round; stroke-linejoin:round; stroke-width:4; stroke-opacity:1; fill:none" points="252.764,167.007 271.662,167.007 "></polyline>
<path clip-path="url(#clip830)" d="M114.931 1237.98 L122.57 1237.98 L122.57 1211.62 L114.26 1213.28 L114.26 1209.02 L122.524 1207.36 L127.2 1207.36 L127.2 1237.98 L134.839 1237.98 L134.839 1241.92 L114.931 1241.92 L114.931 1237.98 Z" fill="#000000" fill-rule="nonzero" fill-opacity="1"></path><path clip-path="url(#clip830)" d="M154.283 1210.44 Q150.672 1210.44 148.843 1214 Q147.038 1217.54 147.038 1224.67 Q147.038 1231.78 148.843 1235.34 Q150.672 1238.89 154.283 1238.89 Q157.917 1238.89 159.723 1235.34 Q161.552 1231.78 161.552 1224.67 Q161.552 1217.54 159.723 1214 Q157.917 1210.44 154.283 1210.44 M154.283 1206.73 Q160.093 1206.73 163.149 1211.34 Q166.227 1215.92 166.227 1224.67 Q166.227 1233.4 163.149 1238.01 Q160.093 1242.59 154.283 1242.59 Q148.473 1242.59 145.394 1238.01 Q142.339 1233.4 142.339 1224.67 Q142.339 1215.92 145.394 1211.34 Q148.473 1206.73 154.283 1206.73 Z" fill="#000000" fill-rule="nonzero" fill-opacity="1"></path><path clip-path="url(#clip830)" d="M166.227 1200.83 L190.339 1200.83 L190.339 1204.03 L166.227 1204.03 L166.227 1200.83 Z" fill="#000000" fill-rule="nonzero" fill-opacity="1"></path><path clip-path="url(#clip830)" d="M208.978 1189.74 L199.386 1204.73 L208.978 1204.73 L208.978 1189.74 M207.981 1186.43 L212.758 1186.43 L212.758 1204.73 L216.764 1204.73 L216.764 1207.89 L212.758 1207.89 L212.758 1214.51 L208.978 1214.51 L208.978 1207.89 L196.301 1207.89 L196.301 1204.22 L207.981 1186.43 Z" fill="#000000" fill-rule="nonzero" fill-opacity="1"></path><path clip-path="url(#clip830)" d="M115.853 975.187 L123.492 975.187 L123.492 948.821 L115.182 950.488 L115.182 946.229 L123.446 944.562 L128.121 944.562 L128.121 975.187 L135.76 975.187 L135.76 979.122 L115.853 979.122 L115.853 975.187 Z" fill="#000000" fill-rule="nonzero" fill-opacity="1"></path><path clip-path="url(#clip830)" d="M155.205 947.641 Q151.594 947.641 149.765 951.206 Q147.959 954.747 147.959 961.877 Q147.959 968.983 149.765 972.548 Q151.594 976.09 155.205 976.09 Q158.839 976.09 160.644 972.548 Q162.473 968.983 162.473 961.877 Q162.473 954.747 160.644 951.206 Q158.839 947.641 155.205 947.641 M155.205 943.937 Q161.015 943.937 164.07 948.544 Q167.149 953.127 167.149 961.877 Q167.149 970.604 164.07 975.21 Q161.015 979.793 155.205 979.793 Q149.395 979.793 146.316 975.21 Q143.26 970.604 143.26 961.877 Q143.26 953.127 146.316 948.544 Q149.395 943.937 155.205 943.937 Z" fill="#000000" fill-rule="nonzero" fill-opacity="1"></path><path clip-path="url(#clip830)" d="M167.149 938.039 L191.261 938.039 L191.261 941.236 L167.149 941.236 L167.149 938.039 Z" fill="#000000" fill-rule="nonzero" fill-opacity="1"></path><path clip-path="url(#clip830)" d="M210.971 936.572 Q213.698 937.155 215.222 938.998 Q216.764 940.841 216.764 943.549 Q216.764 947.706 213.905 949.981 Q211.046 952.257 205.78 952.257 Q204.012 952.257 202.132 951.9 Q200.27 951.561 198.276 950.865 L198.276 947.198 Q199.856 948.119 201.737 948.59 Q203.617 949.06 205.667 949.06 Q209.241 949.06 211.103 947.649 Q212.984 946.239 212.984 943.549 Q212.984 941.067 211.234 939.675 Q209.504 938.264 206.401 938.264 L203.128 938.264 L203.128 935.142 L206.551 935.142 Q209.354 935.142 210.84 934.032 Q212.325 932.904 212.325 930.798 Q212.325 928.635 210.783 927.487 Q209.26 926.321 206.401 926.321 Q204.84 926.321 203.053 926.66 Q201.266 926.998 199.122 927.713 L199.122 924.328 Q201.285 923.726 203.166 923.425 Q205.066 923.124 206.739 923.124 Q211.065 923.124 213.585 925.099 Q216.106 927.055 216.106 930.403 Q216.106 932.735 214.77 934.352 Q213.435 935.951 210.971 936.572 Z" fill="#000000" fill-rule="nonzero" fill-opacity="1"></path><path clip-path="url(#clip830)" d="M116.624 712.391 L124.263 712.391 L124.263 686.025 L115.953 687.692 L115.953 683.433 L124.217 681.766 L128.893 681.766 L128.893 712.391 L136.531 712.391 L136.531 716.326 L116.624 716.326 L116.624 712.391 Z" fill="#000000" fill-rule="nonzero" fill-opacity="1"></path><path clip-path="url(#clip830)" d="M155.976 684.845 Q152.365 684.845 150.536 688.41 Q148.73 691.951 148.73 699.081 Q148.73 706.187 150.536 709.752 Q152.365 713.294 155.976 713.294 Q159.61 713.294 161.416 709.752 Q163.244 706.187 163.244 699.081 Q163.244 691.951 161.416 688.41 Q159.61 684.845 155.976 684.845 M155.976 681.141 Q161.786 681.141 164.841 685.748 Q167.92 690.331 167.92 699.081 Q167.92 707.808 164.841 712.414 Q161.786 716.998 155.976 716.998 Q150.166 716.998 147.087 712.414 Q144.031 707.808 144.031 699.081 Q144.031 690.331 147.087 685.748 Q150.166 681.141 155.976 681.141 Z" fill="#000000" fill-rule="nonzero" fill-opacity="1"></path><path clip-path="url(#clip830)" d="M167.92 675.243 L192.032 675.243 L192.032 678.44 L167.92 678.44 L167.92 675.243 Z" fill="#000000" fill-rule="nonzero" fill-opacity="1"></path><path clip-path="url(#clip830)" d="M203.504 685.718 L216.764 685.718 L216.764 688.916 L198.934 688.916 L198.934 685.718 Q201.097 683.48 204.821 679.719 Q208.564 675.938 209.523 674.848 Q211.347 672.798 212.062 671.387 Q212.796 669.958 212.796 668.585 Q212.796 666.346 211.216 664.936 Q209.655 663.525 207.134 663.525 Q205.348 663.525 203.354 664.146 Q201.379 664.767 199.122 666.027 L199.122 662.19 Q201.417 661.268 203.41 660.798 Q205.404 660.328 207.059 660.328 Q211.423 660.328 214.018 662.51 Q216.613 664.691 216.613 668.34 Q216.613 670.07 215.955 671.631 Q215.316 673.174 213.604 675.28 Q213.134 675.826 210.614 678.44 Q208.094 681.035 203.504 685.718 Z" fill="#000000" fill-rule="nonzero" fill-opacity="1"></path><path clip-path="url(#clip830)" d="M116.323 449.595 L123.962 449.595 L123.962 423.229 L115.652 424.896 L115.652 420.637 L123.916 418.97 L128.592 418.97 L128.592 449.595 L136.231 449.595 L136.231 453.53 L116.323 453.53 L116.323 449.595 Z" fill="#000000" fill-rule="nonzero" fill-opacity="1"></path><path clip-path="url(#clip830)" d="M155.675 422.049 Q152.064 422.049 150.235 425.614 Q148.43 429.155 148.43 436.285 Q148.43 443.391 150.235 446.956 Q152.064 450.498 155.675 450.498 Q159.309 450.498 161.115 446.956 Q162.943 443.391 162.943 436.285 Q162.943 429.155 161.115 425.614 Q159.309 422.049 155.675 422.049 M155.675 418.345 Q161.485 418.345 164.541 422.952 Q167.619 427.535 167.619 436.285 Q167.619 445.012 164.541 449.618 Q161.485 454.202 155.675 454.202 Q149.865 454.202 146.786 449.618 Q143.73 445.012 143.73 436.285 Q143.73 427.535 146.786 422.952 Q149.865 418.345 155.675 418.345 Z" fill="#000000" fill-rule="nonzero" fill-opacity="1"></path><path clip-path="url(#clip830)" d="M167.619 412.447 L191.731 412.447 L191.731 415.644 L167.619 415.644 L167.619 412.447 Z" fill="#000000" fill-rule="nonzero" fill-opacity="1"></path><path clip-path="url(#clip830)" d="M200.589 422.923 L206.796 422.923 L206.796 401.5 L200.044 402.855 L200.044 399.394 L206.758 398.04 L210.557 398.04 L210.557 422.923 L216.764 422.923 L216.764 426.12 L200.589 426.12 L200.589 422.923 Z" fill="#000000" fill-rule="nonzero" fill-opacity="1"></path><path clip-path="url(#clip830)" d="M146.058 186.799 L153.697 186.799 L153.697 160.434 L145.387 162.1 L145.387 157.841 L153.651 156.174 L158.327 156.174 L158.327 186.799 L165.966 186.799 L165.966 190.734 L146.058 190.734 L146.058 186.799 Z" fill="#000000" fill-rule="nonzero" fill-opacity="1"></path><path clip-path="url(#clip830)" d="M185.41 159.253 Q181.799 159.253 179.97 162.818 Q178.165 166.359 178.165 173.489 Q178.165 180.595 179.97 184.16 Q181.799 187.702 185.41 187.702 Q189.044 187.702 190.85 184.16 Q192.678 180.595 192.678 173.489 Q192.678 166.359 190.85 162.818 Q189.044 159.253 185.41 159.253 M185.41 155.549 Q191.22 155.549 194.276 160.156 Q197.354 164.739 197.354 173.489 Q197.354 182.216 194.276 186.822 Q191.22 191.406 185.41 191.406 Q179.6 191.406 176.521 186.822 Q173.466 182.216 173.466 173.489 Q173.466 164.739 176.521 160.156 Q179.6 155.549 185.41 155.549 Z" fill="#000000" fill-rule="nonzero" fill-opacity="1"></path><path clip-path="url(#clip830)" d="M207.059 137.745 Q204.125 137.745 202.639 140.642 Q201.172 143.519 201.172 149.312 Q201.172 155.086 202.639 157.982 Q204.125 160.86 207.059 160.86 Q210.012 160.86 211.479 157.982 Q212.965 155.086 212.965 149.312 Q212.965 143.519 211.479 140.642 Q210.012 137.745 207.059 137.745 M207.059 134.736 Q211.78 134.736 214.263 138.479 Q216.764 142.203 216.764 149.312 Q216.764 156.403 214.263 160.145 Q211.78 163.869 207.059 163.869 Q202.338 163.869 199.837 160.145 Q197.354 156.403 197.354 149.312 Q197.354 142.203 199.837 138.479 Q202.338 134.736 207.059 134.736 Z" fill="#000000" fill-rule="nonzero" fill-opacity="1"></path><path clip-path="url(#clip830)" d="M28.3562 840.485 L28.3562 834.279 L58.275 823.139 L28.3562 811.999 L28.3562 805.792 L64.0042 819.16 L64.0042 827.118 L28.3562 840.485 Z" fill="#000000" fill-rule="nonzero" fill-opacity="1"></path><path clip-path="url(#clip830)" d="M51.9411 781.316 L64.0042 781.316 L64.0042 785.008 L52.0685 785.008 Q49.2357 785.008 47.8353 786.25 Q46.403 787.491 46.403 789.974 Q46.403 792.965 48.1217 794.684 Q49.8086 796.403 52.7369 796.403 L64.0042 796.403 L64.0042 800.127 L36.2815 800.127 L36.2815 796.403 L47.135 796.403 Q45.3526 795.098 44.4614 793.316 Q43.5702 791.501 43.5702 789.146 Q43.5702 785.295 45.7028 783.321 Q47.8353 781.316 51.9411 781.316 Z" fill="#000000" fill-rule="nonzero" fill-opacity="1"></path><path clip-path="url(#clip830)" d="M16.4842 760.946 L16.4842 755.535 L70.0516 772.086 L70.0516 777.497 L16.4842 760.946 Z" fill="#000000" fill-rule="nonzero" fill-opacity="1"></path><path clip-path="url(#clip830)" d="M28.3562 753.594 L28.3562 747.387 L58.275 736.247 L28.3562 725.107 L28.3562 718.9 L64.0042 732.268 L64.0042 740.226 L28.3562 753.594 Z" fill="#000000" fill-rule="nonzero" fill-opacity="1"></path><path clip-path="url(#clip830)" d="M53.2143 693.883 L54.8057 693.883 L54.8057 710.848 Q58.1795 710.593 59.9619 708.556 Q61.7443 706.487 61.7443 702.827 Q61.7443 700.695 61.2669 698.689 Q60.8213 696.716 59.8983 694.743 L62.9856 694.743 Q63.7495 696.716 64.1315 698.817 Q64.5134 700.886 64.5134 703.05 Q64.5134 708.429 61.7443 711.548 Q58.9752 714.699 54.2328 714.699 Q49.3312 714.699 46.4348 711.707 Q43.5702 708.747 43.5702 703.686 Q43.5702 699.167 46.1484 696.525 Q48.7583 693.883 53.2143 693.883 M52.2276 697.575 Q49.554 697.607 47.9307 699.262 Q46.3393 700.917 46.3393 703.655 Q46.3393 706.742 47.8989 708.588 Q49.4267 710.434 52.2276 710.721 L52.2276 697.575 Z" fill="#000000" fill-rule="nonzero" fill-opacity="1"></path><path clip-path="url(#clip830)" d="M1055.65 14.0809 L1055.65 22.0612 Q1051 19.8332 1046.86 18.7395 Q1042.73 17.6457 1038.88 17.6457 Q1032.2 17.6457 1028.55 20.2383 Q1024.95 22.8309 1024.95 27.611 Q1024.95 31.6214 1027.34 33.6873 Q1029.77 35.7128 1036.49 36.9686 L1041.44 37.9813 Q1050.59 39.7232 1054.93 44.1387 Q1059.3 48.5136 1059.3 55.8863 Q1059.3 64.6767 1053.39 69.2137 Q1047.51 73.7508 1036.13 73.7508 Q1031.84 73.7508 1026.97 72.7785 Q1022.15 71.8063 1016.97 69.9024 L1016.97 61.4765 Q1021.95 64.2716 1026.73 65.6895 Q1031.51 67.1073 1036.13 67.1073 Q1043.14 67.1073 1046.95 64.3527 Q1050.75 61.598 1050.75 56.4939 Q1050.75 52.0379 1048 49.5264 Q1045.28 47.0148 1039.05 45.759 L1034.06 44.7868 Q1024.91 42.9639 1020.82 39.075 Q1016.73 35.1862 1016.73 28.2591 Q1016.73 20.2383 1022.36 15.6203 Q1028.03 11.0023 1037.95 11.0023 Q1042.21 11.0023 1046.62 11.7719 Q1051.04 12.5416 1055.65 14.0809 Z" fill="#000000" fill-rule="nonzero" fill-opacity="1"></path><path clip-path="url(#clip830)" d="M1109.45 45.1919 L1109.45 72.576 L1102 72.576 L1102 45.4349 Q1102 38.994 1099.49 35.7938 Q1096.97 32.5936 1091.95 32.5936 Q1085.92 32.5936 1082.43 36.4419 Q1078.95 40.2903 1078.95 46.9338 L1078.95 72.576 L1071.45 72.576 L1071.45 9.54393 L1078.95 9.54393 L1078.95 34.2544 Q1081.62 30.163 1085.23 28.1376 Q1088.87 26.1121 1093.61 26.1121 Q1101.43 26.1121 1105.44 30.9732 Q1109.45 35.7938 1109.45 45.1919 Z" fill="#000000" fill-rule="nonzero" fill-opacity="1"></path><path clip-path="url(#clip830)" d="M1163.13 48.0275 L1163.13 51.6733 L1128.85 51.6733 Q1129.34 59.3701 1133.47 63.421 Q1137.65 67.4314 1145.06 67.4314 Q1149.35 67.4314 1153.36 66.3781 Q1157.41 65.3249 1161.38 63.2184 L1161.38 70.267 Q1157.37 71.9684 1153.16 72.8596 Q1148.95 73.7508 1144.61 73.7508 Q1133.76 73.7508 1127.4 67.4314 Q1121.08 61.1119 1121.08 50.3365 Q1121.08 39.1965 1127.07 32.6746 Q1133.11 26.1121 1143.32 26.1121 Q1152.47 26.1121 1157.78 32.0264 Q1163.13 37.9003 1163.13 48.0275 M1155.67 45.84 Q1155.59 39.7232 1152.23 36.0774 Q1148.91 32.4315 1143.4 32.4315 Q1137.16 32.4315 1133.39 35.9558 Q1129.66 39.4801 1129.1 45.8805 L1155.67 45.84 Z" fill="#000000" fill-rule="nonzero" fill-opacity="1"></path><path clip-path="url(#clip830)" d="M1195.98 49.7694 Q1186.94 49.7694 1183.46 51.8354 Q1179.98 53.9013 1179.98 58.8839 Q1179.98 62.8538 1182.57 65.2034 Q1185.2 67.5124 1189.7 67.5124 Q1195.9 67.5124 1199.62 63.1374 Q1203.39 58.7219 1203.39 51.4303 L1203.39 49.7694 L1195.98 49.7694 M1210.84 46.6907 L1210.84 72.576 L1203.39 72.576 L1203.39 65.6895 Q1200.84 69.8214 1197.03 71.8063 Q1193.22 73.7508 1187.71 73.7508 Q1180.75 73.7508 1176.61 69.8619 Q1172.52 65.9325 1172.52 59.3701 Q1172.52 51.7138 1177.63 47.825 Q1182.77 43.9361 1192.94 43.9361 L1203.39 43.9361 L1203.39 43.2069 Q1203.39 38.0623 1199.99 35.2672 Q1196.63 32.4315 1190.51 32.4315 Q1186.62 32.4315 1182.93 33.3632 Q1179.25 34.295 1175.85 36.1584 L1175.85 29.2718 Q1179.94 27.692 1183.78 26.9223 Q1187.63 26.1121 1191.28 26.1121 Q1201.12 26.1121 1205.98 31.2163 Q1210.84 36.3204 1210.84 46.6907 Z" fill="#000000" fill-rule="nonzero" fill-opacity="1"></path><path clip-path="url(#clip830)" d="M1252.49 34.1734 Q1251.23 33.4443 1249.73 33.1202 Q1248.28 32.7556 1246.49 32.7556 Q1240.17 32.7556 1236.77 36.8875 Q1233.41 40.9789 1233.41 48.6757 L1233.41 72.576 L1225.91 72.576 L1225.91 27.2059 L1233.41 27.2059 L1233.41 34.2544 Q1235.76 30.1225 1239.53 28.1376 Q1243.29 26.1121 1248.68 26.1121 Q1249.45 26.1121 1250.38 26.2337 Q1251.31 26.3147 1252.45 26.5172 L1252.49 34.1734 Z" fill="#000000" fill-rule="nonzero" fill-opacity="1"></path><path clip-path="url(#clip830)" d="M1287 12.096 L1295.18 12.096 L1295.18 65.6895 L1324.63 65.6895 L1324.63 72.576 L1287 72.576 L1287 12.096 Z" fill="#000000" fill-rule="nonzero" fill-opacity="1"></path><path clip-path="url(#clip830)" d="M1349.02 32.4315 Q1343.03 32.4315 1339.54 37.1306 Q1336.06 41.7891 1336.06 49.9314 Q1336.06 58.0738 1339.5 62.7728 Q1342.99 67.4314 1349.02 67.4314 Q1354.98 67.4314 1358.46 62.7323 Q1361.94 58.0333 1361.94 49.9314 Q1361.94 41.8701 1358.46 37.1711 Q1354.98 32.4315 1349.02 32.4315 M1349.02 26.1121 Q1358.74 26.1121 1364.29 32.4315 Q1369.84 38.7509 1369.84 49.9314 Q1369.84 61.0714 1364.29 67.4314 Q1358.74 73.7508 1349.02 73.7508 Q1339.26 73.7508 1333.71 67.4314 Q1328.2 61.0714 1328.2 49.9314 Q1328.2 38.7509 1333.71 32.4315 Q1339.26 26.1121 1349.02 26.1121 Z" fill="#000000" fill-rule="nonzero" fill-opacity="1"></path><path clip-path="url(#clip830)" d="M1414.85 28.9478 L1414.85 35.9153 Q1411.69 34.1734 1408.49 33.3227 Q1405.33 32.4315 1402.09 32.4315 Q1394.84 32.4315 1390.83 37.0496 Q1386.82 41.6271 1386.82 49.9314 Q1386.82 58.2358 1390.83 62.8538 Q1394.84 67.4314 1402.09 67.4314 Q1405.33 67.4314 1408.49 66.5807 Q1411.69 65.6895 1414.85 63.9476 L1414.85 70.8341 Q1411.73 72.2924 1408.37 73.0216 Q1405.05 73.7508 1401.28 73.7508 Q1391.03 73.7508 1384.99 67.3098 Q1378.96 60.8689 1378.96 49.9314 Q1378.96 38.832 1385.03 32.472 Q1391.15 26.1121 1401.76 26.1121 Q1405.21 26.1121 1408.49 26.8413 Q1411.77 27.5299 1414.85 28.9478 Z" fill="#000000" fill-rule="nonzero" fill-opacity="1"></path><path clip-path="url(#clip830)" d="M1427.53 9.54393 L1435.02 9.54393 L1435.02 46.7717 L1457.26 27.2059 L1466.78 27.2059 L1442.72 48.4326 L1467.79 72.576 L1458.07 72.576 L1435.02 50.4176 L1435.02 72.576 L1427.53 72.576 L1427.53 9.54393 Z" fill="#000000" fill-rule="nonzero" fill-opacity="1"></path><path clip-path="url(#clip830)" d="M1475.86 27.2059 L1483.31 27.2059 L1483.31 72.576 L1475.86 72.576 L1475.86 27.2059 M1475.86 9.54393 L1483.31 9.54393 L1483.31 18.9825 L1475.86 18.9825 L1475.86 9.54393 Z" fill="#000000" fill-rule="nonzero" fill-opacity="1"></path><path clip-path="url(#clip830)" d="M1536.62 45.1919 L1536.62 72.576 L1529.16 72.576 L1529.16 45.4349 Q1529.16 38.994 1526.65 35.7938 Q1524.14 32.5936 1519.12 32.5936 Q1513.08 32.5936 1509.6 36.4419 Q1506.12 40.2903 1506.12 46.9338 L1506.12 72.576 L1498.62 72.576 L1498.62 27.2059 L1506.12 27.2059 L1506.12 34.2544 Q1508.79 30.163 1512.39 28.1376 Q1516.04 26.1121 1520.78 26.1121 Q1528.6 26.1121 1532.61 30.9732 Q1536.62 35.7938 1536.62 45.1919 Z" fill="#000000" fill-rule="nonzero" fill-opacity="1"></path><path clip-path="url(#clip830)" d="M1581.34 49.3643 Q1581.34 41.2625 1577.98 36.8065 Q1574.66 32.3505 1568.62 32.3505 Q1562.63 32.3505 1559.26 36.8065 Q1555.94 41.2625 1555.94 49.3643 Q1555.94 57.4256 1559.26 61.8816 Q1562.63 66.3376 1568.62 66.3376 Q1574.66 66.3376 1577.98 61.8816 Q1581.34 57.4256 1581.34 49.3643 M1588.79 66.9452 Q1588.79 78.5308 1583.65 84.1616 Q1578.5 89.8329 1567.89 89.8329 Q1563.96 89.8329 1560.48 89.2252 Q1556.99 88.6581 1553.71 87.4428 L1553.71 80.1917 Q1556.99 81.9741 1560.19 82.8248 Q1563.4 83.6755 1566.72 83.6755 Q1574.05 83.6755 1577.69 79.8271 Q1581.34 76.0193 1581.34 68.282 L1581.34 64.5957 Q1579.03 68.6061 1575.43 70.5911 Q1571.82 72.576 1566.8 72.576 Q1558.45 72.576 1553.35 66.2161 Q1548.24 59.8562 1548.24 49.3643 Q1548.24 38.832 1553.35 32.472 Q1558.45 26.1121 1566.8 26.1121 Q1571.82 26.1121 1575.43 28.0971 Q1579.03 30.082 1581.34 34.0924 L1581.34 27.2059 L1588.79 27.2059 L1588.79 66.9452 Z" fill="#000000" fill-rule="nonzero" fill-opacity="1"></path><polyline clip-path="url(#clip832)" style="stroke:#009af9; stroke-linecap:round; stroke-linejoin:round; stroke-width:4; stroke-opacity:1; fill:none" points="2293.32,163.842 2095.21,181.071 1897.1,220.174 1698.98,306.558 1500.87,436.423 1302.76,586.289 1104.65,742.32 906.535,899.986 708.423,1058.07 510.31,1216.25 312.198,1374.46 "></polyline>
<circle clip-path="url(#clip832)" cx="2293.32" cy="163.842" r="14.4" fill="#009af9" fill-rule="evenodd" fill-opacity="1" stroke="#000000" stroke-opacity="1" stroke-width="3.2"></circle>
<circle clip-path="url(#clip832)" cx="2095.21" cy="181.071" r="14.4" fill="#009af9" fill-rule="evenodd" fill-opacity="1" stroke="#000000" stroke-opacity="1" stroke-width="3.2"></circle>
<circle clip-path="url(#clip832)" cx="1897.1" cy="220.174" r="14.4" fill="#009af9" fill-rule="evenodd" fill-opacity="1" stroke="#000000" stroke-opacity="1" stroke-width="3.2"></circle>
<circle clip-path="url(#clip832)" cx="1698.98" cy="306.558" r="14.4" fill="#009af9" fill-rule="evenodd" fill-opacity="1" stroke="#000000" stroke-opacity="1" stroke-width="3.2"></circle>
<circle clip-path="url(#clip832)" cx="1500.87" cy="436.423" r="14.4" fill="#009af9" fill-rule="evenodd" fill-opacity="1" stroke="#000000" stroke-opacity="1" stroke-width="3.2"></circle>
<circle clip-path="url(#clip832)" cx="1302.76" cy="586.289" r="14.4" fill="#009af9" fill-rule="evenodd" fill-opacity="1" stroke="#000000" stroke-opacity="1" stroke-width="3.2"></circle>
<circle clip-path="url(#clip832)" cx="1104.65" cy="742.32" r="14.4" fill="#009af9" fill-rule="evenodd" fill-opacity="1" stroke="#000000" stroke-opacity="1" stroke-width="3.2"></circle>
<circle clip-path="url(#clip832)" cx="906.535" cy="899.986" r="14.4" fill="#009af9" fill-rule="evenodd" fill-opacity="1" stroke="#000000" stroke-opacity="1" stroke-width="3.2"></circle>
<circle clip-path="url(#clip832)" cx="708.423" cy="1058.07" r="14.4" fill="#009af9" fill-rule="evenodd" fill-opacity="1" stroke="#000000" stroke-opacity="1" stroke-width="3.2"></circle>
<circle clip-path="url(#clip832)" cx="510.31" cy="1216.25" r="14.4" fill="#009af9" fill-rule="evenodd" fill-opacity="1" stroke="#000000" stroke-opacity="1" stroke-width="3.2"></circle>
<circle clip-path="url(#clip832)" cx="312.198" cy="1374.46" r="14.4" fill="#009af9" fill-rule="evenodd" fill-opacity="1" stroke="#000000" stroke-opacity="1" stroke-width="3.2"></circle>
<polyline clip-path="url(#clip832)" style="stroke:#000000; stroke-linecap:round; stroke-linejoin:round; stroke-width:4; stroke-opacity:1; fill:none" stroke-dasharray="16, 10" points="2293.32,167.007 2095.21,167.007 1897.1,167.007 1698.98,167.007 1500.87,167.007 1302.76,167.007 1104.65,167.007 906.535,167.007 708.423,167.007 510.31,167.007 312.198,167.007 "></polyline>
<polyline clip-path="url(#clip832)" style="stroke:#3da44d; stroke-linecap:round; stroke-linejoin:round; stroke-width:4; stroke-opacity:1; fill:none" points="2293.32,159.909 2095.21,165.401 1897.1,166.817 1698.98,167.173 1500.87,167.263 1302.76,167.285 1104.65,167.291 906.535,167.292 708.423,167.292 510.31,167.292 312.198,167.292 "></polyline>
<path clip-path="url(#clip832)" d="M2277.32 143.909 L2277.32 175.909 L2309.32 175.909 L2309.32 143.909 L2277.32 143.909 Z" fill="#3da44d" fill-rule="evenodd" fill-opacity="1" stroke="#000000" stroke-opacity="1" stroke-width="3.2"></path>
<path clip-path="url(#clip832)" d="M2079.21 149.401 L2079.21 181.401 L2111.21 181.401 L2111.21 149.401 L2079.21 149.401 Z" fill="#3da44d" fill-rule="evenodd" fill-opacity="1" stroke="#000000" stroke-opacity="1" stroke-width="3.2"></path>
<path clip-path="url(#clip832)" d="M1881.1 150.817 L1881.1 182.817 L1913.1 182.817 L1913.1 150.817 L1881.1 150.817 Z" fill="#3da44d" fill-rule="evenodd" fill-opacity="1" stroke="#000000" stroke-opacity="1" stroke-width="3.2"></path>
<path clip-path="url(#clip832)" d="M1682.98 151.173 L1682.98 183.173 L1714.98 183.173 L1714.98 151.173 L1682.98 151.173 Z" fill="#3da44d" fill-rule="evenodd" fill-opacity="1" stroke="#000000" stroke-opacity="1" stroke-width="3.2"></path>
<path clip-path="url(#clip832)" d="M1484.87 151.263 L1484.87 183.263 L1516.87 183.263 L1516.87 151.263 L1484.87 151.263 Z" fill="#3da44d" fill-rule="evenodd" fill-opacity="1" stroke="#000000" stroke-opacity="1" stroke-width="3.2"></path>
<path clip-path="url(#clip832)" d="M1286.76 151.285 L1286.76 183.285 L1318.76 183.285 L1318.76 151.285 L1286.76 151.285 Z" fill="#3da44d" fill-rule="evenodd" fill-opacity="1" stroke="#000000" stroke-opacity="1" stroke-width="3.2"></path>
<path clip-path="url(#clip832)" d="M1088.65 151.291 L1088.65 183.291 L1120.65 183.291 L1120.65 151.291 L1088.65 151.291 Z" fill="#3da44d" fill-rule="evenodd" fill-opacity="1" stroke="#000000" stroke-opacity="1" stroke-width="3.2"></path>
<path clip-path="url(#clip832)" d="M890.535 151.292 L890.535 183.292 L922.535 183.292 L922.535 151.292 L890.535 151.292 Z" fill="#3da44d" fill-rule="evenodd" fill-opacity="1" stroke="#000000" stroke-opacity="1" stroke-width="3.2"></path>
<path clip-path="url(#clip832)" d="M692.423 151.292 L692.423 183.292 L724.423 183.292 L724.423 151.292 L692.423 151.292 Z" fill="#3da44d" fill-rule="evenodd" fill-opacity="1" stroke="#000000" stroke-opacity="1" stroke-width="3.2"></path>
<path clip-path="url(#clip832)" d="M494.31 151.292 L494.31 183.292 L526.31 183.292 L526.31 151.292 L494.31 151.292 Z" fill="#3da44d" fill-rule="evenodd" fill-opacity="1" stroke="#000000" stroke-opacity="1" stroke-width="3.2"></path>
<path clip-path="url(#clip832)" d="M296.198 151.292 L296.198 183.292 L328.198 183.292 L328.198 151.292 L296.198 151.292 Z" fill="#3da44d" fill-rule="evenodd" fill-opacity="1" stroke="#000000" stroke-opacity="1" stroke-width="3.2"></path>
<polyline clip-path="url(#clip832)" style="stroke:#c271d2; stroke-linecap:round; stroke-linejoin:round; stroke-width:4; stroke-opacity:1; fill:none" points="2293.32,159.909 2095.21,165.401 1897.1,166.817 1698.98,167.173 1500.87,167.263 1302.76,167.285 1104.65,167.291 906.535,167.292 708.423,167.292 510.31,167.292 312.198,167.292 "></polyline>
<path clip-path="url(#clip832)" d="M2293.32 143.909 L2277.32 159.909 L2293.32 175.909 L2309.32 159.909 L2293.32 143.909 Z" fill="#c271d2" fill-rule="evenodd" fill-opacity="1" stroke="#000000" stroke-opacity="1" stroke-width="3.2"></path>
<path clip-path="url(#clip832)" d="M2095.21 149.401 L2079.21 165.401 L2095.21 181.401 L2111.21 165.401 L2095.21 149.401 Z" fill="#c271d2" fill-rule="evenodd" fill-opacity="1" stroke="#000000" stroke-opacity="1" stroke-width="3.2"></path>
<path clip-path="url(#clip832)" d="M1897.1 150.817 L1881.1 166.817 L1897.1 182.817 L1913.1 166.817 L1897.1 150.817 Z" fill="#c271d2" fill-rule="evenodd" fill-opacity="1" stroke="#000000" stroke-opacity="1" stroke-width="3.2"></path>
<path clip-path="url(#clip832)" d="M1698.98 151.173 L1682.98 167.173 L1698.98 183.173 L1714.98 167.173 L1698.98 151.173 Z" fill="#c271d2" fill-rule="evenodd" fill-opacity="1" stroke="#000000" stroke-opacity="1" stroke-width="3.2"></path>
<path clip-path="url(#clip832)" d="M1500.87 151.263 L1484.87 167.263 L1500.87 183.263 L1516.87 167.263 L1500.87 151.263 Z" fill="#c271d2" fill-rule="evenodd" fill-opacity="1" stroke="#000000" stroke-opacity="1" stroke-width="3.2"></path>
<path clip-path="url(#clip832)" d="M1302.76 151.285 L1286.76 167.285 L1302.76 183.285 L1318.76 167.285 L1302.76 151.285 Z" fill="#c271d2" fill-rule="evenodd" fill-opacity="1" stroke="#000000" stroke-opacity="1" stroke-width="3.2"></path>
<path clip-path="url(#clip832)" d="M1104.65 151.291 L1088.65 167.291 L1104.65 183.291 L1120.65 167.291 L1104.65 151.291 Z" fill="#c271d2" fill-rule="evenodd" fill-opacity="1" stroke="#000000" stroke-opacity="1" stroke-width="3.2"></path>
<path clip-path="url(#clip832)" d="M906.535 151.292 L890.535 167.292 L906.535 183.292 L922.535 167.292 L906.535 151.292 Z" fill="#c271d2" fill-rule="evenodd" fill-opacity="1" stroke="#000000" stroke-opacity="1" stroke-width="3.2"></path>
<path clip-path="url(#clip832)" d="M708.423 151.292 L692.423 167.292 L708.423 183.292 L724.423 167.292 L708.423 151.292 Z" fill="#c271d2" fill-rule="evenodd" fill-opacity="1" stroke="#000000" stroke-opacity="1" stroke-width="3.2"></path>
<path clip-path="url(#clip832)" d="M510.31 151.292 L494.31 167.292 L510.31 183.292 L526.31 167.292 L510.31 151.292 Z" fill="#c271d2" fill-rule="evenodd" fill-opacity="1" stroke="#000000" stroke-opacity="1" stroke-width="3.2"></path>
<path clip-path="url(#clip832)" d="M312.198 151.292 L296.198 167.292 L312.198 183.292 L328.198 167.292 L312.198 151.292 Z" fill="#c271d2" fill-rule="evenodd" fill-opacity="1" stroke="#000000" stroke-opacity="1" stroke-width="3.2"></path>
<path clip-path="url(#clip830)" d="M1712.16 1367.98 L2282.76 1367.98 L2282.76 1160.62 L1712.16 1160.62  Z" fill="#ffffff" fill-rule="evenodd" fill-opacity="1"></path>
<polyline clip-path="url(#clip830)" style="stroke:#000000; stroke-linecap:round; stroke-linejoin:round; stroke-width:4; stroke-opacity:1; fill:none" points="1712.16,1367.98 2282.76,1367.98 2282.76,1160.62 1712.16,1160.62 1712.16,1367.98 "></polyline>
<polyline clip-path="url(#clip830)" style="stroke:#009af9; stroke-linecap:round; stroke-linejoin:round; stroke-width:4; stroke-opacity:1; fill:none" points="1735.49,1212.46 1875.49,1212.46 "></polyline>
<circle clip-path="url(#clip830)" cx="1805.49" cy="1212.46" r="19.4444" fill="#009af9" fill-rule="evenodd" fill-opacity="1" stroke="#000000" stroke-opacity="1" stroke-width="4.55111"></circle>
<path clip-path="url(#clip830)" d="M1924.38 1224.81 L1924.38 1215.53 L1916.74 1215.53 L1916.74 1211.69 L1929.01 1211.69 L1929.01 1226.52 Q1926.3 1228.45 1923.04 1229.44 Q1919.77 1230.41 1916.07 1230.41 Q1907.97 1230.41 1903.38 1225.69 Q1898.82 1220.95 1898.82 1212.5 Q1898.82 1204.03 1903.38 1199.3 Q1907.97 1194.56 1916.07 1194.56 Q1919.45 1194.56 1922.48 1195.39 Q1925.54 1196.22 1928.11 1197.84 L1928.11 1202.82 Q1925.51 1200.62 1922.6 1199.51 Q1919.68 1198.4 1916.46 1198.4 Q1910.12 1198.4 1906.92 1201.94 Q1903.75 1205.48 1903.75 1212.5 Q1903.75 1219.49 1906.92 1223.03 Q1910.12 1226.57 1916.46 1226.57 Q1918.94 1226.57 1920.88 1226.15 Q1922.83 1225.71 1924.38 1224.81 Z" fill="#000000" fill-rule="nonzero" fill-opacity="1"></path><path clip-path="url(#clip830)" d="M1949.15 1216.71 Q1943.98 1216.71 1941.99 1217.89 Q1940 1219.07 1940 1221.92 Q1940 1224.19 1941.48 1225.53 Q1942.99 1226.85 1945.56 1226.85 Q1949.1 1226.85 1951.23 1224.35 Q1953.38 1221.83 1953.38 1217.66 L1953.38 1216.71 L1949.15 1216.71 M1957.64 1214.95 L1957.64 1229.74 L1953.38 1229.74 L1953.38 1225.81 Q1951.92 1228.17 1949.75 1229.3 Q1947.57 1230.41 1944.42 1230.41 Q1940.44 1230.41 1938.08 1228.19 Q1935.74 1225.95 1935.74 1222.2 Q1935.74 1217.82 1938.66 1215.6 Q1941.6 1213.38 1947.41 1213.38 L1953.38 1213.38 L1953.38 1212.96 Q1953.38 1210.02 1951.44 1208.42 Q1949.52 1206.8 1946.02 1206.8 Q1943.8 1206.8 1941.69 1207.34 Q1939.59 1207.87 1937.64 1208.93 L1937.64 1205 Q1939.98 1204.09 1942.18 1203.65 Q1944.38 1203.19 1946.46 1203.19 Q1952.09 1203.19 1954.86 1206.11 Q1957.64 1209.03 1957.64 1214.95 Z" fill="#000000" fill-rule="nonzero" fill-opacity="1"></path><path clip-path="url(#clip830)" d="M1966.42 1193.72 L1970.67 1193.72 L1970.67 1229.74 L1966.42 1229.74 L1966.42 1193.72 Z" fill="#000000" fill-rule="nonzero" fill-opacity="1"></path><path clip-path="url(#clip830)" d="M2001.76 1215.71 L2001.76 1217.8 L1982.18 1217.8 Q1982.46 1222.2 1984.82 1224.51 Q1987.2 1226.8 1991.44 1226.8 Q1993.89 1226.8 1996.18 1226.2 Q1998.5 1225.6 2000.77 1224.4 L2000.77 1228.42 Q1998.48 1229.4 1996.07 1229.9 Q1993.66 1230.41 1991.18 1230.41 Q1984.98 1230.41 1981.35 1226.8 Q1977.73 1223.19 1977.73 1217.03 Q1977.73 1210.67 1981.16 1206.94 Q1984.61 1203.19 1990.44 1203.19 Q1995.67 1203.19 1998.71 1206.57 Q2001.76 1209.93 2001.76 1215.71 M1997.5 1214.46 Q1997.46 1210.97 1995.54 1208.89 Q1993.64 1206.8 1990.49 1206.8 Q1986.92 1206.8 1984.77 1208.82 Q1982.64 1210.83 1982.32 1214.49 L1997.5 1214.46 Z" fill="#000000" fill-rule="nonzero" fill-opacity="1"></path><path clip-path="url(#clip830)" d="M2023.78 1207.8 Q2023.06 1207.38 2022.2 1207.2 Q2021.37 1206.99 2020.35 1206.99 Q2016.74 1206.99 2014.79 1209.35 Q2012.87 1211.69 2012.87 1216.09 L2012.87 1229.74 L2008.59 1229.74 L2008.59 1203.82 L2012.87 1203.82 L2012.87 1207.84 Q2014.22 1205.48 2016.37 1204.35 Q2018.52 1203.19 2021.6 1203.19 Q2022.04 1203.19 2022.57 1203.26 Q2023.1 1203.31 2023.75 1203.42 L2023.78 1207.8 Z" fill="#000000" fill-rule="nonzero" fill-opacity="1"></path><path clip-path="url(#clip830)" d="M2028.08 1193.72 L2032.36 1193.72 L2032.36 1215 L2045.07 1203.82 L2050.51 1203.82 L2036.76 1215.95 L2051.09 1229.74 L2045.54 1229.74 L2032.36 1217.08 L2032.36 1229.74 L2028.08 1229.74 L2028.08 1193.72 Z" fill="#000000" fill-rule="nonzero" fill-opacity="1"></path><path clip-path="url(#clip830)" d="M2055.7 1203.82 L2059.96 1203.82 L2059.96 1229.74 L2055.7 1229.74 L2055.7 1203.82 M2055.7 1193.72 L2059.96 1193.72 L2059.96 1199.12 L2055.7 1199.12 L2055.7 1193.72 Z" fill="#000000" fill-rule="nonzero" fill-opacity="1"></path><path clip-path="url(#clip830)" d="M2090.42 1214.09 L2090.42 1229.74 L2086.16 1229.74 L2086.16 1214.23 Q2086.16 1210.55 2084.72 1208.72 Q2083.29 1206.9 2080.42 1206.9 Q2076.97 1206.9 2074.98 1209.09 Q2072.99 1211.29 2072.99 1215.09 L2072.99 1229.74 L2068.71 1229.74 L2068.71 1203.82 L2072.99 1203.82 L2072.99 1207.84 Q2074.52 1205.51 2076.58 1204.35 Q2078.66 1203.19 2081.37 1203.19 Q2085.84 1203.19 2088.13 1205.97 Q2090.42 1208.72 2090.42 1214.09 Z" fill="#000000" fill-rule="nonzero" fill-opacity="1"></path><polyline clip-path="url(#clip830)" style="stroke:#3da44d; stroke-linecap:round; stroke-linejoin:round; stroke-width:4; stroke-opacity:1; fill:none" points="1735.49,1264.3 1875.49,1264.3 "></polyline>
<path clip-path="url(#clip830)" d="M1783.89 1242.7 L1783.89 1285.91 L1827.09 1285.91 L1827.09 1242.7 L1783.89 1242.7 Z" fill="#3da44d" fill-rule="evenodd" fill-opacity="1" stroke="#000000" stroke-opacity="1" stroke-width="4.55111"></path>
<path clip-path="url(#clip830)" d="M1921.07 1248.16 L1921.07 1252.72 Q1918.41 1251.44 1916.05 1250.82 Q1913.68 1250.19 1911.48 1250.19 Q1907.67 1250.19 1905.58 1251.68 Q1903.52 1253.16 1903.52 1255.89 Q1903.52 1258.18 1904.89 1259.36 Q1906.28 1260.52 1910.12 1261.24 L1912.94 1261.81 Q1918.17 1262.81 1920.65 1265.33 Q1923.15 1267.83 1923.15 1272.05 Q1923.15 1277.07 1919.77 1279.66 Q1916.42 1282.25 1909.91 1282.25 Q1907.46 1282.25 1904.68 1281.7 Q1901.92 1281.14 1898.96 1280.05 L1898.96 1275.24 Q1901.81 1276.84 1904.54 1277.65 Q1907.27 1278.46 1909.91 1278.46 Q1913.92 1278.46 1916.09 1276.88 Q1918.27 1275.31 1918.27 1272.39 Q1918.27 1269.85 1916.69 1268.41 Q1915.14 1266.98 1911.58 1266.26 L1908.73 1265.7 Q1903.5 1264.66 1901.16 1262.44 Q1898.82 1260.22 1898.82 1256.26 Q1898.82 1251.68 1902.04 1249.04 Q1905.28 1246.4 1910.95 1246.4 Q1913.38 1246.4 1915.91 1246.84 Q1918.43 1247.28 1921.07 1248.16 Z" fill="#000000" fill-rule="nonzero" fill-opacity="1"></path><path clip-path="url(#clip830)" d="M1929.82 1271.35 L1929.82 1255.66 L1934.08 1255.66 L1934.08 1271.19 Q1934.08 1274.87 1935.51 1276.72 Q1936.95 1278.55 1939.82 1278.55 Q1943.27 1278.55 1945.26 1276.35 Q1947.27 1274.15 1947.27 1270.36 L1947.27 1255.66 L1951.53 1255.66 L1951.53 1281.58 L1947.27 1281.58 L1947.27 1277.6 Q1945.72 1279.96 1943.66 1281.12 Q1941.62 1282.25 1938.92 1282.25 Q1934.45 1282.25 1932.13 1279.48 Q1929.82 1276.7 1929.82 1271.35 M1940.54 1255.03 L1940.54 1255.03 Z" fill="#000000" fill-rule="nonzero" fill-opacity="1"></path><path clip-path="url(#clip830)" d="M1978.92 1268.64 Q1978.92 1263.94 1976.97 1261.28 Q1975.05 1258.6 1971.67 1258.6 Q1968.29 1258.6 1966.35 1261.28 Q1964.42 1263.94 1964.42 1268.64 Q1964.42 1273.34 1966.35 1276.03 Q1968.29 1278.69 1971.67 1278.69 Q1975.05 1278.69 1976.97 1276.03 Q1978.92 1273.34 1978.92 1268.64 M1964.42 1259.59 Q1965.77 1257.28 1967.8 1256.17 Q1969.86 1255.03 1972.71 1255.03 Q1977.43 1255.03 1980.37 1258.78 Q1983.34 1262.53 1983.34 1268.64 Q1983.34 1274.75 1980.37 1278.5 Q1977.43 1282.25 1972.71 1282.25 Q1969.86 1282.25 1967.8 1281.14 Q1965.77 1280.01 1964.42 1277.69 L1964.42 1281.58 L1960.14 1281.58 L1960.14 1245.56 L1964.42 1245.56 L1964.42 1259.59 Z" fill="#000000" fill-rule="nonzero" fill-opacity="1"></path><path clip-path="url(#clip830)" d="M1988.24 1266.7 L2000.72 1266.7 L2000.72 1270.49 L1988.24 1270.49 L1988.24 1266.7 Z" fill="#000000" fill-rule="nonzero" fill-opacity="1"></path><path clip-path="url(#clip830)" d="M2007.5 1255.66 L2011.76 1255.66 L2011.76 1281.58 L2007.5 1281.58 L2007.5 1255.66 M2007.5 1245.56 L2011.76 1245.56 L2011.76 1250.96 L2007.5 1250.96 L2007.5 1245.56 Z" fill="#000000" fill-rule="nonzero" fill-opacity="1"></path><path clip-path="url(#clip830)" d="M2042.23 1265.93 L2042.23 1281.58 L2037.97 1281.58 L2037.97 1266.07 Q2037.97 1262.39 2036.53 1260.56 Q2035.1 1258.74 2032.23 1258.74 Q2028.78 1258.74 2026.79 1260.93 Q2024.79 1263.13 2024.79 1266.93 L2024.79 1281.58 L2020.51 1281.58 L2020.51 1255.66 L2024.79 1255.66 L2024.79 1259.68 Q2026.32 1257.35 2028.38 1256.19 Q2030.47 1255.03 2033.17 1255.03 Q2037.64 1255.03 2039.93 1257.81 Q2042.23 1260.56 2042.23 1265.93 Z" fill="#000000" fill-rule="nonzero" fill-opacity="1"></path><path clip-path="url(#clip830)" d="M2054.93 1248.3 L2054.93 1255.66 L2063.71 1255.66 L2063.71 1258.97 L2054.93 1258.97 L2054.93 1273.04 Q2054.93 1276.21 2055.79 1277.11 Q2056.67 1278.02 2059.33 1278.02 L2063.71 1278.02 L2063.71 1281.58 L2059.33 1281.58 Q2054.4 1281.58 2052.53 1279.75 Q2050.65 1277.9 2050.65 1273.04 L2050.65 1258.97 L2047.53 1258.97 L2047.53 1255.66 L2050.65 1255.66 L2050.65 1248.3 L2054.93 1248.3 Z" fill="#000000" fill-rule="nonzero" fill-opacity="1"></path><path clip-path="url(#clip830)" d="M2091.48 1267.55 L2091.48 1269.64 L2071.9 1269.64 Q2072.18 1274.04 2074.54 1276.35 Q2076.92 1278.64 2081.16 1278.64 Q2083.61 1278.64 2085.91 1278.04 Q2088.22 1277.44 2090.49 1276.24 L2090.49 1280.26 Q2088.2 1281.24 2085.79 1281.74 Q2083.38 1282.25 2080.91 1282.25 Q2074.7 1282.25 2071.07 1278.64 Q2067.46 1275.03 2067.46 1268.87 Q2067.46 1262.51 2070.88 1258.78 Q2074.33 1255.03 2080.16 1255.03 Q2085.4 1255.03 2088.43 1258.41 Q2091.48 1261.77 2091.48 1267.55 M2087.22 1266.3 Q2087.18 1262.81 2085.26 1260.73 Q2083.36 1258.64 2080.21 1258.64 Q2076.65 1258.64 2074.49 1260.66 Q2072.36 1262.67 2072.04 1266.33 L2087.22 1266.3 Z" fill="#000000" fill-rule="nonzero" fill-opacity="1"></path><path clip-path="url(#clip830)" d="M2115.53 1268.32 Q2115.53 1263.69 2113.61 1261.14 Q2111.72 1258.6 2108.27 1258.6 Q2104.84 1258.6 2102.92 1261.14 Q2101.02 1263.69 2101.02 1268.32 Q2101.02 1272.93 2102.92 1275.47 Q2104.84 1278.02 2108.27 1278.02 Q2111.72 1278.02 2113.61 1275.47 Q2115.53 1272.93 2115.53 1268.32 M2119.79 1278.36 Q2119.79 1284.99 2116.85 1288.2 Q2113.91 1291.44 2107.85 1291.44 Q2105.6 1291.44 2103.61 1291.1 Q2101.62 1290.77 2099.75 1290.08 L2099.75 1285.93 Q2101.62 1286.95 2103.45 1287.44 Q2105.28 1287.93 2107.18 1287.93 Q2111.37 1287.93 2113.45 1285.73 Q2115.53 1283.55 2115.53 1279.13 L2115.53 1277.02 Q2114.22 1279.31 2112.16 1280.45 Q2110.1 1281.58 2107.22 1281.58 Q2102.46 1281.58 2099.54 1277.95 Q2096.62 1274.31 2096.62 1268.32 Q2096.62 1262.3 2099.54 1258.67 Q2102.46 1255.03 2107.22 1255.03 Q2110.1 1255.03 2112.16 1256.17 Q2114.22 1257.3 2115.53 1259.59 L2115.53 1255.66 L2119.79 1255.66 L2119.79 1278.36 Z" fill="#000000" fill-rule="nonzero" fill-opacity="1"></path><path clip-path="url(#clip830)" d="M2143.59 1259.64 Q2142.87 1259.22 2142.02 1259.04 Q2141.18 1258.83 2140.16 1258.83 Q2136.55 1258.83 2134.61 1261.19 Q2132.69 1263.53 2132.69 1267.93 L2132.69 1281.58 L2128.41 1281.58 L2128.41 1255.66 L2132.69 1255.66 L2132.69 1259.68 Q2134.03 1257.32 2136.18 1256.19 Q2138.34 1255.03 2141.41 1255.03 Q2141.85 1255.03 2142.39 1255.1 Q2142.92 1255.15 2143.57 1255.26 L2143.59 1259.64 Z" fill="#000000" fill-rule="nonzero" fill-opacity="1"></path><path clip-path="url(#clip830)" d="M2159.84 1268.55 Q2154.68 1268.55 2152.69 1269.73 Q2150.7 1270.91 2150.7 1273.76 Q2150.7 1276.03 2152.18 1277.37 Q2153.68 1278.69 2156.25 1278.69 Q2159.79 1278.69 2161.92 1276.19 Q2164.08 1273.67 2164.08 1269.5 L2164.08 1268.55 L2159.84 1268.55 M2168.34 1266.79 L2168.34 1281.58 L2164.08 1281.58 L2164.08 1277.65 Q2162.62 1280.01 2160.44 1281.14 Q2158.27 1282.25 2155.12 1282.25 Q2151.14 1282.25 2148.78 1280.03 Q2146.44 1277.79 2146.44 1274.04 Q2146.44 1269.66 2149.35 1267.44 Q2152.29 1265.22 2158.1 1265.22 L2164.08 1265.22 L2164.08 1264.8 Q2164.08 1261.86 2162.13 1260.26 Q2160.21 1258.64 2156.72 1258.64 Q2154.49 1258.64 2152.39 1259.18 Q2150.28 1259.71 2148.34 1260.77 L2148.34 1256.84 Q2150.67 1255.93 2152.87 1255.49 Q2155.07 1255.03 2157.15 1255.03 Q2162.78 1255.03 2165.56 1257.95 Q2168.34 1260.87 2168.34 1266.79 Z" fill="#000000" fill-rule="nonzero" fill-opacity="1"></path><path clip-path="url(#clip830)" d="M2181.32 1248.3 L2181.32 1255.66 L2190.09 1255.66 L2190.09 1258.97 L2181.32 1258.97 L2181.32 1273.04 Q2181.32 1276.21 2182.18 1277.11 Q2183.06 1278.02 2185.72 1278.02 L2190.09 1278.02 L2190.09 1281.58 L2185.72 1281.58 Q2180.79 1281.58 2178.91 1279.75 Q2177.04 1277.9 2177.04 1273.04 L2177.04 1258.97 L2173.91 1258.97 L2173.91 1255.66 L2177.04 1255.66 L2177.04 1248.3 L2181.32 1248.3 Z" fill="#000000" fill-rule="nonzero" fill-opacity="1"></path><path clip-path="url(#clip830)" d="M2195.7 1255.66 L2199.96 1255.66 L2199.96 1281.58 L2195.7 1281.58 L2195.7 1255.66 M2195.7 1245.56 L2199.96 1245.56 L2199.96 1250.96 L2195.7 1250.96 L2195.7 1245.56 Z" fill="#000000" fill-rule="nonzero" fill-opacity="1"></path><path clip-path="url(#clip830)" d="M2218.91 1258.64 Q2215.49 1258.64 2213.5 1261.33 Q2211.51 1263.99 2211.51 1268.64 Q2211.51 1273.3 2213.47 1275.98 Q2215.46 1278.64 2218.91 1278.64 Q2222.32 1278.64 2224.31 1275.96 Q2226.3 1273.27 2226.3 1268.64 Q2226.3 1264.04 2224.31 1261.35 Q2222.32 1258.64 2218.91 1258.64 M2218.91 1255.03 Q2224.47 1255.03 2227.64 1258.64 Q2230.81 1262.25 2230.81 1268.64 Q2230.81 1275.01 2227.64 1278.64 Q2224.47 1282.25 2218.91 1282.25 Q2213.34 1282.25 2210.16 1278.64 Q2207.02 1275.01 2207.02 1268.64 Q2207.02 1262.25 2210.16 1258.64 Q2213.34 1255.03 2218.91 1255.03 Z" fill="#000000" fill-rule="nonzero" fill-opacity="1"></path><path clip-path="url(#clip830)" d="M2259.42 1265.93 L2259.42 1281.58 L2255.16 1281.58 L2255.16 1266.07 Q2255.16 1262.39 2253.73 1260.56 Q2252.29 1258.74 2249.42 1258.74 Q2245.97 1258.74 2243.98 1260.93 Q2241.99 1263.13 2241.99 1266.93 L2241.99 1281.58 L2237.71 1281.58 L2237.71 1255.66 L2241.99 1255.66 L2241.99 1259.68 Q2243.52 1257.35 2245.58 1256.19 Q2247.66 1255.03 2250.37 1255.03 Q2254.84 1255.03 2257.13 1257.81 Q2259.42 1260.56 2259.42 1265.93 Z" fill="#000000" fill-rule="nonzero" fill-opacity="1"></path><polyline clip-path="url(#clip830)" style="stroke:#c271d2; stroke-linecap:round; stroke-linejoin:round; stroke-width:4; stroke-opacity:1; fill:none" points="1735.49,1316.14 1875.49,1316.14 "></polyline>
<path clip-path="url(#clip830)" d="M1805.49 1294.54 L1783.89 1316.14 L1805.49 1337.75 L1827.09 1316.14 L1805.49 1294.54 Z" fill="#c271d2" fill-rule="evenodd" fill-opacity="1" stroke="#000000" stroke-opacity="1" stroke-width="4.55111"></path>
<path clip-path="url(#clip830)" d="M1914.84 1302.03 Q1909.75 1302.03 1906.74 1305.83 Q1903.75 1309.63 1903.75 1316.18 Q1903.75 1322.7 1906.74 1326.5 Q1909.75 1330.3 1914.84 1330.3 Q1919.93 1330.3 1922.9 1326.5 Q1925.88 1322.7 1925.88 1316.18 Q1925.88 1309.63 1922.9 1305.83 Q1919.93 1302.03 1914.84 1302.03 M1921.39 1332.8 L1927.55 1339.53 L1921.9 1339.53 L1916.79 1334 Q1916.02 1334.05 1915.61 1334.07 Q1915.21 1334.09 1914.84 1334.09 Q1907.55 1334.09 1903.17 1329.23 Q1898.82 1324.35 1898.82 1316.18 Q1898.82 1307.98 1903.17 1303.12 Q1907.55 1298.24 1914.84 1298.24 Q1922.11 1298.24 1926.46 1303.12 Q1930.81 1307.98 1930.81 1316.18 Q1930.81 1322.2 1928.38 1326.48 Q1925.98 1330.76 1921.39 1332.8 Z" fill="#000000" fill-rule="nonzero" fill-opacity="1"></path><path clip-path="url(#clip830)" d="M1942.57 1329.49 L1958.89 1329.49 L1958.89 1333.42 L1936.95 1333.42 L1936.95 1329.49 Q1939.61 1326.73 1944.19 1322.1 Q1948.8 1317.45 1949.98 1316.11 Q1952.23 1313.58 1953.11 1311.85 Q1954.01 1310.09 1954.01 1308.4 Q1954.01 1305.64 1952.06 1303.91 Q1950.14 1302.17 1947.04 1302.17 Q1944.84 1302.17 1942.39 1302.94 Q1939.96 1303.7 1937.18 1305.25 L1937.18 1300.53 Q1940 1299.39 1942.46 1298.82 Q1944.91 1298.24 1946.95 1298.24 Q1952.32 1298.24 1955.51 1300.92 Q1958.71 1303.61 1958.71 1308.1 Q1958.71 1310.23 1957.9 1312.15 Q1957.11 1314.05 1955 1316.64 Q1954.42 1317.31 1951.32 1320.53 Q1948.22 1323.72 1942.57 1329.49 Z" fill="#000000" fill-rule="nonzero" fill-opacity="1"></path><path clip-path="url(#clip830)" d="M1975.67 1298.86 L1979.61 1298.86 L1967.57 1337.82 L1963.64 1337.82 L1975.67 1298.86 Z" fill="#000000" fill-rule="nonzero" fill-opacity="1"></path><path clip-path="url(#clip830)" d="M1998.29 1302.03 Q1993.2 1302.03 1990.19 1305.83 Q1987.2 1309.63 1987.2 1316.18 Q1987.2 1322.7 1990.19 1326.5 Q1993.2 1330.3 1998.29 1330.3 Q2003.38 1330.3 2006.35 1326.5 Q2009.33 1322.7 2009.33 1316.18 Q2009.33 1309.63 2006.35 1305.83 Q2003.38 1302.03 1998.29 1302.03 M2004.84 1332.8 L2011 1339.53 L2005.35 1339.53 L2000.23 1334 Q1999.47 1334.05 1999.05 1334.07 Q1998.66 1334.09 1998.29 1334.09 Q1991 1334.09 1986.62 1329.23 Q1982.27 1324.35 1982.27 1316.18 Q1982.27 1307.98 1986.62 1303.12 Q1991 1298.24 1998.29 1298.24 Q2005.56 1298.24 2009.91 1303.12 Q2014.26 1307.98 2014.26 1316.18 Q2014.26 1322.2 2011.83 1326.48 Q2009.42 1330.76 2004.84 1332.8 Z" fill="#000000" fill-rule="nonzero" fill-opacity="1"></path><path clip-path="url(#clip830)" d="M2022.8 1329.49 L2030.44 1329.49 L2030.44 1303.12 L2022.13 1304.79 L2022.13 1300.53 L2030.4 1298.86 L2035.07 1298.86 L2035.07 1329.49 L2042.71 1329.49 L2042.71 1333.42 L2022.8 1333.42 L2022.8 1329.49 Z" fill="#000000" fill-rule="nonzero" fill-opacity="1"></path></svg>