<svg xmlns="http://www.w3.org/2000/svg" xmlns:xlink="http://www.w3.org/1999/xlink" width="600" height="400" viewBox="0 0 2400 1600">
<defs>
  <clipPath id="clip870">
    <rect x="0" y="0" width="2400" height="1600"></rect>
  </clipPath>
</defs>
<path clip-path="url(#clip870)" d="M0 1600 L2400 1600 L2400 0 L0 0  Z" fill="#ffffff" fill-rule="evenodd" fill-opacity="1"></path>
<defs>
  <clipPath id="clip871">
    <rect x="480" y="0" width="1681" height="1600"></rect>
  </clipPath>
</defs>
<path clip-path="url(#clip870)" d="M252.764 1410.9 L2352.76 1410.9 L2352.76 123.472 L252.764 123.472  Z" fill="#ffffff" fill-rule="evenodd" fill-opacity="1"></path>
<defs>
  <clipPath id="clip872">
    <rect x="252" y="123" width="2101" height="1288"></rect>
  </clipPath>
</defs>
<polyline clip-path="url(#clip872)" style="stroke:#000000; stroke-linecap:round; stroke-linejoin:round; stroke-width:2; stroke-opacity:0.1; fill:none" points="977.092,1410.9 977.092,123.472 "></polyline>
<polyline clip-path="url(#clip872)" style="stroke:#000000; stroke-linecap:round; stroke-linejoin:round; stroke-width:2; stroke-opacity:0.1; fill:none" points="2293.32,1410.9 2293.32,123.472 "></polyline>
<polyline clip-path="url(#clip870)" style="stroke:#000000; stroke-linecap:round; stroke-linejoin:round; stroke-width:4; stroke-opacity:1; fill:none" points="252.764,1410.9 2352.76,1410.9 "></polyline>
<polyline clip-path="url(#clip870)" style="stroke:#000000; stroke-linecap:round; stroke-linejoin:round; stroke-width:4; stroke-opacity:1; fill:none" points="977.092,1410.9 977.092,1392 "></polyline>
<polyline clip-path="url(#clip870)" style="stroke:#000000; stroke-linecap:round; stroke-linejoin:round; stroke-width:4; stroke-opacity:1; fill:none" points="2293.32,1410.9 2293.32,1392 "></polyline>
<path clip-path="url(#clip870)" d="M927.357 1485.02 L934.996 1485.02 L934.996 1458.66 L926.686 1460.32 L926.686 1456.06 L934.95 1454.4 L939.626 1454.4 L939.626 1485.02 L947.265 1485.02 L947.265 1488.96 L927.357 1488.96 L927.357 1485.02 Z" fill="#000000" fill-rule="nonzero" fill-opacity="1"></path><path clip-path="url(#clip870)" d="M966.709 1457.48 Q963.098 1457.48 961.269 1461.04 Q959.464 1464.58 959.464 1471.71 Q959.464 1478.82 961.269 1482.38 Q963.098 1485.92 966.709 1485.92 Q970.343 1485.92 972.149 1482.38 Q973.977 1478.82 973.977 1471.71 Q973.977 1464.58 972.149 1461.04 Q970.343 1457.48 966.709 1457.48 M966.709 1453.77 Q972.519 1453.77 975.575 1458.38 Q978.653 1462.96 978.653 1471.71 Q978.653 1480.44 975.575 1485.04 Q972.519 1489.63 966.709 1489.63 Q960.899 1489.63 957.82 1485.04 Q954.765 1480.44 954.765 1471.71 Q954.765 1462.96 957.82 1458.38 Q960.899 1453.77 966.709 1453.77 Z" fill="#000000" fill-rule="nonzero" fill-opacity="1"></path><path clip-path="url(#clip870)" d="M978.653 1447.87 L1002.76 1447.87 L1002.76 1451.07 L978.653 1451.07 L978.653 1447.87 Z" fill="#000000" fill-rule="nonzero" fill-opacity="1"></path><path clip-path="url(#clip870)" d="M1014.24 1458.35 L1027.5 1458.35 L1027.5 1461.55 L1009.67 1461.55 L1009.67 1458.35 Q1011.83 1456.11 1015.55 1452.35 Q1019.3 1448.57 1020.26 1447.48 Q1022.08 1445.43 1022.8 1444.02 Q1023.53 1442.59 1023.53 1441.22 Q1023.53 1438.98 1021.95 1437.57 Q1020.39 1436.16 1017.87 1436.16 Q1016.08 1436.16 1014.09 1436.78 Q1012.11 1437.4 1009.86 1438.66 L1009.86 1434.82 Q1012.15 1433.9 1014.14 1433.43 Q1016.14 1432.96 1017.79 1432.96 Q1022.16 1432.96 1024.75 1435.14 Q1027.35 1437.32 1027.35 1440.97 Q1027.35 1442.7 1026.69 1444.26 Q1026.05 1445.8 1024.34 1447.91 Q1023.87 1448.46 1021.35 1451.07 Q1018.83 1453.67 1014.24 1458.35 Z" fill="#000000" fill-rule="nonzero" fill-opacity="1"></path><path clip-path="url(#clip870)" d="M2258.3 1485.02 L2265.94 1485.02 L2265.94 1458.66 L2257.63 1460.32 L2257.63 1456.06 L2265.9 1454.4 L2270.57 1454.4 L2270.57 1485.02 L2278.21 1485.02 L2278.21 1488.96 L2258.3 1488.96 L2258.3 1485.02 Z" fill="#000000" fill-rule="nonzero" fill-opacity="1"></path><path clip-path="url(#clip870)" d="M2297.66 1457.48 Q2294.05 1457.48 2292.22 1461.04 Q2290.41 1464.58 2290.41 1471.71 Q2290.41 1478.82 2292.22 1482.38 Q2294.05 1485.92 2297.66 1485.92 Q2301.29 1485.92 2303.1 1482.38 Q2304.93 1478.82 2304.93 1471.71 Q2304.93 1464.58 2303.1 1461.04 Q2301.29 1457.48 2297.66 1457.48 M2297.66 1453.77 Q2303.47 1453.77 2306.52 1458.38 Q2309.6 1462.96 2309.6 1471.71 Q2309.6 1480.44 2306.52 1485.04 Q2303.47 1489.63 2297.66 1489.63 Q2291.85 1489.63 2288.77 1485.04 Q2285.71 1480.44 2285.71 1471.71 Q2285.71 1462.96 2288.77 1458.38 Q2291.85 1453.77 2297.66 1453.77 Z" fill="#000000" fill-rule="nonzero" fill-opacity="1"></path><path clip-path="url(#clip870)" d="M2319.31 1435.97 Q2316.37 1435.97 2314.89 1438.86 Q2313.42 1441.74 2313.42 1447.53 Q2313.42 1453.31 2314.89 1456.2 Q2316.37 1459.08 2319.31 1459.08 Q2322.26 1459.08 2323.73 1456.2 Q2325.21 1453.31 2325.21 1447.53 Q2325.21 1441.74 2323.73 1438.86 Q2322.26 1435.97 2319.31 1435.97 M2319.31 1432.96 Q2324.03 1432.96 2326.51 1436.7 Q2329.01 1440.43 2329.01 1447.53 Q2329.01 1454.62 2326.51 1458.37 Q2324.03 1462.09 2319.31 1462.09 Q2314.59 1462.09 2312.08 1458.37 Q2309.6 1454.62 2309.6 1447.53 Q2309.6 1440.43 2312.08 1436.7 Q2314.59 1432.96 2319.31 1432.96 Z" fill="#000000" fill-rule="nonzero" fill-opacity="1"></path><path clip-path="url(#clip870)" d="M1301.82 1528.42 L1301.82 1538.54 L1313.88 1538.54 L1313.88 1543.09 L1301.82 1543.09 L1301.82 1562.44 Q1301.82 1566.8 1303 1568.04 Q1304.21 1569.28 1307.87 1569.28 L1313.88 1569.28 L1313.88 1574.19 L1307.87 1574.19 Q1301.09 1574.19 1298.51 1571.67 Q1295.93 1569.12 1295.93 1562.44 L1295.93 1543.09 L1291.64 1543.09 L1291.64 1538.54 L1295.93 1538.54 L1295.93 1528.42 L1301.82 1528.42 Z" fill="#000000" fill-rule="nonzero" fill-opacity="1"></path><polyline clip-path="url(#clip872)" style="stroke:#000000; stroke-linecap:round; stroke-linejoin:round; stroke-width:2; stroke-opacity:0.1; fill:none" points="252.764,1218.22 2352.76,1218.22 "></polyline>
<polyline clip-path="url(#clip872)" style="stroke:#000000; stroke-linecap:round; stroke-linejoin:round; stroke-width:2; stroke-opacity:0.1; fill:none" points="252.764,955.487 2352.76,955.487 "></polyline>
<polyline clip-path="url(#clip872)" style="stroke:#000000; stroke-linecap:round; stroke-linejoin:round; stroke-width:2; stroke-opacity:0.1; fill:none" points="252.764,692.749 2352.76,692.749 "></polyline>
<polyline clip-path="url(#clip872)" style="stroke:#000000; stroke-linecap:round; stroke-linejoin:round; stroke-width:2; stroke-opacity:0.1; fill:none" points="252.764,430.011 2352.76,430.011 "></polyline>
<polyline clip-path="url(#clip872)" style="stroke:#000000; stroke-linecap:round; stroke-linejoin:round; stroke-width:2; stroke-opacity:0.1; fill:none" points="252.764,167.273 2352.76,167.273 "></polyline>
<polyline clip-path="url(#clip870)" style="stroke:#000000; stroke-linecap:round; stroke-linejoin:round; stroke-width:4; stroke-opacity:1; fill:none" points="252.764,1410.9 252.764,123.472 "></polyline>
<polyline clip-path="url(#clip870)" style="stroke:#000000; stroke-linecap:round; stroke-linejoin:round; stroke-width:4; stroke-opacity:1; fill:none" points="252.764,1218.22 271.662,1218.22 "></polyline>
<polyline clip-path="url(#clip870)" style="stroke:#000000; stroke-linecap:round; stroke-linejoin:round; stroke-width:4; stroke-opacity:1; fill:none" points="252.764,955.487 271.662,955.487 "></polyline>
<polyline clip-path="url(#clip870)" style="stroke:#000000; stroke-linecap:round; stroke-linejoin:round; stroke-width:4; stroke-opacity:1; fill:none" points="252.764,692.749 271.662,692.749 "></polyline>
<polyline clip-path="url(#clip870)" style="stroke:#000000; stroke-linecap:round; stroke-linejoin:round; stroke-width:4; stroke-opacity:1; fill:none" points="252.764,430.011 271.662,430.011 "></polyline>
<polyline clip-path="url(#clip870)" style="stroke:#000000; stroke-linecap:round; stroke-linejoin:round; stroke-width:4; stroke-opacity:1; fill:none" points="252.764,167.273 271.662,167.273 "></polyline>
<path clip-path="url(#clip870)" d="M114.931 1238.02 L122.57 1238.02 L122.57 1211.65 L114.26 1213.32 L114.26 1209.06 L122.524 1207.39 L127.2 1207.39 L127.2 1238.02 L134.839 1238.02 L134.839 1241.95 L114.931 1241.95 L114.931 1238.02 Z" fill="#000000" fill-rule="nonzero" fill-opacity="1"></path><path clip-path="url(#clip870)" d="M154.283 1210.47 Q150.672 1210.47 148.843 1214.04 Q147.038 1217.58 147.038 1224.71 Q147.038 1231.81 148.843 1235.38 Q150.672 1238.92 154.283 1238.92 Q157.917 1238.92 159.723 1235.38 Q161.552 1231.81 161.552 1224.71 Q161.552 1217.58 159.723 1214.04 Q157.917 1210.47 154.283 1210.47 M154.283 1206.77 Q160.093 1206.77 163.149 1211.37 Q166.227 1215.96 166.227 1224.71 Q166.227 1233.43 163.149 1238.04 Q160.093 1242.62 154.283 1242.62 Q148.473 1242.62 145.394 1238.04 Q142.339 1233.43 142.339 1224.71 Q142.339 1215.96 145.394 1211.37 Q148.473 1206.77 154.283 1206.77 Z" fill="#000000" fill-rule="nonzero" fill-opacity="1"></path><path clip-path="url(#clip870)" d="M166.227 1200.87 L190.339 1200.87 L190.339 1204.07 L166.227 1204.07 L166.227 1200.87 Z" fill="#000000" fill-rule="nonzero" fill-opacity="1"></path><path clip-path="url(#clip870)" d="M208.978 1189.77 L199.386 1204.76 L208.978 1204.76 L208.978 1189.77 M207.981 1186.46 L212.758 1186.46 L212.758 1204.76 L216.764 1204.76 L216.764 1207.92 L212.758 1207.92 L212.758 1214.54 L208.978 1214.54 L208.978 1207.92 L196.301 1207.92 L196.301 1204.25 L207.981 1186.46 Z" fill="#000000" fill-rule="nonzero" fill-opacity="1"></path><path clip-path="url(#clip870)" d="M115.853 975.279 L123.492 975.279 L123.492 948.914 L115.182 950.58 L115.182 946.321 L123.446 944.655 L128.121 944.655 L128.121 975.279 L135.76 975.279 L135.76 979.215 L115.853 979.215 L115.853 975.279 Z" fill="#000000" fill-rule="nonzero" fill-opacity="1"></path><path clip-path="url(#clip870)" d="M155.205 947.733 Q151.594 947.733 149.765 951.298 Q147.959 954.84 147.959 961.969 Q147.959 969.076 149.765 972.641 Q151.594 976.182 155.205 976.182 Q158.839 976.182 160.644 972.641 Q162.473 969.076 162.473 961.969 Q162.473 954.84 160.644 951.298 Q158.839 947.733 155.205 947.733 M155.205 944.03 Q161.015 944.03 164.07 948.636 Q167.149 953.219 167.149 961.969 Q167.149 970.696 164.07 975.303 Q161.015 979.886 155.205 979.886 Q149.395 979.886 146.316 975.303 Q143.26 970.696 143.26 961.969 Q143.26 953.219 146.316 948.636 Q149.395 944.03 155.205 944.03 Z" fill="#000000" fill-rule="nonzero" fill-opacity="1"></path><path clip-path="url(#clip870)" d="M167.149 938.131 L191.261 938.131 L191.261 941.328 L167.149 941.328 L167.149 938.131 Z" fill="#000000" fill-rule="nonzero" fill-opacity="1"></path><path clip-path="url(#clip870)" d="M210.971 936.664 Q213.698 937.247 215.222 939.09 Q216.764 940.933 216.764 943.642 Q216.764 947.798 213.905 950.074 Q211.046 952.35 205.78 952.35 Q204.012 952.35 202.132 951.992 Q200.27 951.654 198.276 950.958 L198.276 947.29 Q199.856 948.212 201.737 948.682 Q203.617 949.152 205.667 949.152 Q209.241 949.152 211.103 947.742 Q212.984 946.331 212.984 943.642 Q212.984 941.159 211.234 939.767 Q209.504 938.357 206.401 938.357 L203.128 938.357 L203.128 935.235 L206.551 935.235 Q209.354 935.235 210.84 934.125 Q212.325 932.996 212.325 930.89 Q212.325 928.727 210.783 927.58 Q209.26 926.414 206.401 926.414 Q204.84 926.414 203.053 926.752 Q201.266 927.091 199.122 927.805 L199.122 924.42 Q201.285 923.818 203.166 923.517 Q205.066 923.216 206.739 923.216 Q211.065 923.216 213.585 925.191 Q216.106 927.147 216.106 930.495 Q216.106 932.827 214.77 934.445 Q213.435 936.043 210.971 936.664 Z" fill="#000000" fill-rule="nonzero" fill-opacity="1"></path><path clip-path="url(#clip870)" d="M116.624 712.541 L124.263 712.541 L124.263 686.176 L115.953 687.842 L115.953 683.583 L124.217 681.917 L128.893 681.917 L128.893 712.541 L136.531 712.541 L136.531 716.477 L116.624 716.477 L116.624 712.541 Z" fill="#000000" fill-rule="nonzero" fill-opacity="1"></path><path clip-path="url(#clip870)" d="M155.976 684.995 Q152.365 684.995 150.536 688.56 Q148.73 692.102 148.73 699.231 Q148.73 706.338 150.536 709.902 Q152.365 713.444 155.976 713.444 Q159.61 713.444 161.416 709.902 Q163.244 706.338 163.244 699.231 Q163.244 692.102 161.416 688.56 Q159.61 684.995 155.976 684.995 M155.976 681.292 Q161.786 681.292 164.841 685.898 Q167.92 690.481 167.92 699.231 Q167.92 707.958 164.841 712.565 Q161.786 717.148 155.976 717.148 Q150.166 717.148 147.087 712.565 Q144.031 707.958 144.031 699.231 Q144.031 690.481 147.087 685.898 Q150.166 681.292 155.976 681.292 Z" fill="#000000" fill-rule="nonzero" fill-opacity="1"></path><path clip-path="url(#clip870)" d="M167.92 675.393 L192.032 675.393 L192.032 678.59 L167.92 678.59 L167.92 675.393 Z" fill="#000000" fill-rule="nonzero" fill-opacity="1"></path><path clip-path="url(#clip870)" d="M203.504 685.869 L216.764 685.869 L216.764 689.066 L198.934 689.066 L198.934 685.869 Q201.097 683.631 204.821 679.869 Q208.564 676.089 209.523 674.998 Q211.347 672.948 212.062 671.537 Q212.796 670.108 212.796 668.735 Q212.796 666.497 211.216 665.086 Q209.655 663.676 207.134 663.676 Q205.348 663.676 203.354 664.296 Q201.379 664.917 199.122 666.177 L199.122 662.34 Q201.417 661.419 203.41 660.949 Q205.404 660.478 207.059 660.478 Q211.423 660.478 214.018 662.66 Q216.613 664.842 216.613 668.49 Q216.613 670.221 215.955 671.782 Q215.316 673.324 213.604 675.43 Q213.134 675.976 210.614 678.59 Q208.094 681.186 203.504 685.869 Z" fill="#000000" fill-rule="nonzero" fill-opacity="1"></path><path clip-path="url(#clip870)" d="M116.323 449.803 L123.962 449.803 L123.962 423.438 L115.652 425.104 L115.652 420.845 L123.916 419.179 L128.592 419.179 L128.592 449.803 L136.231 449.803 L136.231 453.739 L116.323 453.739 L116.323 449.803 Z" fill="#000000" fill-rule="nonzero" fill-opacity="1"></path><path clip-path="url(#clip870)" d="M155.675 422.257 Q152.064 422.257 150.235 425.822 Q148.43 429.364 148.43 436.493 Q148.43 443.6 150.235 447.164 Q152.064 450.706 155.675 450.706 Q159.309 450.706 161.115 447.164 Q162.943 443.6 162.943 436.493 Q162.943 429.364 161.115 425.822 Q159.309 422.257 155.675 422.257 M155.675 418.554 Q161.485 418.554 164.541 423.16 Q167.619 427.743 167.619 436.493 Q167.619 445.22 164.541 449.826 Q161.485 454.41 155.675 454.41 Q149.865 454.41 146.786 449.826 Q143.73 445.22 143.73 436.493 Q143.73 427.743 146.786 423.16 Q149.865 418.554 155.675 418.554 Z" fill="#000000" fill-rule="nonzero" fill-opacity="1"></path><path clip-path="url(#clip870)" d="M167.619 412.655 L191.731 412.655 L191.731 415.852 L167.619 415.852 L167.619 412.655 Z" fill="#000000" fill-rule="nonzero" fill-opacity="1"></path><path clip-path="url(#clip870)" d="M200.589 423.131 L206.796 423.131 L206.796 401.709 L200.044 403.063 L200.044 399.602 L206.758 398.248 L210.557 398.248 L210.557 423.131 L216.764 423.131 L216.764 426.328 L200.589 426.328 L200.589 423.131 Z" fill="#000000" fill-rule="nonzero" fill-opacity="1"></path><path clip-path="url(#clip870)" d="M146.058 187.065 L153.697 187.065 L153.697 160.7 L145.387 162.366 L145.387 158.107 L153.651 156.44 L158.327 156.44 L158.327 187.065 L165.966 187.065 L165.966 191 L146.058 191 L146.058 187.065 Z" fill="#000000" fill-rule="nonzero" fill-opacity="1"></path><path clip-path="url(#clip870)" d="M185.41 159.519 Q181.799 159.519 179.97 163.084 Q178.165 166.626 178.165 173.755 Q178.165 180.862 179.97 184.426 Q181.799 187.968 185.41 187.968 Q189.044 187.968 190.85 184.426 Q192.678 180.862 192.678 173.755 Q192.678 166.626 190.85 163.084 Q189.044 159.519 185.41 159.519 M185.41 155.815 Q191.22 155.815 194.276 160.422 Q197.354 165.005 197.354 173.755 Q197.354 182.482 194.276 187.088 Q191.22 191.672 185.41 191.672 Q179.6 191.672 176.521 187.088 Q173.466 182.482 173.466 173.755 Q173.466 165.005 176.521 160.422 Q179.6 155.815 185.41 155.815 Z" fill="#000000" fill-rule="nonzero" fill-opacity="1"></path><path clip-path="url(#clip870)" d="M207.059 138.012 Q204.125 138.012 202.639 140.908 Q201.172 143.785 201.172 149.578 Q201.172 155.352 202.639 158.249 Q204.125 161.126 207.059 161.126 Q210.012 161.126 211.479 158.249 Q212.965 155.352 212.965 149.578 Q212.965 143.785 211.479 140.908 Q210.012 138.012 207.059 138.012 M207.059 135.002 Q211.78 135.002 214.263 138.745 Q216.764 142.469 216.764 149.578 Q216.764 156.669 214.263 160.412 Q211.78 164.136 207.059 164.136 Q202.338 164.136 199.837 160.412 Q197.354 156.669 197.354 149.578 Q197.354 142.469 199.837 138.745 Q202.338 135.002 207.059 135.002 Z" fill="#000000" fill-rule="nonzero" fill-opacity="1"></path><path clip-path="url(#clip870)" d="M28.3562 840.485 L28.3562 834.279 L58.275 823.139 L28.3562 811.999 L28.3562 805.792 L64.0042 819.16 L64.0042 827.118 L28.3562 840.485 Z" fill="#000000" fill-rule="nonzero" fill-opacity="1"></path><path clip-path="url(#clip870)" d="M51.9411 781.316 L64.0042 781.316 L64.0042 785.008 L52.0685 785.008 Q49.2357 785.008 47.8353 786.25 Q46.403 787.491 46.403 789.974 Q46.403 792.965 48.1217 794.684 Q49.8086 796.403 52.7369 796.403 L64.0042 796.403 L64.0042 800.127 L36.2815 800.127 L36.2815 796.403 L47.135 796.403 Q45.3526 795.098 44.4614 793.316 Q43.5702 791.501 43.5702 789.146 Q43.5702 785.295 45.7028 783.321 Q47.8353 781.316 51.9411 781.316 Z" fill="#000000" fill-rule="nonzero" fill-opacity="1"></path><path clip-path="url(#clip870)" d="M16.4842 760.946 L16.4842 755.535 L70.0516 772.086 L70.0516 777.497 L16.4842 760.946 Z" fill="#000000" fill-rule="nonzero" fill-opacity="1"></path><path clip-path="url(#clip870)" d="M28.3562 753.594 L28.3562 747.387 L58.275 736.247 L28.3562 725.107 L28.3562 718.9 L64.0042 732.268 L64.0042 740.226 L28.3562 753.594 Z" fill="#000000" fill-rule="nonzero" fill-opacity="1"></path><path clip-path="url(#clip870)" d="M53.2143 693.883 L54.8057 693.883 L54.8057 710.848 Q58.1795 710.593 59.9619 708.556 Q61.7443 706.487 61.7443 702.827 Q61.7443 700.695 61.2669 698.689 Q60.8213 696.716 59.8983 694.743 L62.9856 694.743 Q63.7495 696.716 64.1315 698.817 Q64.5134 700.886 64.5134 703.05 Q64.5134 708.429 61.7443 711.548 Q58.9752 714.699 54.2328 714.699 Q49.3312 714.699 46.4348 711.707 Q43.5702 708.747 43.5702 703.686 Q43.5702 699.167 46.1484 696.525 Q48.7583 693.883 53.2143 693.883 M52.2276 697.575 Q49.554 697.607 47.9307 699.262 Q46.3393 700.917 46.3393 703.655 Q46.3393 706.742 47.8989 708.588 Q49.4267 710.434 52.2276 710.721 L52.2276 697.575 Z" fill="#000000" fill-rule="nonzero" fill-opacity="1"></path><path clip-path="url(#clip870)" d="M1055.65 14.0809 L1055.65 22.0612 Q1051 19.8332 1046.86 18.7395 Q1042.73 17.6457 1038.88 17.6457 Q1032.2 17.6457 1028.55 20.2383 Q1024.95 22.8309 1024.95 27.611 Q1024.95 31.6214 1027.34 33.6873 Q1029.77 35.7128 1036.49 36.9686 L1041.44 37.9813 Q1050.59 39.7232 1054.93 44.1387 Q1059.3 48.5136 1059.3 55.8863 Q1059.3 64.6767 1053.39 69.2137 Q1047.51 73.7508 1036.13 73.7508 Q1031.84 73.7508 1026.97 72.7785 Q1022.15 71.8063 1016.97 69.9024 L1016.97 61.4765 Q1021.95 64.2716 1026.73 65.6895 Q1031.51 67.1073 1036.13 67.1073 Q1043.14 67.1073 1046.95 64.3527 Q1050.75 61.598 1050.75 56.4939 Q1050.75 52.0379 1048 49.5264 Q1045.28 47.0148 1039.05 45.759 L1034.06 44.7868 Q1024.91 42.9639 1020.82 39.075 Q1016.73 35.1862 1016.73 28.2591 Q1016.73 20.2383 1022.36 15.6203 Q1028.03 11.0023 1037.95 11.0023 Q1042.21 11.0023 1046.62 11.7719 Q1051.04 12.5416 1055.65 14.0809 Z" fill="#000000" fill-rule="nonzero" fill-opacity="1"></path><path clip-path="url(#clip870)" d="M1109.45 45.1919 L1109.45 72.576 L1102 72.576 L1102 45.4349 Q1102 38.994 1099.49 35.7938 Q1096.97 32.5936 1091.95 32.5936 Q1085.92 32.5936 1082.43 36.4419 Q1078.95 40.2903 1078.95 46.9338 L1078.95 72.576 L1071.45 72.576 L1071.45 9.54393 L1078.95 9.54393 L1078.95 34.2544 Q1081.62 30.163 1085.23 28.1376 Q1088.87 26.1121 1093.61 26.1121 Q1101.43 26.1121 1105.44 30.9732 Q1109.45 35.7938 1109.45 45.1919 Z" fill="#000000" fill-rule="nonzero" fill-opacity="1"></path><path clip-path="url(#clip870)" d="M1163.13 48.0275 L1163.13 51.6733 L1128.85 51.6733 Q1129.34 59.3701 1133.47 63.421 Q1137.65 67.4314 1145.06 67.4314 Q1149.35 67.4314 1153.36 66.3781 Q1157.41 65.3249 1161.38 63.2184 L1161.38 70.267 Q1157.37 71.9684 1153.16 72.8596 Q1148.95 73.7508 1144.61 73.7508 Q1133.76 73.7508 1127.4 67.4314 Q1121.08 61.1119 1121.08 50.3365 Q1121.08 39.1965 1127.07 32.6746 Q1133.11 26.1121 1143.32 26.1121 Q1152.47 26.1121 1157.78 32.0264 Q1163.13 37.9003 1163.13 48.0275 M1155.67 45.84 Q1155.59 39.7232 1152.23 36.0774 Q1148.91 32.4315 1143.4 32.4315 Q1137.16 32.4315 1133.39 35.9558 Q1129.66 39.4801 1129.1 45.8805 L1155.67 45.84 Z" fill="#000000" fill-rule="nonzero" fill-opacity="1"></path><path clip-path="url(#clip870)" d="M1195.98 49.7694 Q1186.94 49.7694 1183.46 51.8354 Q1179.98 53.9013 1179.98 58.8839 Q1179.98 62.8538 1182.57 65.2034 Q1185.2 67.5124 1189.7 67.5124 Q1195.9 67.5124 1199.62 63.1374 Q1203.39 58.7219 1203.39 51.4303 L1203.39 49.7694 L1195.98 49.7694 M1210.84 46.6907 L1210.84 72.576 L1203.39 72.576 L1203.39 65.6895 Q1200.84 69.8214 1197.03 71.8063 Q1193.22 73.7508 1187.71 73.7508 Q1180.75 73.7508 1176.61 69.8619 Q1172.52 65.9325 1172.52 59.3701 Q1172.52 51.7138 1177.63 47.825 Q1182.77 43.9361 1192.94 43.9361 L1203.39 43.9361 L1203.39 43.2069 Q1203.39 38.0623 1199.99 35.2672 Q1196.63 32.4315 1190.51 32.4315 Q1186.62 32.4315 1182.93 33.3632 Q1179.25 34.295 1175.85 36.1584 L1175.85 29.2718 Q1179.94 27.692 1183.78 26.9223 Q1187.63 26.1121 1191.28 26.1121 Q1201.12 26.1121 1205.98 31.2163 Q1210.84 36.3204 1210.84 46.6907 Z" fill="#000000" fill-rule="nonzero" fill-opacity="1"></path><path clip-path="url(#clip870)" d="M1252.49 34.1734 Q1251.23 33.4443 1249.73 33.1202 Q1248.28 32.7556 1246.49 32.7556 Q1240.17 32.7556 1236.77 36.8875 Q1233.41 40.9789 1233.41 48.6757 L1233.41 72.576 L1225.91 72.576 L1225.91 27.2059 L1233.41 27.2059 L1233.41 34.2544 Q1235.76 30.1225 1239.53 28.1376 Q1243.29 26.1121 1248.68 26.1121 Q1249.45 26.1121 1250.38 26.2337 Q1251.31 26.3147 1252.45 26.5172 L1252.49 34.1734 Z" fill="#000000" fill-rule="nonzero" fill-opacity="1"></path><path clip-path="url(#clip870)" d="M1287 12.096 L1295.18 12.096 L1295.18 65.6895 L1324.63 65.6895 L1324.63 72.576 L1287 72.576 L1287 12.096 Z" fill="#000000" fill-rule="nonzero" fill-opacity="1"></path><path clip-path="url(#clip870)" d="M1349.02 32.4315 Q1343.03 32.4315 1339.54 37.1306 Q1336.06 41.7891 1336.06 49.9314 Q1336.06 58.0738 1339.5 62.7728 Q1342.99 67.4314 1349.02 67.4314 Q1354.98 67.4314 1358.46 62.7323 Q1361.94 58.0333 1361.94 49.9314 Q1361.94 41.8701 1358.46 37.1711 Q1354.98 32.4315 1349.02 32.4315 M1349.02 26.1121 Q1358.74 26.1121 1364.29 32.4315 Q1369.84 38.7509 1369.84 49.9314 Q1369.84 61.0714 1364.29 67.4314 Q1358.74 73.7508 1349.02 73.7508 Q1339.26 73.7508 1333.71 67.4314 Q1328.2 61.0714 1328.2 49.9314 Q1328.2 38.7509 1333.71 32.4315 Q1339.26 26.1121 1349.02 26.1121 Z" fill="#000000" fill-rule="nonzero" fill-opacity="1"></path><path clip-path="url(#clip870)" d="M1414.85 28.9478 L1414.85 35.9153 Q1411.69 34.1734 1408.49 33.3227 Q1405.33 32.4315 1402.09 32.4315 Q1394.84 32.4315 1390.83 37.0496 Q1386.82 41.6271 1386.82 49.9314 Q1386.82 58.2358 1390.83 62.8538 Q1394.84 67.4314 1402.09 67.4314 Q1405.33 67.4314 1408.49 66.5807 Q1411.69 65.6895 1414.85 63.9476 L1414.85 70.8341 Q1411.73 72.2924 1408.37 73.0216 Q1405.05 73.7508 1401.28 73.7508 Q1391.03 73.7508 1384.99 67.3098 Q1378.96 60.8689 1378.96 49.9314 Q1378.96 38.832 1385.03 32.472 Q1391.15 26.1121 1401.76 26.1121 Q1405.21 26.1121 1408.49 26.8413 Q1411.77 27.5299 1414.85 28.9478 Z" fill="#000000" fill-rule="nonzero" fill-opacity="1"></path><path clip-path="url(#clip870)" d="M1427.53 9.54393 L1435.02 9.54393 L1435.02 46.7717 L1457.26 27.2059 L1466.78 27.2059 L1442.72 48.4326 L1467.79 72.576 L1458.07 72.576 L1435.02 50.4176 L1435.02 72.576 L1427.53 72.576 L1427.53 9.54393 Z" fill="#000000" fill-rule="nonzero" fill-opacity="1"></path><path clip-path="url(#clip870)" d="M1475.86 27.2059 L1483.31 27.2059 L1483.31 72.576 L1475.86 72.576 L1475.86 27.2059 M1475.86 9.54393 L1483.31 9.54393 L1483.31 18.9825 L1475.86 18.9825 L1475.86 9.54393 Z" fill="#000000" fill-rule="nonzero" fill-opacity="1"></path><path clip-path="url(#clip870)" d="M1536.62 45.1919 L1536.62 72.576 L1529.16 72.576 L1529.16 45.4349 Q1529.16 38.994 1526.65 35.7938 Q1524.14 32.5936 1519.12 32.5936 Q1513.08 32.5936 1509.6 36.4419 Q1506.12 40.2903 1506.12 46.9338 L1506.12 72.576 L1498.62 72.576 L1498.62 27.2059 L1506.12 27.2059 L1506.12 34.2544 Q1508.79 30.163 1512.39 28.1376 Q1516.04 26.1121 1520.78 26.1121 Q1528.6 26.1121 1532.61 30.9732 Q1536.62 35.7938 1536.62 45.1919 Z" fill="#000000" fill-rule="nonzero" fill-opacity="1"></path><path clip-path="url(#clip870)" d="M1581.34 49.3643 Q1581.34 41.2625 1577.98 36.8065 Q1574.66 32.3505 1568.62 32.3505 Q1562.63 32.3505 1559.26 36.8065 Q1555.94 41.2625 1555.94 49.3643 Q1555.94 57.4256 1559.26 61.8816 Q1562.63 66.3376 1568.62 66.3376 Q1574.66 66.3376 1577.98 61.8816 Q1581.34 57.4256 1581.34 49.3643 M1588.79 66.9452 Q1588.79 78.5308 1583.65 84.1616 Q1578.5 89.8329 1567.89 89.8329 Q1563.96 89.8329 1560.48 89.2252 Q1556.99 88.6581 1553.71 87.4428 L1553.71 80.1917 Q1556.99 81.9741 1560.19 82.8248 Q1563.4 83.6755 1566.72 83.6755 Q1574.05 83.6755 1577.69 79.8271 Q1581.34 76.0193 1581.34 68.282 L1581.34 64.5957 Q1579.03 68.6061 1575.43 70.5911 Q1571.82 72.576 1566.8 72.576 Q1558.45 72.576 1553.35 66.2161 Q1548.24 59.8562 1548.24 49.3643 Q1548.24 38.832 1553.35 32.472 Q1558.45 26.1121 1566.8 26.1121 Q1571.82 26.1121 1575.43 28.0971 Q1579.03 30.082 1581.34 34.0924 L1581.34 27.2059 L1588.79 27.2059 L1588.79 66.9452 Z" fill="#000000" fill-rule="nonzero" fill-opacity="1"></path><polyline clip-path="url(#clip872)" style="stroke:#009af9; stroke-linecap:round; stroke-linejoin:round; stroke-width:4; stroke-opacity:1; fill:none" points="2293.32,164.109 2095.21,181.334 1897.1,220.429 1698.98,306.794 1500.87,436.63 1302.76,586.463 1104.65,742.46 906.535,900.09 708.423,1058.14 510.31,1216.28 312.198,1374.46 "></polyline>
<circle clip-path="url(#clip872)" cx="2293.32" cy="164.109" r="14.4" fill="#009af9" fill-rule="evenodd" fill-opacity="1" stroke="#000000" stroke-opacity="1" stroke-width="3.2"></circle>
<circle clip-path="url(#clip872)" cx="2095.21" cy="181.334" r="14.4" fill="#009af9" fill-rule="evenodd" fill-opacity="1" stroke="#000000" stroke-opacity="1" stroke-width="3.2"></circle>
<circle clip-path="url(#clip872)" cx="1897.1" cy="220.429" r="14.4" fill="#009af9" fill-rule="evenodd" fill-opacity="1" stroke="#000000" stroke-opacity="1" stroke-width="3.2"></circle>
<circle clip-path="url(#clip872)" cx="1698.98" cy="306.794" r="14.4" fill="#009af9" fill-rule="evenodd" fill-opacity="1" stroke="#000000" stroke-opacity="1" stroke-width="3.2"></circle>
<circle clip-path="url(#clip872)" cx="1500.87" cy="436.63" r="14.4" fill="#009af9" fill-rule="evenodd" fill-opacity="1" stroke="#000000" stroke-opacity="1" stroke-width="3.2"></circle>
<circle clip-path="url(#clip872)" cx="1302.76" cy="586.463" r="14.4" fill="#009af9" fill-rule="evenodd" fill-opacity="1" stroke="#000000" stroke-opacity="1" stroke-width="3.2"></circle>
<circle clip-path="url(#clip872)" cx="1104.65" cy="742.46" r="14.4" fill="#009af9" fill-rule="evenodd" fill-opacity="1" stroke="#000000" stroke-opacity="1" stroke-width="3.2"></circle>
<circle clip-path="url(#clip872)" cx="906.535" cy="900.09" r="14.4" fill="#009af9" fill-rule="evenodd" fill-opacity="1" stroke="#000000" stroke-opacity="1" stroke-width="3.2"></circle>
<circle clip-path="url(#clip872)" cx="708.423" cy="1058.14" r="14.4" fill="#009af9" fill-rule="evenodd" fill-opacity="1" stroke="#000000" stroke-opacity="1" stroke-width="3.2"></circle>
<circle clip-path="url(#clip872)" cx="510.31" cy="1216.28" r="14.4" fill="#009af9" fill-rule="evenodd" fill-opacity="1" stroke="#000000" stroke-opacity="1" stroke-width="3.2"></circle>
<circle clip-path="url(#clip872)" cx="312.198" cy="1374.46" r="14.4" fill="#009af9" fill-rule="evenodd" fill-opacity="1" stroke="#000000" stroke-opacity="1" stroke-width="3.2"></circle>
<polyline clip-path="url(#clip872)" style="stroke:#000000; stroke-linecap:round; stroke-linejoin:round; stroke-width:4; stroke-opacity:1; fill:none" stroke-dasharray="16, 10" points="2293.32,167.273 2095.21,167.273 1897.1,167.273 1698.98,167.273 1500.87,167.273 1302.76,167.273 1104.65,167.273 906.535,167.273 708.423,167.273 510.31,167.273 312.198,167.273 "></polyline>
<polyline clip-path="url(#clip872)" style="stroke:#3da44d; stroke-linecap:round; stroke-linejoin:round; stroke-width:4; stroke-opacity:1; fill:none" points="2293.32,160.176 2095.21,165.668 1897.1,167.083 1698.98,167.439 1500.87,167.529 1302.76,167.551 1104.65,167.557 906.535,167.558 708.423,167.558 510.31,167.558 312.198,167.558 "></polyline>
<path clip-path="url(#clip872)" d="M2277.32 144.176 L2277.32 176.176 L2309.32 176.176 L2309.32 144.176 L2277.32 144.176 Z" fill="#3da44d" fill-rule="evenodd" fill-opacity="1" stroke="#000000" stroke-opacity="1" stroke-width="3.2"></path>
<path clip-path="url(#clip872)" d="M2079.21 149.668 L2079.21 181.668 L2111.21 181.668 L2111.21 149.668 L2079.21 149.668 Z" fill="#3da44d" fill-rule="evenodd" fill-opacity="1" stroke="#000000" stroke-opacity="1" stroke-width="3.2"></path>
<path clip-path="url(#clip872)" d="M1881.1 151.083 L1881.1 183.083 L1913.1 183.083 L1913.1 151.083 L1881.1 151.083 Z" fill="#3da44d" fill-rule="evenodd" fill-opacity="1" stroke="#000000" stroke-opacity="1" stroke-width="3.2"></path>
<path clip-path="url(#clip872)" d="M1682.98 151.439 L1682.98 183.439 L1714.98 183.439 L1714.98 151.439 L1682.98 151.439 Z" fill="#3da44d" fill-rule="evenodd" fill-opacity="1" stroke="#000000" stroke-opacity="1" stroke-width="3.2"></path>
<path clip-path="url(#clip872)" d="M1484.87 151.529 L1484.87 183.529 L1516.87 183.529 L1516.87 151.529 L1484.87 151.529 Z" fill="#3da44d" fill-rule="evenodd" fill-opacity="1" stroke="#000000" stroke-opacity="1" stroke-width="3.2"></path>
<path clip-path="url(#clip872)" d="M1286.76 151.551 L1286.76 183.551 L1318.76 183.551 L1318.76 151.551 L1286.76 151.551 Z" fill="#3da44d" fill-rule="evenodd" fill-opacity="1" stroke="#000000" stroke-opacity="1" stroke-width="3.2"></path>
<path clip-path="url(#clip872)" d="M1088.65 151.557 L1088.65 183.557 L1120.65 183.557 L1120.65 151.557 L1088.65 151.557 Z" fill="#3da44d" fill-rule="evenodd" fill-opacity="1" stroke="#000000" stroke-opacity="1" stroke-width="3.2"></path>
<path clip-path="url(#clip872)" d="M890.535 151.558 L890.535 183.558 L922.535 183.558 L922.535 151.558 L890.535 151.558 Z" fill="#3da44d" fill-rule="evenodd" fill-opacity="1" stroke="#000000" stroke-opacity="1" stroke-width="3.2"></path>
<path clip-path="url(#clip872)" d="M692.423 151.558 L692.423 183.558 L724.423 183.558 L724.423 151.558 L692.423 151.558 Z" fill="#3da44d" fill-rule="evenodd" fill-opacity="1" stroke="#000000" stroke-opacity="1" stroke-width="3.2"></path>
<path clip-path="url(#clip872)" d="M494.31 151.558 L494.31 183.558 L526.31 183.558 L526.31 151.558 L494.31 151.558 Z" fill="#3da44d" fill-rule="evenodd" fill-opacity="1" stroke="#000000" stroke-opacity="1" stroke-width="3.2"></path>
<path clip-path="url(#clip872)" d="M296.198 151.558 L296.198 183.558 L328.198 183.558 L328.198 151.558 L296.198 151.558 Z" fill="#3da44d" fill-rule="evenodd" fill-opacity="1" stroke="#000000" stroke-opacity="1" stroke-width="3.2"></path>
<polyline clip-path="url(#clip872)" style="stroke:#c271d2; stroke-linecap:round; stroke-linejoin:round; stroke-width:4; stroke-opacity:1; fill:none" points="2293.32,160.176 2095.21,165.668 1897.1,167.083 1698.98,167.439 1500.87,167.529 1302.76,167.551 1104.65,167.557 906.535,167.558 708.423,167.558 510.31,167.558 312.198,167.558 "></polyline>
<path clip-path="url(#clip872)" d="M2293.32 144.176 L2277.32 160.176 L2293.32 176.176 L2309.32 160.176 L2293.32 144.176 Z" fill="#c271d2" fill-rule="evenodd" fill-opacity="1" stroke="#000000" stroke-opacity="1" stroke-width="3.2"></path>
<path clip-path="url(#clip872)" d="M2095.21 149.668 L2079.21 165.668 L2095.21 181.668 L2111.21 165.668 L2095.21 149.668 Z" fill="#c271d2" fill-rule="evenodd" fill-opacity="1" stroke="#000000" stroke-opacity="1" stroke-width="3.2"></path>
<path clip-path="url(#clip872)" d="M1897.1 151.083 L1881.1 167.083 L1897.1 183.083 L1913.1 167.083 L1897.1 151.083 Z" fill="#c271d2" fill-rule="evenodd" fill-opacity="1" stroke="#000000" stroke-opacity="1" stroke-width="3.2"></path>
<path clip-path="url(#clip872)" d="M1698.98 151.439 L1682.98 167.439 L1698.98 183.439 L1714.98 167.439 L1698.98 151.439 Z" fill="#c271d2" fill-rule="evenodd" fill-opacity="1" stroke="#000000" stroke-opacity="1" stroke-width="3.2"></path>
<path clip-path="url(#clip872)" d="M1500.87 151.529 L1484.87 167.529 L1500.87 183.529 L1516.87 167.529 L1500.87 151.529 Z" fill="#c271d2" fill-rule="evenodd" fill-opacity="1" stroke="#000000" stroke-opacity="1" stroke-width="3.2"></path>
<path clip-path="url(#clip872)" d="M1302.76 151.551 L1286.76 167.551 L1302.76 183.551 L1318.76 167.551 L1302.76 151.551 Z" fill="#c271d2" fill-rule="evenodd" fill-opacity="1" stroke="#000000" stroke-opacity="1" stroke-width="3.2"></path>
<path clip-path="url(#clip872)" d="M1104.65 151.557 L1088.65 167.557 L1104.65 183.557 L1120.65 167.557 L1104.65 151.557 Z" fill="#c271d2" fill-rule="evenodd" fill-opacity="1" stroke="#000000" stroke-opacity="1" stroke-width="3.2"></path>
<path clip-path="url(#clip872)" d="M906.535 151.558 L890.535 167.558 L906.535 183.558 L922.535 167.558 L906.535 151.558 Z" fill="#c271d2" fill-rule="evenodd" fill-opacity="1" stroke="#000000" stroke-opacity="1" stroke-width="3.2"></path>
<path clip-path="url(#clip872)" d="M708.423 151.558 L692.423 167.558 L708.423 183.558 L724.423 167.558 L708.423 151.558 Z" fill="#c271d2" fill-rule="evenodd" fill-opacity="1" stroke="#000000" stroke-opacity="1" stroke-width="3.2"></path>
<path clip-path="url(#clip872)" d="M510.31 151.558 L494.31 167.558 L510.31 183.558 L526.31 167.558 L510.31 151.558 Z" fill="#c271d2" fill-rule="evenodd" fill-opacity="1" stroke="#000000" stroke-opacity="1" stroke-width="3.2"></path>
<path clip-path="url(#clip872)" d="M312.198 151.558 L296.198 167.558 L312.198 183.558 L328.198 167.558 L312.198 151.558 Z" fill="#c271d2" fill-rule="evenodd" fill-opacity="1" stroke="#000000" stroke-opacity="1" stroke-width="3.2"></path>
<polyline clip-path="url(#clip872)" style="stroke:#ac8d18; stroke-linecap:round; stroke-linejoin:round; stroke-width:4; stroke-opacity:1; fill:none" points="2293.32,159.909 2095.21,165.387 1897.1,166.798 1698.98,167.154 1500.87,167.243 1302.76,167.265 1104.65,167.271 906.535,167.272 708.423,167.273 510.31,167.273 312.198,167.273 "></polyline>
<path clip-path="url(#clip872)" d="M2293.32 143.909 L2277.32 175.909 L2309.32 175.909 L2293.32 143.909 Z" fill="#ac8d18" fill-rule="evenodd" fill-opacity="1" stroke="#000000" stroke-opacity="1" stroke-width="3.2"></path>
<path clip-path="url(#clip872)" d="M2095.21 149.387 L2079.21 181.387 L2111.21 181.387 L2095.21 149.387 Z" fill="#ac8d18" fill-rule="evenodd" fill-opacity="1" stroke="#000000" stroke-opacity="1" stroke-width="3.2"></path>
<path clip-path="url(#clip872)" d="M1897.1 150.798 L1881.1 182.798 L1913.1 182.798 L1897.1 150.798 Z" fill="#ac8d18" fill-rule="evenodd" fill-opacity="1" stroke="#000000" stroke-opacity="1" stroke-width="3.2"></path>
<path clip-path="url(#clip872)" d="M1698.98 151.154 L1682.98 183.154 L1714.98 183.154 L1698.98 151.154 Z" fill="#ac8d18" fill-rule="evenodd" fill-opacity="1" stroke="#000000" stroke-opacity="1" stroke-width="3.2"></path>
<path clip-path="url(#clip872)" d="M1500.87 151.243 L1484.87 183.243 L1516.87 183.243 L1500.87 151.243 Z" fill="#ac8d18" fill-rule="evenodd" fill-opacity="1" stroke="#000000" stroke-opacity="1" stroke-width="3.2"></path>
<path clip-path="url(#clip872)" d="M1302.76 151.265 L1286.76 183.265 L1318.76 183.265 L1302.76 151.265 Z" fill="#ac8d18" fill-rule="evenodd" fill-opacity="1" stroke="#000000" stroke-opacity="1" stroke-width="3.2"></path>
<path clip-path="url(#clip872)" d="M1104.65 151.271 L1088.65 183.271 L1120.65 183.271 L1104.65 151.271 Z" fill="#ac8d18" fill-rule="evenodd" fill-opacity="1" stroke="#000000" stroke-opacity="1" stroke-width="3.2"></path>
<path clip-path="url(#clip872)" d="M906.535 151.272 L890.535 183.272 L922.535 183.272 L906.535 151.272 Z" fill="#ac8d18" fill-rule="evenodd" fill-opacity="1" stroke="#000000" stroke-opacity="1" stroke-width="3.2"></path>
<path clip-path="url(#clip872)" d="M708.423 151.273 L692.423 183.273 L724.423 183.273 L708.423 151.273 Z" fill="#ac8d18" fill-rule="evenodd" fill-opacity="1" stroke="#000000" stroke-opacity="1" stroke-width="3.2"></path>
<path clip-path="url(#clip872)" d="M510.31 151.273 L494.31 183.273 L526.31 183.273 L510.31 151.273 Z" fill="#ac8d18" fill-rule="evenodd" fill-opacity="1" stroke="#000000" stroke-opacity="1" stroke-width="3.2"></path>
<path clip-path="url(#clip872)" d="M312.198 151.273 L296.198 183.273 L328.198 183.273 L312.198 151.273 Z" fill="#ac8d18" fill-rule="evenodd" fill-opacity="1" stroke="#000000" stroke-opacity="1" stroke-width="3.2"></path>
<path clip-path="url(#clip870)" d="M1712.16 1367.98 L2282.76 1367.98 L2282.76 1108.78 L1712.16 1108.78  Z" fill="#ffffff" fill-rule="evenodd" fill-opacity="1"></path>
<polyline clip-path="url(#clip870)" style="stroke:#000000; stroke-linecap:round; stroke-linejoin:round; stroke-width:4; stroke-opacity:1; fill:none" points="1712.16,1367.98 2282.76,1367.98 2282.76,1108.78 1712.16,1108.78 1712.16,1367.98 "></polyline>
<polyline clip-path="url(#clip870)" style="stroke:#009af9; stroke-linecap:round; stroke-linejoin:round; stroke-width:4; stroke-opacity:1; fill:none" points="1735.49,1160.62 1875.49,1160.62 "></polyline>
<circle clip-path="url(#clip870)" cx="1805.49" cy="1160.62" r="19.4444" fill="#009af9" fill-rule="evenodd" fill-opacity="1" stroke="#000000" stroke-opacity="1" stroke-width="4.55111"></circle>
<path clip-path="url(#clip870)" d="M1924.38 1172.97 L1924.38 1163.69 L1916.74 1163.69 L1916.74 1159.85 L1929.01 1159.85 L1929.01 1174.68 Q1926.3 1176.61 1923.04 1177.6 Q1919.77 1178.57 1916.07 1178.57 Q1907.97 1178.57 1903.38 1173.85 Q1898.82 1169.11 1898.82 1160.66 Q1898.82 1152.19 1903.38 1147.46 Q1907.97 1142.72 1916.07 1142.72 Q1919.45 1142.72 1922.48 1143.55 Q1925.54 1144.38 1928.11 1146 L1928.11 1150.98 Q1925.51 1148.78 1922.6 1147.67 Q1919.68 1146.56 1916.46 1146.56 Q1910.12 1146.56 1906.92 1150.1 Q1903.75 1153.64 1903.75 1160.66 Q1903.75 1167.65 1906.92 1171.19 Q1910.12 1174.73 1916.46 1174.73 Q1918.94 1174.73 1920.88 1174.31 Q1922.83 1173.87 1924.38 1172.97 Z" fill="#000000" fill-rule="nonzero" fill-opacity="1"></path><path clip-path="url(#clip870)" d="M1949.15 1164.87 Q1943.98 1164.87 1941.99 1166.05 Q1940 1167.23 1940 1170.08 Q1940 1172.35 1941.48 1173.69 Q1942.99 1175.01 1945.56 1175.01 Q1949.1 1175.01 1951.23 1172.51 Q1953.38 1169.99 1953.38 1165.82 L1953.38 1164.87 L1949.15 1164.87 M1957.64 1163.11 L1957.64 1177.9 L1953.38 1177.9 L1953.38 1173.97 Q1951.92 1176.33 1949.75 1177.46 Q1947.57 1178.57 1944.42 1178.57 Q1940.44 1178.57 1938.08 1176.35 Q1935.74 1174.11 1935.74 1170.36 Q1935.74 1165.98 1938.66 1163.76 Q1941.6 1161.54 1947.41 1161.54 L1953.38 1161.54 L1953.38 1161.12 Q1953.38 1158.18 1951.44 1156.58 Q1949.52 1154.96 1946.02 1154.96 Q1943.8 1154.96 1941.69 1155.5 Q1939.59 1156.03 1937.64 1157.09 L1937.64 1153.16 Q1939.98 1152.25 1942.18 1151.81 Q1944.38 1151.35 1946.46 1151.35 Q1952.09 1151.35 1954.86 1154.27 Q1957.64 1157.19 1957.64 1163.11 Z" fill="#000000" fill-rule="nonzero" fill-opacity="1"></path><path clip-path="url(#clip870)" d="M1966.42 1141.88 L1970.67 1141.88 L1970.67 1177.9 L1966.42 1177.9 L1966.42 1141.88 Z" fill="#000000" fill-rule="nonzero" fill-opacity="1"></path><path clip-path="url(#clip870)" d="M2001.76 1163.87 L2001.76 1165.96 L1982.18 1165.96 Q1982.46 1170.36 1984.82 1172.67 Q1987.2 1174.96 1991.44 1174.96 Q1993.89 1174.96 1996.18 1174.36 Q1998.5 1173.76 2000.77 1172.56 L2000.77 1176.58 Q1998.48 1177.56 1996.07 1178.06 Q1993.66 1178.57 1991.18 1178.57 Q1984.98 1178.57 1981.35 1174.96 Q1977.73 1171.35 1977.73 1165.19 Q1977.73 1158.83 1981.16 1155.1 Q1984.61 1151.35 1990.44 1151.35 Q1995.67 1151.35 1998.71 1154.73 Q2001.76 1158.09 2001.76 1163.87 M1997.5 1162.62 Q1997.46 1159.13 1995.54 1157.05 Q1993.64 1154.96 1990.49 1154.96 Q1986.92 1154.96 1984.77 1156.98 Q1982.64 1158.99 1982.32 1162.65 L1997.5 1162.62 Z" fill="#000000" fill-rule="nonzero" fill-opacity="1"></path><path clip-path="url(#clip870)" d="M2023.78 1155.96 Q2023.06 1155.54 2022.2 1155.36 Q2021.37 1155.15 2020.35 1155.15 Q2016.74 1155.15 2014.79 1157.51 Q2012.87 1159.85 2012.87 1164.25 L2012.87 1177.9 L2008.59 1177.9 L2008.59 1151.98 L2012.87 1151.98 L2012.87 1156 Q2014.22 1153.64 2016.37 1152.51 Q2018.52 1151.35 2021.6 1151.35 Q2022.04 1151.35 2022.57 1151.42 Q2023.1 1151.47 2023.75 1151.58 L2023.78 1155.96 Z" fill="#000000" fill-rule="nonzero" fill-opacity="1"></path><path clip-path="url(#clip870)" d="M2028.08 1141.88 L2032.36 1141.88 L2032.36 1163.16 L2045.07 1151.98 L2050.51 1151.98 L2036.76 1164.11 L2051.09 1177.9 L2045.54 1177.9 L2032.36 1165.24 L2032.36 1177.9 L2028.08 1177.9 L2028.08 1141.88 Z" fill="#000000" fill-rule="nonzero" fill-opacity="1"></path><path clip-path="url(#clip870)" d="M2055.7 1151.98 L2059.96 1151.98 L2059.96 1177.9 L2055.7 1177.9 L2055.7 1151.98 M2055.7 1141.88 L2059.96 1141.88 L2059.96 1147.28 L2055.7 1147.28 L2055.7 1141.88 Z" fill="#000000" fill-rule="nonzero" fill-opacity="1"></path><path clip-path="url(#clip870)" d="M2090.42 1162.25 L2090.42 1177.9 L2086.16 1177.9 L2086.16 1162.39 Q2086.16 1158.71 2084.72 1156.88 Q2083.29 1155.06 2080.42 1155.06 Q2076.97 1155.06 2074.98 1157.25 Q2072.99 1159.45 2072.99 1163.25 L2072.99 1177.9 L2068.71 1177.9 L2068.71 1151.98 L2072.99 1151.98 L2072.99 1156 Q2074.52 1153.67 2076.58 1152.51 Q2078.66 1151.35 2081.37 1151.35 Q2085.84 1151.35 2088.13 1154.13 Q2090.42 1156.88 2090.42 1162.25 Z" fill="#000000" fill-rule="nonzero" fill-opacity="1"></path><polyline clip-path="url(#clip870)" style="stroke:#3da44d; stroke-linecap:round; stroke-linejoin:round; stroke-width:4; stroke-opacity:1; fill:none" points="1735.49,1212.46 1875.49,1212.46 "></polyline>
<path clip-path="url(#clip870)" d="M1783.89 1190.86 L1783.89 1234.07 L1827.09 1234.07 L1827.09 1190.86 L1783.89 1190.86 Z" fill="#3da44d" fill-rule="evenodd" fill-opacity="1" stroke="#000000" stroke-opacity="1" stroke-width="4.55111"></path>
<path clip-path="url(#clip870)" d="M1921.07 1196.32 L1921.07 1200.88 Q1918.41 1199.6 1916.05 1198.98 Q1913.68 1198.35 1911.48 1198.35 Q1907.67 1198.35 1905.58 1199.84 Q1903.52 1201.32 1903.52 1204.05 Q1903.52 1206.34 1904.89 1207.52 Q1906.28 1208.68 1910.12 1209.4 L1912.94 1209.97 Q1918.17 1210.97 1920.65 1213.49 Q1923.15 1215.99 1923.15 1220.21 Q1923.15 1225.23 1919.77 1227.82 Q1916.42 1230.41 1909.91 1230.41 Q1907.46 1230.41 1904.68 1229.86 Q1901.92 1229.3 1898.96 1228.21 L1898.96 1223.4 Q1901.81 1225 1904.54 1225.81 Q1907.27 1226.62 1909.91 1226.62 Q1913.92 1226.62 1916.09 1225.04 Q1918.27 1223.47 1918.27 1220.55 Q1918.27 1218.01 1916.69 1216.57 Q1915.14 1215.14 1911.58 1214.42 L1908.73 1213.86 Q1903.5 1212.82 1901.16 1210.6 Q1898.82 1208.38 1898.82 1204.42 Q1898.82 1199.84 1902.04 1197.2 Q1905.28 1194.56 1910.95 1194.56 Q1913.38 1194.56 1915.91 1195 Q1918.43 1195.44 1921.07 1196.32 Z" fill="#000000" fill-rule="nonzero" fill-opacity="1"></path><path clip-path="url(#clip870)" d="M1929.82 1219.51 L1929.82 1203.82 L1934.08 1203.82 L1934.08 1219.35 Q1934.08 1223.03 1935.51 1224.88 Q1936.95 1226.71 1939.82 1226.71 Q1943.27 1226.71 1945.26 1224.51 Q1947.27 1222.31 1947.27 1218.52 L1947.27 1203.82 L1951.53 1203.82 L1951.53 1229.74 L1947.27 1229.74 L1947.27 1225.76 Q1945.72 1228.12 1943.66 1229.28 Q1941.62 1230.41 1938.92 1230.41 Q1934.45 1230.41 1932.13 1227.64 Q1929.82 1224.86 1929.82 1219.51 M1940.54 1203.19 L1940.54 1203.19 Z" fill="#000000" fill-rule="nonzero" fill-opacity="1"></path><path clip-path="url(#clip870)" d="M1978.92 1216.8 Q1978.92 1212.1 1976.97 1209.44 Q1975.05 1206.76 1971.67 1206.76 Q1968.29 1206.76 1966.35 1209.44 Q1964.42 1212.1 1964.42 1216.8 Q1964.42 1221.5 1966.35 1224.19 Q1968.29 1226.85 1971.67 1226.85 Q1975.05 1226.85 1976.97 1224.19 Q1978.92 1221.5 1978.92 1216.8 M1964.42 1207.75 Q1965.77 1205.44 1967.8 1204.33 Q1969.86 1203.19 1972.71 1203.19 Q1977.43 1203.19 1980.37 1206.94 Q1983.34 1210.69 1983.34 1216.8 Q1983.34 1222.91 1980.37 1226.66 Q1977.43 1230.41 1972.71 1230.41 Q1969.86 1230.41 1967.8 1229.3 Q1965.77 1228.17 1964.42 1225.85 L1964.42 1229.74 L1960.14 1229.74 L1960.14 1193.72 L1964.42 1193.72 L1964.42 1207.75 Z" fill="#000000" fill-rule="nonzero" fill-opacity="1"></path><path clip-path="url(#clip870)" d="M1988.24 1214.86 L2000.72 1214.86 L2000.72 1218.65 L1988.24 1218.65 L1988.24 1214.86 Z" fill="#000000" fill-rule="nonzero" fill-opacity="1"></path><path clip-path="url(#clip870)" d="M2007.5 1203.82 L2011.76 1203.82 L2011.76 1229.74 L2007.5 1229.74 L2007.5 1203.82 M2007.5 1193.72 L2011.76 1193.72 L2011.76 1199.12 L2007.5 1199.12 L2007.5 1193.72 Z" fill="#000000" fill-rule="nonzero" fill-opacity="1"></path><path clip-path="url(#clip870)" d="M2042.23 1214.09 L2042.23 1229.74 L2037.97 1229.74 L2037.97 1214.23 Q2037.97 1210.55 2036.53 1208.72 Q2035.1 1206.9 2032.23 1206.9 Q2028.78 1206.9 2026.79 1209.09 Q2024.79 1211.29 2024.79 1215.09 L2024.79 1229.74 L2020.51 1229.74 L2020.51 1203.82 L2024.79 1203.82 L2024.79 1207.84 Q2026.32 1205.51 2028.38 1204.35 Q2030.47 1203.19 2033.17 1203.19 Q2037.64 1203.19 2039.93 1205.97 Q2042.23 1208.72 2042.23 1214.09 Z" fill="#000000" fill-rule="nonzero" fill-opacity="1"></path><path clip-path="url(#clip870)" d="M2054.93 1196.46 L2054.93 1203.82 L2063.71 1203.82 L2063.71 1207.13 L2054.93 1207.13 L2054.93 1221.2 Q2054.93 1224.37 2055.79 1225.27 Q2056.67 1226.18 2059.33 1226.18 L2063.71 1226.18 L2063.71 1229.74 L2059.33 1229.74 Q2054.4 1229.74 2052.53 1227.91 Q2050.65 1226.06 2050.65 1221.2 L2050.65 1207.13 L2047.53 1207.13 L2047.53 1203.82 L2050.65 1203.82 L2050.65 1196.46 L2054.93 1196.46 Z" fill="#000000" fill-rule="nonzero" fill-opacity="1"></path><path clip-path="url(#clip870)" d="M2091.48 1215.71 L2091.48 1217.8 L2071.9 1217.8 Q2072.18 1222.2 2074.54 1224.51 Q2076.92 1226.8 2081.16 1226.8 Q2083.61 1226.8 2085.91 1226.2 Q2088.22 1225.6 2090.49 1224.4 L2090.49 1228.42 Q2088.2 1229.4 2085.79 1229.9 Q2083.38 1230.41 2080.91 1230.41 Q2074.7 1230.41 2071.07 1226.8 Q2067.46 1223.19 2067.46 1217.03 Q2067.46 1210.67 2070.88 1206.94 Q2074.33 1203.19 2080.16 1203.19 Q2085.4 1203.19 2088.43 1206.57 Q2091.48 1209.93 2091.48 1215.71 M2087.22 1214.46 Q2087.18 1210.97 2085.26 1208.89 Q2083.36 1206.8 2080.21 1206.8 Q2076.65 1206.8 2074.49 1208.82 Q2072.36 1210.83 2072.04 1214.49 L2087.22 1214.46 Z" fill="#000000" fill-rule="nonzero" fill-opacity="1"></path><path clip-path="url(#clip870)" d="M2115.53 1216.48 Q2115.53 1211.85 2113.61 1209.3 Q2111.72 1206.76 2108.27 1206.76 Q2104.84 1206.76 2102.92 1209.3 Q2101.02 1211.85 2101.02 1216.48 Q2101.02 1221.09 2102.92 1223.63 Q2104.84 1226.18 2108.27 1226.18 Q2111.72 1226.18 2113.61 1223.63 Q2115.53 1221.09 2115.53 1216.48 M2119.79 1226.52 Q2119.79 1233.15 2116.85 1236.36 Q2113.91 1239.6 2107.85 1239.6 Q2105.6 1239.6 2103.61 1239.26 Q2101.62 1238.93 2099.75 1238.24 L2099.75 1234.09 Q2101.62 1235.11 2103.45 1235.6 Q2105.28 1236.09 2107.18 1236.09 Q2111.37 1236.09 2113.45 1233.89 Q2115.53 1231.71 2115.53 1227.29 L2115.53 1225.18 Q2114.22 1227.47 2112.16 1228.61 Q2110.1 1229.74 2107.22 1229.74 Q2102.46 1229.74 2099.54 1226.11 Q2096.62 1222.47 2096.62 1216.48 Q2096.62 1210.46 2099.54 1206.83 Q2102.46 1203.19 2107.22 1203.19 Q2110.1 1203.19 2112.16 1204.33 Q2114.22 1205.46 2115.53 1207.75 L2115.53 1203.82 L2119.79 1203.82 L2119.79 1226.52 Z" fill="#000000" fill-rule="nonzero" fill-opacity="1"></path><path clip-path="url(#clip870)" d="M2143.59 1207.8 Q2142.87 1207.38 2142.02 1207.2 Q2141.18 1206.99 2140.16 1206.99 Q2136.55 1206.99 2134.61 1209.35 Q2132.69 1211.69 2132.69 1216.09 L2132.69 1229.74 L2128.41 1229.74 L2128.41 1203.82 L2132.69 1203.82 L2132.69 1207.84 Q2134.03 1205.48 2136.18 1204.35 Q2138.34 1203.19 2141.41 1203.19 Q2141.85 1203.19 2142.39 1203.26 Q2142.92 1203.31 2143.57 1203.42 L2143.59 1207.8 Z" fill="#000000" fill-rule="nonzero" fill-opacity="1"></path><path clip-path="url(#clip870)" d="M2159.84 1216.71 Q2154.68 1216.71 2152.69 1217.89 Q2150.7 1219.07 2150.7 1221.92 Q2150.7 1224.19 2152.18 1225.53 Q2153.68 1226.85 2156.25 1226.85 Q2159.79 1226.85 2161.92 1224.35 Q2164.08 1221.83 2164.08 1217.66 L2164.08 1216.71 L2159.84 1216.71 M2168.34 1214.95 L2168.34 1229.74 L2164.08 1229.74 L2164.08 1225.81 Q2162.62 1228.17 2160.44 1229.3 Q2158.27 1230.41 2155.12 1230.41 Q2151.14 1230.41 2148.78 1228.19 Q2146.44 1225.95 2146.44 1222.2 Q2146.44 1217.82 2149.35 1215.6 Q2152.29 1213.38 2158.1 1213.38 L2164.08 1213.38 L2164.08 1212.96 Q2164.08 1210.02 2162.13 1208.42 Q2160.21 1206.8 2156.72 1206.8 Q2154.49 1206.8 2152.39 1207.34 Q2150.28 1207.87 2148.34 1208.93 L2148.34 1205 Q2150.67 1204.09 2152.87 1203.65 Q2155.07 1203.19 2157.15 1203.19 Q2162.78 1203.19 2165.56 1206.11 Q2168.34 1209.03 2168.34 1214.95 Z" fill="#000000" fill-rule="nonzero" fill-opacity="1"></path><path clip-path="url(#clip870)" d="M2181.32 1196.46 L2181.32 1203.82 L2190.09 1203.82 L2190.09 1207.13 L2181.32 1207.13 L2181.32 1221.2 Q2181.32 1224.37 2182.18 1225.27 Q2183.06 1226.18 2185.72 1226.18 L2190.09 1226.18 L2190.09 1229.74 L2185.72 1229.74 Q2180.79 1229.74 2178.91 1227.91 Q2177.04 1226.06 2177.04 1221.2 L2177.04 1207.13 L2173.91 1207.13 L2173.91 1203.82 L2177.04 1203.82 L2177.04 1196.46 L2181.32 1196.46 Z" fill="#000000" fill-rule="nonzero" fill-opacity="1"></path><path clip-path="url(#clip870)" d="M2195.7 1203.82 L2199.96 1203.82 L2199.96 1229.74 L2195.7 1229.74 L2195.7 1203.82 M2195.7 1193.72 L2199.96 1193.72 L2199.96 1199.12 L2195.7 1199.12 L2195.7 1193.72 Z" fill="#000000" fill-rule="nonzero" fill-opacity="1"></path><path clip-path="url(#clip870)" d="M2218.91 1206.8 Q2215.49 1206.8 2213.5 1209.49 Q2211.51 1212.15 2211.51 1216.8 Q2211.51 1221.46 2213.47 1224.14 Q2215.46 1226.8 2218.91 1226.8 Q2222.32 1226.8 2224.31 1224.12 Q2226.3 1221.43 2226.3 1216.8 Q2226.3 1212.2 2224.31 1209.51 Q2222.32 1206.8 2218.91 1206.8 M2218.91 1203.19 Q2224.47 1203.19 2227.64 1206.8 Q2230.81 1210.41 2230.81 1216.8 Q2230.81 1223.17 2227.64 1226.8 Q2224.47 1230.41 2218.91 1230.41 Q2213.34 1230.41 2210.16 1226.8 Q2207.02 1223.17 2207.02 1216.8 Q2207.02 1210.41 2210.16 1206.8 Q2213.34 1203.19 2218.91 1203.19 Z" fill="#000000" fill-rule="nonzero" fill-opacity="1"></path><path clip-path="url(#clip870)" d="M2259.42 1214.09 L2259.42 1229.74 L2255.16 1229.74 L2255.16 1214.23 Q2255.16 1210.55 2253.73 1208.72 Q2252.29 1206.9 2249.42 1206.9 Q2245.97 1206.9 2243.98 1209.09 Q2241.99 1211.29 2241.99 1215.09 L2241.99 1229.74 L2237.71 1229.74 L2237.71 1203.82 L2241.99 1203.82 L2241.99 1207.84 Q2243.52 1205.51 2245.58 1204.35 Q2247.66 1203.19 2250.37 1203.19 Q2254.84 1203.19 2257.13 1205.97 Q2259.42 1208.72 2259.42 1214.09 Z" fill="#000000" fill-rule="nonzero" fill-opacity="1"></path><polyline clip-path="url(#clip870)" style="stroke:#c271d2; stroke-linecap:round; stroke-linejoin:round; stroke-width:4; stroke-opacity:1; fill:none" points="1735.49,1264.3 1875.49,1264.3 "></polyline>
<path clip-path="url(#clip870)" d="M1805.49 1242.7 L1783.89 1264.3 L1805.49 1285.91 L1827.09 1264.3 L1805.49 1242.7 Z" fill="#c271d2" fill-rule="evenodd" fill-opacity="1" stroke="#000000" stroke-opacity="1" stroke-width="4.55111"></path>
<path clip-path="url(#clip870)" d="M1914.84 1250.19 Q1909.75 1250.19 1906.74 1253.99 Q1903.75 1257.79 1903.75 1264.34 Q1903.75 1270.86 1906.74 1274.66 Q1909.75 1278.46 1914.84 1278.46 Q1919.93 1278.46 1922.9 1274.66 Q1925.88 1270.86 1925.88 1264.34 Q1925.88 1257.79 1922.9 1253.99 Q1919.93 1250.19 1914.84 1250.19 M1921.39 1280.96 L1927.55 1287.69 L1921.9 1287.69 L1916.79 1282.16 Q1916.02 1282.21 1915.61 1282.23 Q1915.21 1282.25 1914.84 1282.25 Q1907.55 1282.25 1903.17 1277.39 Q1898.82 1272.51 1898.82 1264.34 Q1898.82 1256.14 1903.17 1251.28 Q1907.55 1246.4 1914.84 1246.4 Q1922.11 1246.4 1926.46 1251.28 Q1930.81 1256.14 1930.81 1264.34 Q1930.81 1270.36 1928.38 1274.64 Q1925.98 1278.92 1921.39 1280.96 Z" fill="#000000" fill-rule="nonzero" fill-opacity="1"></path><path clip-path="url(#clip870)" d="M1942.57 1277.65 L1958.89 1277.65 L1958.89 1281.58 L1936.95 1281.58 L1936.95 1277.65 Q1939.61 1274.89 1944.19 1270.26 Q1948.8 1265.61 1949.98 1264.27 Q1952.23 1261.74 1953.11 1260.01 Q1954.01 1258.25 1954.01 1256.56 Q1954.01 1253.8 1952.06 1252.07 Q1950.14 1250.33 1947.04 1250.33 Q1944.84 1250.33 1942.39 1251.1 Q1939.96 1251.86 1937.18 1253.41 L1937.18 1248.69 Q1940 1247.55 1942.46 1246.98 Q1944.91 1246.4 1946.95 1246.4 Q1952.32 1246.4 1955.51 1249.08 Q1958.71 1251.77 1958.71 1256.26 Q1958.71 1258.39 1957.9 1260.31 Q1957.11 1262.21 1955 1264.8 Q1954.42 1265.47 1951.32 1268.69 Q1948.22 1271.88 1942.57 1277.65 Z" fill="#000000" fill-rule="nonzero" fill-opacity="1"></path><path clip-path="url(#clip870)" d="M1975.67 1247.02 L1979.61 1247.02 L1967.57 1285.98 L1963.64 1285.98 L1975.67 1247.02 Z" fill="#000000" fill-rule="nonzero" fill-opacity="1"></path><path clip-path="url(#clip870)" d="M1998.29 1250.19 Q1993.2 1250.19 1990.19 1253.99 Q1987.2 1257.79 1987.2 1264.34 Q1987.2 1270.86 1990.19 1274.66 Q1993.2 1278.46 1998.29 1278.46 Q2003.38 1278.46 2006.35 1274.66 Q2009.33 1270.86 2009.33 1264.34 Q2009.33 1257.79 2006.35 1253.99 Q2003.38 1250.19 1998.29 1250.19 M2004.84 1280.96 L2011 1287.69 L2005.35 1287.69 L2000.23 1282.16 Q1999.47 1282.21 1999.05 1282.23 Q1998.66 1282.25 1998.29 1282.25 Q1991 1282.25 1986.62 1277.39 Q1982.27 1272.51 1982.27 1264.34 Q1982.27 1256.14 1986.62 1251.28 Q1991 1246.4 1998.29 1246.4 Q2005.56 1246.4 2009.91 1251.28 Q2014.26 1256.14 2014.26 1264.34 Q2014.26 1270.36 2011.83 1274.64 Q2009.42 1278.92 2004.84 1280.96 Z" fill="#000000" fill-rule="nonzero" fill-opacity="1"></path><path clip-path="url(#clip870)" d="M2022.8 1277.65 L2030.44 1277.65 L2030.44 1251.28 L2022.13 1252.95 L2022.13 1248.69 L2030.4 1247.02 L2035.07 1247.02 L2035.07 1277.65 L2042.71 1277.65 L2042.71 1281.58 L2022.8 1281.58 L2022.8 1277.65 Z" fill="#000000" fill-rule="nonzero" fill-opacity="1"></path><polyline clip-path="url(#clip870)" style="stroke:#ac8d18; stroke-linecap:round; stroke-linejoin:round; stroke-width:4; stroke-opacity:1; fill:none" points="1735.49,1316.14 1875.49,1316.14 "></polyline>
<path clip-path="url(#clip870)" d="M1805.49 1294.54 L1783.89 1337.75 L1827.09 1337.75 L1805.49 1294.54 Z" fill="#ac8d18" fill-rule="evenodd" fill-opacity="1" stroke="#000000" stroke-opacity="1" stroke-width="4.55111"></path>
<path clip-path="url(#clip870)" d="M1921.07 1300 L1921.07 1304.56 Q1918.41 1303.28 1916.05 1302.66 Q1913.68 1302.03 1911.48 1302.03 Q1907.67 1302.03 1905.58 1303.52 Q1903.52 1305 1903.52 1307.73 Q1903.52 1310.02 1904.89 1311.2 Q1906.28 1312.36 1910.12 1313.08 L1912.94 1313.65 Q1918.17 1314.65 1920.65 1317.17 Q1923.15 1319.67 1923.15 1323.89 Q1923.15 1328.91 1919.77 1331.5 Q1916.42 1334.09 1909.91 1334.09 Q1907.46 1334.09 1904.68 1333.54 Q1901.92 1332.98 1898.96 1331.89 L1898.96 1327.08 Q1901.81 1328.68 1904.54 1329.49 Q1907.27 1330.3 1909.91 1330.3 Q1913.92 1330.3 1916.09 1328.72 Q1918.27 1327.15 1918.27 1324.23 Q1918.27 1321.69 1916.69 1320.25 Q1915.14 1318.82 1911.58 1318.1 L1908.73 1317.54 Q1903.5 1316.5 1901.16 1314.28 Q1898.82 1312.06 1898.82 1308.1 Q1898.82 1303.52 1902.04 1300.88 Q1905.28 1298.24 1910.95 1298.24 Q1913.38 1298.24 1915.91 1298.68 Q1918.43 1299.12 1921.07 1300 Z" fill="#000000" fill-rule="nonzero" fill-opacity="1"></path><path clip-path="url(#clip870)" d="M1934.47 1300.14 L1934.47 1307.5 L1943.24 1307.5 L1943.24 1310.81 L1934.47 1310.81 L1934.47 1324.88 Q1934.47 1328.05 1935.33 1328.95 Q1936.21 1329.86 1938.87 1329.86 L1943.24 1329.86 L1943.24 1333.42 L1938.87 1333.42 Q1933.94 1333.42 1932.06 1331.59 Q1930.19 1329.74 1930.19 1324.88 L1930.19 1310.81 L1927.06 1310.81 L1927.06 1307.5 L1930.19 1307.5 L1930.19 1300.14 L1934.47 1300.14 Z" fill="#000000" fill-rule="nonzero" fill-opacity="1"></path><path clip-path="url(#clip870)" d="M1960.63 1320.39 Q1955.47 1320.39 1953.48 1321.57 Q1951.48 1322.75 1951.48 1325.6 Q1951.48 1327.87 1952.97 1329.21 Q1954.47 1330.53 1957.04 1330.53 Q1960.58 1330.53 1962.71 1328.03 Q1964.86 1325.51 1964.86 1321.34 L1964.86 1320.39 L1960.63 1320.39 M1969.12 1318.63 L1969.12 1333.42 L1964.86 1333.42 L1964.86 1329.49 Q1963.41 1331.85 1961.23 1332.98 Q1959.05 1334.09 1955.91 1334.09 Q1951.92 1334.09 1949.56 1331.87 Q1947.23 1329.63 1947.23 1325.88 Q1947.23 1321.5 1950.14 1319.28 Q1953.08 1317.06 1958.89 1317.06 L1964.86 1317.06 L1964.86 1316.64 Q1964.86 1313.7 1962.92 1312.1 Q1961 1310.48 1957.5 1310.48 Q1955.28 1310.48 1953.17 1311.02 Q1951.07 1311.55 1949.12 1312.61 L1949.12 1308.68 Q1951.46 1307.77 1953.66 1307.33 Q1955.86 1306.87 1957.94 1306.87 Q1963.57 1306.87 1966.35 1309.79 Q1969.12 1312.71 1969.12 1318.63 Z" fill="#000000" fill-rule="nonzero" fill-opacity="1"></path><path clip-path="url(#clip870)" d="M1996.51 1320.48 Q1996.51 1315.78 1994.56 1313.12 Q1992.64 1310.44 1989.26 1310.44 Q1985.88 1310.44 1983.94 1313.12 Q1982.02 1315.78 1982.02 1320.48 Q1982.02 1325.18 1983.94 1327.87 Q1985.88 1330.53 1989.26 1330.53 Q1992.64 1330.53 1994.56 1327.87 Q1996.51 1325.18 1996.51 1320.48 M1982.02 1311.43 Q1983.36 1309.12 1985.4 1308.01 Q1987.46 1306.87 1990.3 1306.87 Q1995.03 1306.87 1997.97 1310.62 Q2000.93 1314.37 2000.93 1320.48 Q2000.93 1326.59 1997.97 1330.34 Q1995.03 1334.09 1990.3 1334.09 Q1987.46 1334.09 1985.4 1332.98 Q1983.36 1331.85 1982.02 1329.53 L1982.02 1333.42 L1977.73 1333.42 L1977.73 1297.4 L1982.02 1297.4 L1982.02 1311.43 Z" fill="#000000" fill-rule="nonzero" fill-opacity="1"></path><path clip-path="url(#clip870)" d="M2007.99 1307.5 L2012.25 1307.5 L2012.25 1333.42 L2007.99 1333.42 L2007.99 1307.5 M2007.99 1297.4 L2012.25 1297.4 L2012.25 1302.8 L2007.99 1302.8 L2007.99 1297.4 Z" fill="#000000" fill-rule="nonzero" fill-opacity="1"></path><path clip-path="url(#clip870)" d="M2021.16 1297.4 L2025.42 1297.4 L2025.42 1333.42 L2021.16 1333.42 L2021.16 1297.4 Z" fill="#000000" fill-rule="nonzero" fill-opacity="1"></path><path clip-path="url(#clip870)" d="M2034.33 1307.5 L2038.59 1307.5 L2038.59 1333.42 L2034.33 1333.42 L2034.33 1307.5 M2034.33 1297.4 L2038.59 1297.4 L2038.59 1302.8 L2034.33 1302.8 L2034.33 1297.4 Z" fill="#000000" fill-rule="nonzero" fill-opacity="1"></path><path clip-path="url(#clip870)" d="M2045.65 1307.5 L2065.88 1307.5 L2065.88 1311.39 L2049.86 1330.02 L2065.88 1330.02 L2065.88 1333.42 L2045.07 1333.42 L2045.07 1329.53 L2061.09 1310.9 L2045.65 1310.9 L2045.65 1307.5 Z" fill="#000000" fill-rule="nonzero" fill-opacity="1"></path><path clip-path="url(#clip870)" d="M2094.56 1319.39 L2094.56 1321.48 L2074.98 1321.48 Q2075.26 1325.88 2077.62 1328.19 Q2080 1330.48 2084.24 1330.48 Q2086.69 1330.48 2088.98 1329.88 Q2091.3 1329.28 2093.57 1328.08 L2093.57 1332.1 Q2091.28 1333.08 2088.87 1333.58 Q2086.46 1334.09 2083.98 1334.09 Q2077.78 1334.09 2074.15 1330.48 Q2070.54 1326.87 2070.54 1320.71 Q2070.54 1314.35 2073.96 1310.62 Q2077.41 1306.87 2083.24 1306.87 Q2088.47 1306.87 2091.51 1310.25 Q2094.56 1313.61 2094.56 1319.39 M2090.3 1318.14 Q2090.26 1314.65 2088.34 1312.57 Q2086.44 1310.48 2083.29 1310.48 Q2079.72 1310.48 2077.57 1312.5 Q2075.44 1314.51 2075.12 1318.17 L2090.3 1318.14 Z" fill="#000000" fill-rule="nonzero" fill-opacity="1"></path><path clip-path="url(#clip870)" d="M2118.61 1311.43 L2118.61 1297.4 L2122.87 1297.4 L2122.87 1333.42 L2118.61 1333.42 L2118.61 1329.53 Q2117.27 1331.85 2115.21 1332.98 Q2113.17 1334.09 2110.3 1334.09 Q2105.6 1334.09 2102.64 1330.34 Q2099.7 1326.59 2099.7 1320.48 Q2099.7 1314.37 2102.64 1310.62 Q2105.6 1306.87 2110.3 1306.87 Q2113.17 1306.87 2115.21 1308.01 Q2117.27 1309.12 2118.61 1311.43 M2104.1 1320.48 Q2104.1 1325.18 2106.02 1327.87 Q2107.97 1330.53 2111.35 1330.53 Q2114.72 1330.53 2116.67 1327.87 Q2118.61 1325.18 2118.61 1320.48 Q2118.61 1315.78 2116.67 1313.12 Q2114.72 1310.44 2111.35 1310.44 Q2107.97 1310.44 2106.02 1313.12 Q2104.1 1315.78 2104.1 1320.48 Z" fill="#000000" fill-rule="nonzero" fill-opacity="1"></path></svg>